M48
; DRILL file {KiCad 8.0.7} date 2025-01-22T11:12:06+0100
; FORMAT={-:-/ absolute / inch / decimal}
; #@! TF.CreationDate,2025-01-22T11:12:06+01:00
; #@! TF.GenerationSoftware,Kicad,Pcbnew,8.0.7
; #@! TF.FileFunction,Plated,1,2,PTH
FMAT,2
INCH
; #@! TA.AperFunction,Plated,PTH,ComponentDrill
T1C0.0315
; #@! TA.AperFunction,Plated,PTH,ComponentDrill
T2C0.0394
; #@! TA.AperFunction,Plated,PTH,ComponentDrill
T3C0.0433
%
G90
G05
T1
X6.6339Y-2.8543
X6.6535Y-2.4606
X6.8307Y-2.8543
X6.8504Y-2.4606
X7.126Y-2.4606
X7.126Y-2.8543
X7.1299Y-3.1071
X7.1299Y-3.5071
X7.3031Y-3.1071
X7.3031Y-3.5071
X7.3228Y-2.4606
X7.3228Y-2.8543
T2
X7.5787Y-2.9528
X7.5787Y-3.0528
X7.5787Y-3.1512
X7.5787Y-3.2496
X7.5787Y-3.348
X7.5787Y-3.4465
X7.5787Y-3.5449
X7.5787Y-3.6433
X8.4787Y-2.9528
X8.4787Y-3.0528
X8.4787Y-3.1512
X8.4787Y-3.2496
X8.4787Y-3.348
X8.4787Y-3.4465
X8.4787Y-3.5449
X8.4787Y-3.6433
T3
X6.6535Y-2.6772
X6.6693Y-1.9488
X6.7535Y-2.6772
X6.7598Y-3.7992
X6.8504Y-1.9488
X6.8535Y-2.6772
X6.9409Y-3.7992
X7.122Y-3.7992
X7.1228Y-2.6772
X7.2228Y-2.6772
X7.3031Y-3.7992
X7.3228Y-2.6772
X7.437Y-1.9488
X7.6181Y-1.9488
X7.9291Y-1.9488
X8.1102Y-1.9488
X8.7008Y-3.2047
X8.7008Y-3.3858
X8.7008Y-3.5669
X8.7008Y-3.748
M30
