%TF.GenerationSoftware,KiCad,Pcbnew,8.0.7*%
%TF.CreationDate,2025-01-22T11:11:32+01:00*%
%TF.ProjectId,Relay2ClickProj,52656c61-7932-4436-9c69-636b50726f6a,rev?*%
%TF.SameCoordinates,Original*%
%TF.FileFunction,Soldermask,Bot*%
%TF.FilePolarity,Negative*%
%FSLAX46Y46*%
G04 Gerber Fmt 4.6, Leading zero omitted, Abs format (unit mm)*
G04 Created by KiCad (PCBNEW 8.0.7) date 2025-01-22 11:11:32*
%MOMM*%
%LPD*%
G01*
G04 APERTURE LIST*
G04 Aperture macros list*
%AMRoundRect*
0 Rectangle with rounded corners*
0 $1 Rounding radius*
0 $2 $3 $4 $5 $6 $7 $8 $9 X,Y pos of 4 corners*
0 Add a 4 corners polygon primitive as box body*
4,1,4,$2,$3,$4,$5,$6,$7,$8,$9,$2,$3,0*
0 Add four circle primitives for the rounded corners*
1,1,$1+$1,$2,$3*
1,1,$1+$1,$4,$5*
1,1,$1+$1,$6,$7*
1,1,$1+$1,$8,$9*
0 Add four rect primitives between the rounded corners*
20,1,$1+$1,$2,$3,$4,$5,0*
20,1,$1+$1,$4,$5,$6,$7,0*
20,1,$1+$1,$6,$7,$8,$9,0*
20,1,$1+$1,$8,$9,$2,$3,0*%
G04 Aperture macros list end*
%ADD10RoundRect,0.250001X-0.799999X-0.799999X0.799999X-0.799999X0.799999X0.799999X-0.799999X0.799999X0*%
%ADD11C,2.100000*%
%ADD12R,1.905000X2.000000*%
%ADD13O,1.905000X2.000000*%
%ADD14C,1.600000*%
%ADD15O,1.600000X1.600000*%
%ADD16R,1.600000X1.600000*%
%ADD17RoundRect,0.250001X0.799999X-0.799999X0.799999X0.799999X-0.799999X0.799999X-0.799999X-0.799999X0*%
G04 APERTURE END LIST*
D10*
%TO.C,BT1*%
X169400000Y-49500000D03*
D11*
X174000000Y-49500000D03*
%TD*%
D12*
%TO.C,U2*%
X169000000Y-68000000D03*
D13*
X171540000Y-68000000D03*
X174080000Y-68000000D03*
%TD*%
D14*
%TO.C,R1*%
X185500000Y-78920000D03*
D15*
X185500000Y-89080000D03*
%TD*%
D10*
%TO.C,J4*%
X188900000Y-49500000D03*
D11*
X193500000Y-49500000D03*
%TD*%
D10*
%TO.C,J1*%
X171700000Y-96500000D03*
D11*
X176300000Y-96500000D03*
X180900000Y-96500000D03*
X185500000Y-96500000D03*
%TD*%
D16*
%TO.C,K1*%
X192500000Y-75000000D03*
D14*
X192500000Y-77540000D03*
X192500000Y-80040000D03*
X192500000Y-82540000D03*
X192500000Y-85040000D03*
X192500000Y-87540000D03*
X192500000Y-90040000D03*
X192500000Y-92540000D03*
X215360000Y-92540000D03*
X215360000Y-90040000D03*
X215360000Y-87540000D03*
X215360000Y-85040000D03*
X215360000Y-82540000D03*
X215360000Y-80040000D03*
X215360000Y-77540000D03*
X215360000Y-75000000D03*
%TD*%
D12*
%TO.C,U1*%
X180920000Y-68000000D03*
D13*
X183460000Y-68000000D03*
X186000000Y-68000000D03*
%TD*%
D16*
%TO.C,C2*%
X169000000Y-62500000D03*
D14*
X174000000Y-62500000D03*
%TD*%
D17*
%TO.C,J3*%
X221000000Y-95200000D03*
D11*
X221000000Y-90600000D03*
X221000000Y-86000000D03*
X221000000Y-81400000D03*
%TD*%
D16*
%TO.C,C4*%
X168500000Y-72500000D03*
D14*
X173500000Y-72500000D03*
%TD*%
D16*
%TO.C,C3*%
X181000000Y-72500000D03*
D14*
X186000000Y-72500000D03*
%TD*%
%TO.C,R2*%
X181100000Y-89080000D03*
D15*
X181100000Y-78920000D03*
%TD*%
D10*
%TO.C,J2*%
X201400000Y-49500000D03*
D11*
X206000000Y-49500000D03*
%TD*%
D16*
%TO.C,C1*%
X181000000Y-62500000D03*
D14*
X186000000Y-62500000D03*
%TD*%
M02*
