%TF.GenerationSoftware,KiCad,Pcbnew,8.0.7*%
%TF.CreationDate,2025-01-22T11:11:32+01:00*%
%TF.ProjectId,Relay2ClickProj,52656c61-7932-4436-9c69-636b50726f6a,rev?*%
%TF.SameCoordinates,Original*%
%TF.FileFunction,Copper,L1,Top*%
%TF.FilePolarity,Positive*%
%FSLAX46Y46*%
G04 Gerber Fmt 4.6, Leading zero omitted, Abs format (unit mm)*
G04 Created by KiCad (PCBNEW 8.0.7) date 2025-01-22 11:11:32*
%MOMM*%
%LPD*%
G01*
G04 APERTURE LIST*
G04 Aperture macros list*
%AMRoundRect*
0 Rectangle with rounded corners*
0 $1 Rounding radius*
0 $2 $3 $4 $5 $6 $7 $8 $9 X,Y pos of 4 corners*
0 Add a 4 corners polygon primitive as box body*
4,1,4,$2,$3,$4,$5,$6,$7,$8,$9,$2,$3,0*
0 Add four circle primitives for the rounded corners*
1,1,$1+$1,$2,$3*
1,1,$1+$1,$4,$5*
1,1,$1+$1,$6,$7*
1,1,$1+$1,$8,$9*
0 Add four rect primitives between the rounded corners*
20,1,$1+$1,$2,$3,$4,$5,0*
20,1,$1+$1,$4,$5,$6,$7,0*
20,1,$1+$1,$6,$7,$8,$9,0*
20,1,$1+$1,$8,$9,$2,$3,0*%
G04 Aperture macros list end*
%TA.AperFunction,ComponentPad*%
%ADD10RoundRect,0.250001X-0.799999X-0.799999X0.799999X-0.799999X0.799999X0.799999X-0.799999X0.799999X0*%
%TD*%
%TA.AperFunction,ComponentPad*%
%ADD11C,2.100000*%
%TD*%
%TA.AperFunction,ComponentPad*%
%ADD12R,1.905000X2.000000*%
%TD*%
%TA.AperFunction,ComponentPad*%
%ADD13O,1.905000X2.000000*%
%TD*%
%TA.AperFunction,ComponentPad*%
%ADD14C,1.600000*%
%TD*%
%TA.AperFunction,ComponentPad*%
%ADD15O,1.600000X1.600000*%
%TD*%
%TA.AperFunction,ComponentPad*%
%ADD16R,1.600000X1.600000*%
%TD*%
%TA.AperFunction,ComponentPad*%
%ADD17RoundRect,0.250001X0.799999X-0.799999X0.799999X0.799999X-0.799999X0.799999X-0.799999X-0.799999X0*%
%TD*%
%TA.AperFunction,Conductor*%
%ADD18C,0.200000*%
%TD*%
G04 APERTURE END LIST*
D10*
%TO.P,BT1,1,-*%
%TO.N,GND*%
X169400000Y-49500000D03*
D11*
%TO.P,BT1,2,+*%
%TO.N,Net-(BT1-+)*%
X174000000Y-49500000D03*
%TD*%
D12*
%TO.P,U2,1,IN*%
%TO.N,Net-(BT1-+)*%
X169000000Y-68000000D03*
D13*
%TO.P,U2,2,GND*%
%TO.N,GND*%
X171540000Y-68000000D03*
%TO.P,U2,3,OUT*%
%TO.N,Net-(J3-Pin_2)*%
X174080000Y-68000000D03*
%TD*%
D14*
%TO.P,R1,1*%
%TO.N,GND*%
X185500000Y-78920000D03*
D15*
%TO.P,R1,2*%
%TO.N,Net-(J3-Pin_3)*%
X185500000Y-89080000D03*
%TD*%
D10*
%TO.P,J4,1,Pin_1*%
%TO.N,GND*%
X188900000Y-49500000D03*
D11*
%TO.P,J4,2,Pin_2*%
%TO.N,Net-(J2-Pin_2)*%
X193500000Y-49500000D03*
%TD*%
D10*
%TO.P,J1,1,Pin_1*%
%TO.N,GND*%
X171700000Y-96500000D03*
D11*
%TO.P,J1,2,Pin_2*%
X176300000Y-96500000D03*
%TO.P,J1,3,Pin_3*%
%TO.N,Net-(BT1-+)*%
X180900000Y-96500000D03*
%TO.P,J1,4,Pin_4*%
%TO.N,Net-(J1-Pin_4)*%
X185500000Y-96500000D03*
%TD*%
D16*
%TO.P,K1,1,RL2*%
%TO.N,unconnected-(K1-RL2-Pad1)*%
X192500000Y-75000000D03*
D14*
%TO.P,K1,2,NC*%
%TO.N,unconnected-(K1-NC-Pad2)*%
X192500000Y-77540000D03*
%TO.P,K1,3,NC*%
%TO.N,unconnected-(K1-NC-Pad3)*%
X192500000Y-80040000D03*
%TO.P,K1,4,NC*%
%TO.N,unconnected-(K1-NC-Pad4)*%
X192500000Y-82540000D03*
%TO.P,K1,5,NC*%
%TO.N,unconnected-(K1-NC-Pad5)*%
X192500000Y-85040000D03*
%TO.P,K1,6,NC*%
%TO.N,unconnected-(K1-NC-Pad6)*%
X192500000Y-87540000D03*
%TO.P,K1,7,3.3V*%
%TO.N,Net-(K1-3.3V)*%
X192500000Y-90040000D03*
%TO.P,K1,8,GND*%
%TO.N,GND*%
X192500000Y-92540000D03*
%TO.P,K1,9,GND*%
%TO.N,unconnected-(K1-GND-Pad9)*%
X215360000Y-92540000D03*
%TO.P,K1,10,NC*%
%TO.N,unconnected-(K1-NC-Pad10)*%
X215360000Y-90040000D03*
%TO.P,K1,11,NC*%
%TO.N,unconnected-(K1-NC-Pad11)*%
X215360000Y-87540000D03*
%TO.P,K1,12,NC*%
%TO.N,unconnected-(K1-NC-Pad12)*%
X215360000Y-85040000D03*
%TO.P,K1,13,NC*%
%TO.N,unconnected-(K1-NC-Pad13)*%
X215360000Y-82540000D03*
%TO.P,K1,14,NC*%
%TO.N,unconnected-(K1-NC-Pad14)*%
X215360000Y-80040000D03*
%TO.P,K1,15,NC*%
%TO.N,unconnected-(K1-NC-Pad15)*%
X215360000Y-77540000D03*
%TO.P,K1,16,RL1*%
%TO.N,Net-(J3-Pin_4)*%
X215360000Y-75000000D03*
%TD*%
D12*
%TO.P,U1,1,IN*%
%TO.N,Net-(BT1-+)*%
X180920000Y-68000000D03*
D13*
%TO.P,U1,2,GND*%
%TO.N,GND*%
X183460000Y-68000000D03*
%TO.P,U1,3,OUT*%
%TO.N,Net-(K1-3.3V)*%
X186000000Y-68000000D03*
%TD*%
D16*
%TO.P,C2,1*%
%TO.N,GND*%
X169000000Y-62500000D03*
D14*
%TO.P,C2,2*%
%TO.N,Net-(BT1-+)*%
X174000000Y-62500000D03*
%TD*%
D17*
%TO.P,J3,1,Pin_1*%
%TO.N,GND*%
X221000000Y-95200000D03*
D11*
%TO.P,J3,2,Pin_2*%
%TO.N,Net-(J3-Pin_2)*%
X221000000Y-90600000D03*
%TO.P,J3,3,Pin_3*%
%TO.N,Net-(J3-Pin_3)*%
X221000000Y-86000000D03*
%TO.P,J3,4,Pin_4*%
%TO.N,Net-(J3-Pin_4)*%
X221000000Y-81400000D03*
%TD*%
D16*
%TO.P,C4,1*%
%TO.N,GND*%
X168500000Y-72500000D03*
D14*
%TO.P,C4,2*%
%TO.N,Net-(J3-Pin_2)*%
X173500000Y-72500000D03*
%TD*%
D16*
%TO.P,C3,1*%
%TO.N,GND*%
X181000000Y-72500000D03*
D14*
%TO.P,C3,2*%
%TO.N,Net-(K1-3.3V)*%
X186000000Y-72500000D03*
%TD*%
%TO.P,R2,1*%
%TO.N,Net-(J1-Pin_4)*%
X181100000Y-89080000D03*
D15*
%TO.P,R2,2*%
%TO.N,Net-(J3-Pin_3)*%
X181100000Y-78920000D03*
%TD*%
D10*
%TO.P,J2,1,Pin_2*%
%TO.N,Net-(J2-Pin_2)*%
X201400000Y-49500000D03*
D11*
%TO.P,J2,2,Pin_1*%
%TO.N,Net-(BT1-+)*%
X206000000Y-49500000D03*
%TD*%
D16*
%TO.P,C1,1*%
%TO.N,GND*%
X181000000Y-62500000D03*
D14*
%TO.P,C1,2*%
%TO.N,Net-(BT1-+)*%
X186000000Y-62500000D03*
%TD*%
D18*
%TO.N,Net-(J3-Pin_3)*%
X185500000Y-91000000D02*
X186000000Y-91500000D01*
X185500000Y-89080000D02*
X185500000Y-91000000D01*
X184380000Y-89080000D02*
X185500000Y-89080000D01*
X182900000Y-87600000D02*
X184380000Y-89080000D01*
X182320000Y-78920000D02*
X182900000Y-79500000D01*
X182900000Y-79500000D02*
X182900000Y-87600000D01*
X181100000Y-78920000D02*
X182320000Y-78920000D01*
%TO.N,Net-(J1-Pin_4)*%
X182000000Y-93000000D02*
X183100000Y-93000000D01*
X181100000Y-92100000D02*
X182000000Y-93000000D01*
X183100000Y-93000000D02*
X185550000Y-95450000D01*
X181100000Y-89080000D02*
X181100000Y-92100000D01*
%TO.N,Net-(BT1-+)*%
X174000000Y-91500000D02*
X174000000Y-75500000D01*
X180920000Y-66080000D02*
X180920000Y-68000000D01*
X174000000Y-49500000D02*
X174000000Y-50000000D01*
X186000000Y-64500000D02*
X185500000Y-65000000D01*
X180900000Y-96500000D02*
X180900000Y-94400000D01*
X174000000Y-49500000D02*
X173500000Y-50000000D01*
X172000000Y-60500000D02*
X171500000Y-60000000D01*
X174000000Y-50000000D02*
X174500000Y-50500000D01*
X173500000Y-60500000D02*
X172000000Y-60500000D01*
X177500000Y-72000000D02*
X177500000Y-65000000D01*
X169500000Y-65500000D02*
X173000000Y-65500000D01*
X169000000Y-66000000D02*
X169500000Y-65500000D01*
X176750000Y-59750000D02*
X177000000Y-59500000D01*
X174000000Y-64500000D02*
X174000000Y-62500000D01*
X180500000Y-94000000D02*
X176500000Y-94000000D01*
X174000000Y-51000000D02*
X174000000Y-49500000D01*
X173000000Y-65500000D02*
X174000000Y-64500000D01*
X181500000Y-60500000D02*
X185500000Y-60500000D01*
X186000000Y-62500000D02*
X186000000Y-64500000D01*
X180900000Y-94400000D02*
X180500000Y-94000000D01*
X186000000Y-61000000D02*
X186000000Y-62500000D01*
X169000000Y-68000000D02*
X169000000Y-66000000D01*
X176500000Y-52000000D02*
X206000000Y-52000000D01*
X174500000Y-53500000D02*
X181500000Y-60500000D01*
X174500000Y-50500000D02*
X174500000Y-53500000D01*
X174000000Y-75500000D02*
X177500000Y-72000000D01*
X177500000Y-65000000D02*
X176750000Y-64250000D01*
X174000000Y-62500000D02*
X174000000Y-61000000D01*
X177000000Y-59500000D02*
X177000000Y-59000000D01*
X174000000Y-61000000D02*
X173500000Y-60500000D01*
X173000000Y-55000000D02*
X173000000Y-52000000D01*
X174000000Y-49500000D02*
X176500000Y-52000000D01*
X173000000Y-52000000D02*
X174000000Y-51000000D01*
X185500000Y-60500000D02*
X186000000Y-61000000D01*
X182000000Y-65000000D02*
X180920000Y-66080000D01*
X176750000Y-64250000D02*
X176750000Y-59750000D01*
X177000000Y-59000000D02*
X173000000Y-55000000D01*
X185500000Y-65000000D02*
X182000000Y-65000000D01*
X206000000Y-52000000D02*
X206000000Y-49500000D01*
X171500000Y-60000000D02*
X171500000Y-52000000D01*
X176500000Y-94000000D02*
X174000000Y-91500000D01*
X171500000Y-52000000D02*
X174000000Y-49500000D01*
%TO.N,Net-(K1-3.3V)*%
X189500000Y-74500000D02*
X189500000Y-89500000D01*
X186000000Y-72500000D02*
X187500000Y-72500000D01*
X190040000Y-90040000D02*
X192500000Y-90040000D01*
X189500000Y-89500000D02*
X190040000Y-90040000D01*
X187500000Y-72500000D02*
X189500000Y-74500000D01*
X186000000Y-68000000D02*
X186000000Y-72500000D01*
%TO.N,Net-(J3-Pin_2)*%
X168500000Y-98000000D02*
X170500000Y-100000000D01*
X169000000Y-75500000D02*
X168500000Y-76000000D01*
X171500000Y-74500000D02*
X171500000Y-75500000D01*
X219000000Y-90000000D02*
X220400000Y-90000000D01*
X174080000Y-69420000D02*
X173500000Y-70000000D01*
X171500000Y-75500000D02*
X169000000Y-75500000D01*
X173500000Y-72500000D02*
X171500000Y-74500000D01*
X215500000Y-100000000D02*
X219000000Y-96500000D01*
X220400000Y-90000000D02*
X221000000Y-90600000D01*
X173500000Y-70000000D02*
X173500000Y-72500000D01*
X219000000Y-96500000D02*
X219000000Y-90000000D01*
X168500000Y-76000000D02*
X168500000Y-98000000D01*
X170500000Y-100000000D02*
X215500000Y-100000000D01*
X174080000Y-69420000D02*
X174080000Y-68000000D01*
%TO.N,Net-(J2-Pin_2)*%
X193500000Y-49500000D02*
X201400000Y-49500000D01*
%TO.N,Net-(J3-Pin_4)*%
X221000000Y-81400000D02*
X217900000Y-81400000D01*
X217000000Y-80500000D02*
X217000000Y-75500000D01*
X217000000Y-75500000D02*
X216500000Y-75000000D01*
X216500000Y-75000000D02*
X215360000Y-75000000D01*
X217900000Y-81400000D02*
X217000000Y-80500000D01*
%TO.N,Net-(J3-Pin_3)*%
X188500000Y-94000000D02*
X188500000Y-96500000D01*
X219000000Y-86000000D02*
X221000000Y-86000000D01*
X217500000Y-95000000D02*
X217500000Y-87500000D01*
X190500000Y-98500000D02*
X214000000Y-98500000D01*
X214000000Y-98500000D02*
X217500000Y-95000000D01*
X188500000Y-96500000D02*
X190500000Y-98500000D01*
X217500000Y-87500000D02*
X219000000Y-86000000D01*
X186000000Y-91500000D02*
X188500000Y-94000000D01*
%TD*%
%TA.AperFunction,Conductor*%
%TO.N,GND*%
G36*
X224942539Y-45699185D02*
G01*
X224988294Y-45751989D01*
X224999500Y-45803500D01*
X224999500Y-101196500D01*
X224979815Y-101263539D01*
X224927011Y-101309294D01*
X224875500Y-101320500D01*
X164402500Y-101320500D01*
X164335461Y-101300815D01*
X164289706Y-101248011D01*
X164278500Y-101196500D01*
X164278500Y-71652155D01*
X167200000Y-71652155D01*
X167200000Y-72250000D01*
X168184314Y-72250000D01*
X168179920Y-72254394D01*
X168127259Y-72345606D01*
X168100000Y-72447339D01*
X168100000Y-72552661D01*
X168127259Y-72654394D01*
X168179920Y-72745606D01*
X168184314Y-72750000D01*
X167200000Y-72750000D01*
X167200000Y-73347844D01*
X167206401Y-73407372D01*
X167206403Y-73407379D01*
X167256645Y-73542086D01*
X167256649Y-73542093D01*
X167342809Y-73657187D01*
X167342812Y-73657190D01*
X167457906Y-73743350D01*
X167457913Y-73743354D01*
X167592620Y-73793596D01*
X167592627Y-73793598D01*
X167652155Y-73799999D01*
X167652172Y-73800000D01*
X168250000Y-73800000D01*
X168250000Y-72815686D01*
X168254394Y-72820080D01*
X168345606Y-72872741D01*
X168447339Y-72900000D01*
X168552661Y-72900000D01*
X168654394Y-72872741D01*
X168745606Y-72820080D01*
X168750000Y-72815686D01*
X168750000Y-73800000D01*
X169347828Y-73800000D01*
X169347844Y-73799999D01*
X169407372Y-73793598D01*
X169407379Y-73793596D01*
X169542086Y-73743354D01*
X169542093Y-73743350D01*
X169657187Y-73657190D01*
X169657190Y-73657187D01*
X169743350Y-73542093D01*
X169743354Y-73542086D01*
X169793596Y-73407379D01*
X169793598Y-73407372D01*
X169799999Y-73347844D01*
X169800000Y-73347827D01*
X169800000Y-72750000D01*
X168815686Y-72750000D01*
X168820080Y-72745606D01*
X168872741Y-72654394D01*
X168900000Y-72552661D01*
X168900000Y-72447339D01*
X168872741Y-72345606D01*
X168820080Y-72254394D01*
X168815686Y-72250000D01*
X169800000Y-72250000D01*
X169800000Y-71652172D01*
X169799999Y-71652155D01*
X169793598Y-71592627D01*
X169793596Y-71592620D01*
X169743354Y-71457913D01*
X169743350Y-71457906D01*
X169657190Y-71342812D01*
X169657187Y-71342809D01*
X169542093Y-71256649D01*
X169542086Y-71256645D01*
X169407379Y-71206403D01*
X169407372Y-71206401D01*
X169347844Y-71200000D01*
X168750000Y-71200000D01*
X168750000Y-72184314D01*
X168745606Y-72179920D01*
X168654394Y-72127259D01*
X168552661Y-72100000D01*
X168447339Y-72100000D01*
X168345606Y-72127259D01*
X168254394Y-72179920D01*
X168250000Y-72184314D01*
X168250000Y-71200000D01*
X167652155Y-71200000D01*
X167592627Y-71206401D01*
X167592620Y-71206403D01*
X167457913Y-71256645D01*
X167457906Y-71256649D01*
X167342812Y-71342809D01*
X167342809Y-71342812D01*
X167256649Y-71457906D01*
X167256645Y-71457913D01*
X167206403Y-71592620D01*
X167206401Y-71592627D01*
X167200000Y-71652155D01*
X164278500Y-71652155D01*
X164278500Y-66952135D01*
X167547000Y-66952135D01*
X167547000Y-69047870D01*
X167547001Y-69047876D01*
X167553408Y-69107483D01*
X167603702Y-69242328D01*
X167603706Y-69242335D01*
X167689952Y-69357544D01*
X167689955Y-69357547D01*
X167805164Y-69443793D01*
X167805171Y-69443797D01*
X167940017Y-69494091D01*
X167940016Y-69494091D01*
X167946944Y-69494835D01*
X167999627Y-69500500D01*
X170000372Y-69500499D01*
X170059983Y-69494091D01*
X170194831Y-69443796D01*
X170310046Y-69357546D01*
X170396296Y-69242331D01*
X170406872Y-69213974D01*
X170448740Y-69158041D01*
X170514204Y-69133622D01*
X170582477Y-69148472D01*
X170595940Y-69156988D01*
X170778723Y-69289788D01*
X170982429Y-69393582D01*
X171199871Y-69464234D01*
X171290000Y-69478509D01*
X171290000Y-68490747D01*
X171327708Y-68512518D01*
X171467591Y-68550000D01*
X171612409Y-68550000D01*
X171752292Y-68512518D01*
X171790000Y-68490747D01*
X171790000Y-69478508D01*
X171880128Y-69464234D01*
X172097570Y-69393582D01*
X172301276Y-69289788D01*
X172486242Y-69155402D01*
X172647905Y-68993739D01*
X172709371Y-68909137D01*
X172764701Y-68866470D01*
X172834314Y-68860491D01*
X172896109Y-68893096D01*
X172910007Y-68909134D01*
X172971714Y-68994066D01*
X173133434Y-69155786D01*
X173136538Y-69158041D01*
X173225380Y-69222589D01*
X173268045Y-69277920D01*
X173274024Y-69347533D01*
X173241418Y-69409328D01*
X173240176Y-69410588D01*
X173131286Y-69519478D01*
X173019481Y-69631282D01*
X173019480Y-69631284D01*
X172978702Y-69701915D01*
X172969361Y-69718094D01*
X172969359Y-69718096D01*
X172940425Y-69768209D01*
X172940424Y-69768210D01*
X172924544Y-69827472D01*
X172899499Y-69920943D01*
X172899499Y-69920945D01*
X172899499Y-70089046D01*
X172899500Y-70089059D01*
X172899500Y-71268306D01*
X172879815Y-71335345D01*
X172846623Y-71369881D01*
X172660859Y-71499953D01*
X172499954Y-71660858D01*
X172369432Y-71847265D01*
X172369431Y-71847267D01*
X172273261Y-72053502D01*
X172273258Y-72053511D01*
X172214366Y-72273302D01*
X172214364Y-72273313D01*
X172194532Y-72499998D01*
X172194532Y-72500001D01*
X172214364Y-72726686D01*
X172214366Y-72726697D01*
X172240152Y-72822931D01*
X172238489Y-72892781D01*
X172208058Y-72942705D01*
X171131286Y-74019478D01*
X171019481Y-74131282D01*
X171019479Y-74131285D01*
X170969361Y-74218094D01*
X170969359Y-74218096D01*
X170940425Y-74268209D01*
X170940424Y-74268210D01*
X170924544Y-74327472D01*
X170899499Y-74420943D01*
X170899499Y-74420945D01*
X170899499Y-74589046D01*
X170899500Y-74589059D01*
X170899500Y-74775500D01*
X170879815Y-74842539D01*
X170827011Y-74888294D01*
X170775500Y-74899500D01*
X169086670Y-74899500D01*
X169086654Y-74899499D01*
X169079058Y-74899499D01*
X168920943Y-74899499D01*
X168844579Y-74919961D01*
X168768214Y-74940423D01*
X168768209Y-74940426D01*
X168631290Y-75019475D01*
X168631282Y-75019481D01*
X168124217Y-75526546D01*
X168124214Y-75526548D01*
X168124215Y-75526549D01*
X168019478Y-75631286D01*
X167986066Y-75689158D01*
X167972640Y-75712415D01*
X167969361Y-75718094D01*
X167969359Y-75718096D01*
X167940425Y-75768209D01*
X167940424Y-75768210D01*
X167940423Y-75768215D01*
X167899499Y-75920943D01*
X167899499Y-75920945D01*
X167899499Y-76089046D01*
X167899500Y-76089059D01*
X167899500Y-97913330D01*
X167899499Y-97913348D01*
X167899499Y-98079054D01*
X167899498Y-98079054D01*
X167940424Y-98231789D01*
X167940425Y-98231790D01*
X167961455Y-98268214D01*
X167961456Y-98268216D01*
X168019475Y-98368709D01*
X168019481Y-98368717D01*
X168138349Y-98487585D01*
X168138355Y-98487590D01*
X170015139Y-100364374D01*
X170015149Y-100364385D01*
X170019479Y-100368715D01*
X170019480Y-100368716D01*
X170131284Y-100480520D01*
X170218095Y-100530639D01*
X170218097Y-100530641D01*
X170256151Y-100552611D01*
X170268215Y-100559577D01*
X170420943Y-100600500D01*
X215413331Y-100600500D01*
X215413347Y-100600501D01*
X215420943Y-100600501D01*
X215579054Y-100600501D01*
X215579057Y-100600501D01*
X215731785Y-100559577D01*
X215781904Y-100530639D01*
X215868716Y-100480520D01*
X215980520Y-100368716D01*
X215980520Y-100368714D01*
X215990728Y-100358507D01*
X215990730Y-100358504D01*
X219358506Y-96990728D01*
X219358511Y-96990724D01*
X219368714Y-96980520D01*
X219368716Y-96980520D01*
X219480520Y-96868716D01*
X219559577Y-96731784D01*
X219572944Y-96681895D01*
X219609307Y-96622237D01*
X219672153Y-96591707D01*
X219741529Y-96600001D01*
X219757815Y-96608451D01*
X219880876Y-96684356D01*
X219880881Y-96684358D01*
X220047303Y-96739505D01*
X220047310Y-96739506D01*
X220150014Y-96749999D01*
X220150027Y-96750000D01*
X220750000Y-96750000D01*
X220750000Y-95690747D01*
X220787708Y-95712518D01*
X220927591Y-95750000D01*
X221072409Y-95750000D01*
X221212292Y-95712518D01*
X221250000Y-95690747D01*
X221250000Y-96750000D01*
X221849973Y-96750000D01*
X221849985Y-96749999D01*
X221952689Y-96739506D01*
X221952696Y-96739505D01*
X222119118Y-96684358D01*
X222119123Y-96684356D01*
X222268344Y-96592315D01*
X222392315Y-96468344D01*
X222484356Y-96319123D01*
X222484358Y-96319118D01*
X222539505Y-96152696D01*
X222539506Y-96152689D01*
X222549999Y-96049985D01*
X222550000Y-96049972D01*
X222550000Y-95450000D01*
X221490748Y-95450000D01*
X221512518Y-95412292D01*
X221550000Y-95272409D01*
X221550000Y-95127591D01*
X221512518Y-94987708D01*
X221490748Y-94950000D01*
X222550000Y-94950000D01*
X222550000Y-94350027D01*
X222549999Y-94350014D01*
X222539506Y-94247310D01*
X222539505Y-94247303D01*
X222484358Y-94080881D01*
X222484356Y-94080876D01*
X222392315Y-93931655D01*
X222268344Y-93807684D01*
X222119123Y-93715643D01*
X222119118Y-93715641D01*
X221952696Y-93660494D01*
X221952689Y-93660493D01*
X221849985Y-93650000D01*
X221250000Y-93650000D01*
X221250000Y-94709252D01*
X221212292Y-94687482D01*
X221072409Y-94650000D01*
X220927591Y-94650000D01*
X220787708Y-94687482D01*
X220750000Y-94709252D01*
X220750000Y-93650000D01*
X220150014Y-93650000D01*
X220047310Y-93660493D01*
X220047303Y-93660494D01*
X219880881Y-93715641D01*
X219880872Y-93715645D01*
X219789596Y-93771945D01*
X219722204Y-93790385D01*
X219655540Y-93769462D01*
X219610771Y-93715820D01*
X219600500Y-93666406D01*
X219600500Y-91684923D01*
X219620185Y-91617884D01*
X219672989Y-91572129D01*
X219742147Y-91562185D01*
X219805703Y-91591210D01*
X219818784Y-91604385D01*
X219887570Y-91684923D01*
X219900241Y-91699759D01*
X220085823Y-91858261D01*
X220085826Y-91858262D01*
X220293910Y-91985777D01*
X220519381Y-92079169D01*
X220519378Y-92079169D01*
X220519384Y-92079170D01*
X220519388Y-92079172D01*
X220756698Y-92136146D01*
X221000000Y-92155294D01*
X221243302Y-92136146D01*
X221480612Y-92079172D01*
X221706089Y-91985777D01*
X221914179Y-91858259D01*
X222099759Y-91699759D01*
X222258259Y-91514179D01*
X222385777Y-91306089D01*
X222479172Y-91080612D01*
X222536146Y-90843302D01*
X222555294Y-90600000D01*
X222536146Y-90356698D01*
X222479172Y-90119388D01*
X222421652Y-89980521D01*
X222385777Y-89893910D01*
X222258262Y-89685826D01*
X222258261Y-89685823D01*
X222194049Y-89610641D01*
X222099759Y-89500241D01*
X221966729Y-89386623D01*
X221914176Y-89341738D01*
X221914173Y-89341737D01*
X221706089Y-89214222D01*
X221480618Y-89120830D01*
X221480621Y-89120830D01*
X221310558Y-89080001D01*
X221243302Y-89063854D01*
X221243300Y-89063853D01*
X221243297Y-89063853D01*
X221000000Y-89044706D01*
X220756702Y-89063853D01*
X220519380Y-89120830D01*
X220293910Y-89214222D01*
X220085826Y-89341737D01*
X220085824Y-89341738D01*
X220052979Y-89369791D01*
X219989218Y-89398361D01*
X219972448Y-89399500D01*
X218920943Y-89399500D01*
X218768216Y-89440423D01*
X218768209Y-89440426D01*
X218631290Y-89519475D01*
X218631282Y-89519481D01*
X218519481Y-89631282D01*
X218519475Y-89631290D01*
X218440426Y-89768209D01*
X218440423Y-89768216D01*
X218399500Y-89920943D01*
X218399500Y-96199903D01*
X218379815Y-96266942D01*
X218363181Y-96287584D01*
X215287584Y-99363181D01*
X215226261Y-99396666D01*
X215199903Y-99399500D01*
X170800097Y-99399500D01*
X170733058Y-99379815D01*
X170712416Y-99363181D01*
X169136819Y-97787584D01*
X169103334Y-97726261D01*
X169100500Y-97699903D01*
X169100500Y-95650014D01*
X170150000Y-95650014D01*
X170150000Y-96250000D01*
X171209252Y-96250000D01*
X171187482Y-96287708D01*
X171150000Y-96427591D01*
X171150000Y-96572409D01*
X171187482Y-96712292D01*
X171209252Y-96750000D01*
X170150000Y-96750000D01*
X170150000Y-97349985D01*
X170160493Y-97452689D01*
X170160494Y-97452696D01*
X170215641Y-97619118D01*
X170215643Y-97619123D01*
X170307684Y-97768344D01*
X170431655Y-97892315D01*
X170580876Y-97984356D01*
X170580881Y-97984358D01*
X170747303Y-98039505D01*
X170747310Y-98039506D01*
X170850014Y-98049999D01*
X170850027Y-98050000D01*
X171450000Y-98050000D01*
X171450000Y-96990747D01*
X171487708Y-97012518D01*
X171627591Y-97050000D01*
X171772409Y-97050000D01*
X171912292Y-97012518D01*
X171950000Y-96990747D01*
X171950000Y-98050000D01*
X172549973Y-98050000D01*
X172549985Y-98049999D01*
X172652689Y-98039506D01*
X172652696Y-98039505D01*
X172819118Y-97984358D01*
X172819123Y-97984356D01*
X172968344Y-97892315D01*
X173092315Y-97768344D01*
X173184356Y-97619123D01*
X173184358Y-97619118D01*
X173239505Y-97452696D01*
X173239506Y-97452689D01*
X173249999Y-97349985D01*
X173250000Y-97349972D01*
X173250000Y-96750000D01*
X172190748Y-96750000D01*
X172212518Y-96712292D01*
X172250000Y-96572409D01*
X172250000Y-96500000D01*
X174745207Y-96500000D01*
X174764348Y-96743219D01*
X174821303Y-96980457D01*
X174914668Y-97205861D01*
X175038504Y-97407942D01*
X175776212Y-96670234D01*
X175787482Y-96712292D01*
X175859890Y-96837708D01*
X175962292Y-96940110D01*
X176087708Y-97012518D01*
X176129765Y-97023787D01*
X175392056Y-97761494D01*
X175594138Y-97885331D01*
X175819542Y-97978696D01*
X176056780Y-98035651D01*
X176056779Y-98035651D01*
X176300000Y-98054792D01*
X176543219Y-98035651D01*
X176780457Y-97978696D01*
X177005861Y-97885331D01*
X177207942Y-97761494D01*
X176470234Y-97023787D01*
X176512292Y-97012518D01*
X176637708Y-96940110D01*
X176740110Y-96837708D01*
X176812518Y-96712292D01*
X176823787Y-96670234D01*
X177561494Y-97407942D01*
X177685331Y-97205861D01*
X177778696Y-96980457D01*
X177835651Y-96743219D01*
X177854792Y-96500000D01*
X177835651Y-96256780D01*
X177778696Y-96019542D01*
X177685331Y-95794138D01*
X177561494Y-95592056D01*
X176823787Y-96329764D01*
X176812518Y-96287708D01*
X176740110Y-96162292D01*
X176637708Y-96059890D01*
X176512292Y-95987482D01*
X176470233Y-95976212D01*
X177207942Y-95238504D01*
X177005861Y-95114668D01*
X176780457Y-95021303D01*
X176543219Y-94964348D01*
X176543220Y-94964348D01*
X176300000Y-94945207D01*
X176056780Y-94964348D01*
X175819542Y-95021303D01*
X175594146Y-95114665D01*
X175594141Y-95114668D01*
X175392056Y-95238504D01*
X176129765Y-95976212D01*
X176087708Y-95987482D01*
X175962292Y-96059890D01*
X175859890Y-96162292D01*
X175787482Y-96287708D01*
X175776212Y-96329765D01*
X175038504Y-95592056D01*
X174914668Y-95794141D01*
X174914665Y-95794146D01*
X174821303Y-96019542D01*
X174764348Y-96256780D01*
X174745207Y-96500000D01*
X172250000Y-96500000D01*
X172250000Y-96427591D01*
X172212518Y-96287708D01*
X172190748Y-96250000D01*
X173250000Y-96250000D01*
X173250000Y-95650027D01*
X173249999Y-95650014D01*
X173239506Y-95547310D01*
X173239505Y-95547303D01*
X173184358Y-95380881D01*
X173184356Y-95380876D01*
X173092315Y-95231655D01*
X172968344Y-95107684D01*
X172819123Y-95015643D01*
X172819118Y-95015641D01*
X172652696Y-94960494D01*
X172652689Y-94960493D01*
X172549985Y-94950000D01*
X171950000Y-94950000D01*
X171950000Y-96009252D01*
X171912292Y-95987482D01*
X171772409Y-95950000D01*
X171627591Y-95950000D01*
X171487708Y-95987482D01*
X171450000Y-96009252D01*
X171450000Y-94950000D01*
X170850014Y-94950000D01*
X170747310Y-94960493D01*
X170747303Y-94960494D01*
X170580881Y-95015641D01*
X170580876Y-95015643D01*
X170431655Y-95107684D01*
X170307684Y-95231655D01*
X170215643Y-95380876D01*
X170215641Y-95380881D01*
X170160494Y-95547303D01*
X170160493Y-95547310D01*
X170150000Y-95650014D01*
X169100500Y-95650014D01*
X169100500Y-76300098D01*
X169120185Y-76233059D01*
X169136819Y-76212416D01*
X169212418Y-76136818D01*
X169273742Y-76103334D01*
X169300099Y-76100500D01*
X171579055Y-76100500D01*
X171579057Y-76100500D01*
X171731784Y-76059577D01*
X171868716Y-75980520D01*
X171980520Y-75868716D01*
X172059577Y-75731784D01*
X172100500Y-75579057D01*
X172100500Y-74800096D01*
X172120185Y-74733057D01*
X172136814Y-74712419D01*
X173057294Y-73791939D01*
X173118615Y-73758456D01*
X173177066Y-73759847D01*
X173196604Y-73765082D01*
X173273308Y-73785635D01*
X173435230Y-73799801D01*
X173499998Y-73805468D01*
X173500000Y-73805468D01*
X173500002Y-73805468D01*
X173562511Y-73799999D01*
X173726692Y-73785635D01*
X173946496Y-73726739D01*
X174152734Y-73630568D01*
X174339139Y-73500047D01*
X174500047Y-73339139D01*
X174630568Y-73152734D01*
X174726739Y-72946496D01*
X174785635Y-72726692D01*
X174805468Y-72500000D01*
X174804656Y-72490724D01*
X174793982Y-72368716D01*
X174785635Y-72273308D01*
X174726739Y-72053504D01*
X174630568Y-71847266D01*
X174500047Y-71660861D01*
X174500045Y-71660858D01*
X174339140Y-71499953D01*
X174153377Y-71369881D01*
X174109752Y-71315304D01*
X174100500Y-71268306D01*
X174100500Y-70300096D01*
X174120185Y-70233057D01*
X174136815Y-70212419D01*
X174448713Y-69900521D01*
X174448716Y-69900520D01*
X174560520Y-69788716D01*
X174610639Y-69701904D01*
X174639577Y-69651785D01*
X174680501Y-69499057D01*
X174680501Y-69448256D01*
X174700186Y-69381217D01*
X174748206Y-69337771D01*
X174841538Y-69290217D01*
X175026566Y-69155786D01*
X175188286Y-68994066D01*
X175322717Y-68809038D01*
X175426548Y-68605258D01*
X175497222Y-68387745D01*
X175533000Y-68161854D01*
X175533000Y-67838146D01*
X175497222Y-67612255D01*
X175497221Y-67612251D01*
X175497221Y-67612250D01*
X175426549Y-67394744D01*
X175322716Y-67190961D01*
X175285333Y-67139508D01*
X175188286Y-67005934D01*
X175026566Y-66844214D01*
X174841538Y-66709783D01*
X174637755Y-66605950D01*
X174420248Y-66535278D01*
X174234812Y-66505908D01*
X174194354Y-66499500D01*
X173965646Y-66499500D01*
X173925188Y-66505908D01*
X173739753Y-66535278D01*
X173739750Y-66535278D01*
X173522244Y-66605950D01*
X173318461Y-66709783D01*
X173252550Y-66757671D01*
X173133434Y-66844214D01*
X173133432Y-66844216D01*
X173133431Y-66844216D01*
X172971716Y-67005931D01*
X172971709Y-67005940D01*
X172910007Y-67090864D01*
X172854677Y-67133530D01*
X172785063Y-67139508D01*
X172723269Y-67106901D01*
X172709372Y-67090863D01*
X172647907Y-67006263D01*
X172647902Y-67006257D01*
X172486242Y-66844597D01*
X172301276Y-66710211D01*
X172097568Y-66606417D01*
X171880124Y-66535765D01*
X171790000Y-66521490D01*
X171790000Y-67509252D01*
X171752292Y-67487482D01*
X171612409Y-67450000D01*
X171467591Y-67450000D01*
X171327708Y-67487482D01*
X171290000Y-67509252D01*
X171290000Y-66521490D01*
X171289999Y-66521490D01*
X171199875Y-66535765D01*
X170982431Y-66606417D01*
X170778719Y-66710213D01*
X170595939Y-66843010D01*
X170530132Y-66866490D01*
X170462079Y-66850664D01*
X170413384Y-66800558D01*
X170406875Y-66786033D01*
X170396296Y-66757669D01*
X170396295Y-66757667D01*
X170396293Y-66757664D01*
X170310047Y-66642455D01*
X170310044Y-66642452D01*
X170194835Y-66556206D01*
X170194828Y-66556202D01*
X170059982Y-66505908D01*
X170059983Y-66505908D01*
X170000383Y-66499501D01*
X170000381Y-66499500D01*
X170000373Y-66499500D01*
X170000365Y-66499500D01*
X169724500Y-66499500D01*
X169657461Y-66479815D01*
X169611706Y-66427011D01*
X169600500Y-66375500D01*
X169600500Y-66300098D01*
X169620185Y-66233059D01*
X169636819Y-66212416D01*
X169712418Y-66136818D01*
X169773742Y-66103334D01*
X169800099Y-66100500D01*
X172913331Y-66100500D01*
X172913347Y-66100501D01*
X172920943Y-66100501D01*
X173079054Y-66100501D01*
X173079057Y-66100501D01*
X173231785Y-66059577D01*
X173281904Y-66030639D01*
X173368716Y-65980520D01*
X173480520Y-65868716D01*
X173480520Y-65868714D01*
X173490728Y-65858507D01*
X173490729Y-65858504D01*
X174480520Y-64868716D01*
X174559577Y-64731784D01*
X174600501Y-64579057D01*
X174600501Y-64420942D01*
X174600501Y-64413347D01*
X174600500Y-64413329D01*
X174600500Y-63731692D01*
X174620185Y-63664653D01*
X174653374Y-63630119D01*
X174839139Y-63500047D01*
X175000047Y-63339139D01*
X175130568Y-63152734D01*
X175226739Y-62946496D01*
X175285635Y-62726692D01*
X175305468Y-62500000D01*
X175285635Y-62273308D01*
X175226739Y-62053504D01*
X175130568Y-61847266D01*
X175000047Y-61660861D01*
X175000045Y-61660858D01*
X174839140Y-61499953D01*
X174653377Y-61369881D01*
X174609752Y-61315304D01*
X174600500Y-61268306D01*
X174600500Y-61089060D01*
X174600501Y-61089047D01*
X174600501Y-60920944D01*
X174600501Y-60920943D01*
X174559577Y-60768216D01*
X174559573Y-60768209D01*
X174480524Y-60631290D01*
X174480518Y-60631282D01*
X173868717Y-60019481D01*
X173868716Y-60019480D01*
X173781904Y-59969360D01*
X173781904Y-59969359D01*
X173781900Y-59969358D01*
X173731785Y-59940423D01*
X173579057Y-59899499D01*
X173420943Y-59899499D01*
X173413347Y-59899499D01*
X173413331Y-59899500D01*
X172300098Y-59899500D01*
X172233059Y-59879815D01*
X172212417Y-59863181D01*
X172136819Y-59787583D01*
X172103334Y-59726260D01*
X172100500Y-59699902D01*
X172100500Y-52300097D01*
X172120185Y-52233058D01*
X172136819Y-52212416D01*
X172187819Y-52161416D01*
X172249142Y-52127931D01*
X172318834Y-52132915D01*
X172374767Y-52174787D01*
X172399184Y-52240251D01*
X172399500Y-52249097D01*
X172399500Y-54913330D01*
X172399499Y-54913348D01*
X172399499Y-55079054D01*
X172399498Y-55079054D01*
X172440423Y-55231785D01*
X172469358Y-55281900D01*
X172469359Y-55281904D01*
X172469360Y-55281904D01*
X172519479Y-55368714D01*
X172519481Y-55368717D01*
X172638349Y-55487585D01*
X172638355Y-55487590D01*
X176313083Y-59162318D01*
X176346568Y-59223641D01*
X176341584Y-59293333D01*
X176313084Y-59337679D01*
X176269481Y-59381282D01*
X176269479Y-59381285D01*
X176219361Y-59468094D01*
X176219359Y-59468096D01*
X176190425Y-59518209D01*
X176190424Y-59518210D01*
X176190423Y-59518215D01*
X176149499Y-59670943D01*
X176149499Y-59670945D01*
X176149499Y-59839046D01*
X176149500Y-59839059D01*
X176149500Y-64163330D01*
X176149499Y-64163348D01*
X176149499Y-64329054D01*
X176149498Y-64329054D01*
X176167615Y-64396666D01*
X176190423Y-64481785D01*
X176212187Y-64519481D01*
X176219358Y-64531900D01*
X176219359Y-64531904D01*
X176219360Y-64531904D01*
X176269479Y-64618714D01*
X176269481Y-64618717D01*
X176388349Y-64737585D01*
X176388355Y-64737590D01*
X176863181Y-65212416D01*
X176896666Y-65273739D01*
X176899500Y-65300097D01*
X176899500Y-71699902D01*
X176879815Y-71766941D01*
X176863181Y-71787583D01*
X173519481Y-75131282D01*
X173519479Y-75131285D01*
X173469361Y-75218094D01*
X173469359Y-75218096D01*
X173440425Y-75268209D01*
X173440424Y-75268210D01*
X173424544Y-75327472D01*
X173399499Y-75420943D01*
X173399499Y-75420944D01*
X173399499Y-75420945D01*
X173399499Y-75589046D01*
X173399500Y-75589059D01*
X173399500Y-91413330D01*
X173399499Y-91413348D01*
X173399499Y-91579054D01*
X173399498Y-91579054D01*
X173440423Y-91731785D01*
X173458365Y-91762861D01*
X173458364Y-91762861D01*
X173458365Y-91762862D01*
X173519475Y-91868709D01*
X173519481Y-91868717D01*
X173638349Y-91987585D01*
X173638355Y-91987590D01*
X176015139Y-94364374D01*
X176015149Y-94364385D01*
X176019479Y-94368715D01*
X176019480Y-94368716D01*
X176131284Y-94480520D01*
X176198767Y-94519481D01*
X176268215Y-94559577D01*
X176420943Y-94600501D01*
X176420946Y-94600501D01*
X176586653Y-94600501D01*
X176586669Y-94600500D01*
X180175500Y-94600500D01*
X180242539Y-94620185D01*
X180288294Y-94672989D01*
X180299500Y-94724500D01*
X180299500Y-94987632D01*
X180279815Y-95054671D01*
X180227011Y-95100426D01*
X180222955Y-95102192D01*
X180193911Y-95114223D01*
X180193908Y-95114224D01*
X180193905Y-95114226D01*
X179985826Y-95241737D01*
X179985823Y-95241738D01*
X179800241Y-95400241D01*
X179641738Y-95585823D01*
X179641737Y-95585826D01*
X179514222Y-95793910D01*
X179420830Y-96019380D01*
X179363853Y-96256702D01*
X179344706Y-96500000D01*
X179363853Y-96743297D01*
X179363853Y-96743300D01*
X179363854Y-96743302D01*
X179393963Y-96868714D01*
X179420830Y-96980619D01*
X179514222Y-97206089D01*
X179641737Y-97414173D01*
X179641738Y-97414176D01*
X179695449Y-97477063D01*
X179800241Y-97599759D01*
X179917495Y-97699903D01*
X179985823Y-97758261D01*
X179985826Y-97758262D01*
X180193910Y-97885777D01*
X180419381Y-97979169D01*
X180419378Y-97979169D01*
X180419384Y-97979170D01*
X180419388Y-97979172D01*
X180656698Y-98036146D01*
X180900000Y-98055294D01*
X181143302Y-98036146D01*
X181380612Y-97979172D01*
X181606089Y-97885777D01*
X181814179Y-97758259D01*
X181999759Y-97599759D01*
X182158259Y-97414179D01*
X182285777Y-97206089D01*
X182379172Y-96980612D01*
X182436146Y-96743302D01*
X182455294Y-96500000D01*
X182436146Y-96256698D01*
X182379172Y-96019388D01*
X182379169Y-96019380D01*
X182285777Y-95793910D01*
X182158262Y-95585826D01*
X182158261Y-95585823D01*
X182077045Y-95490732D01*
X181999759Y-95400241D01*
X181850087Y-95272409D01*
X181814176Y-95241738D01*
X181814173Y-95241737D01*
X181606094Y-95114226D01*
X181606093Y-95114225D01*
X181606089Y-95114223D01*
X181577044Y-95102192D01*
X181522642Y-95058349D01*
X181500579Y-94992055D01*
X181500500Y-94987632D01*
X181500500Y-94320945D01*
X181500500Y-94320943D01*
X181459577Y-94168216D01*
X181409152Y-94080876D01*
X181380524Y-94031290D01*
X181380521Y-94031286D01*
X181380520Y-94031284D01*
X181268716Y-93919480D01*
X181268715Y-93919479D01*
X181264385Y-93915149D01*
X181264374Y-93915139D01*
X180987590Y-93638355D01*
X180987588Y-93638352D01*
X180868716Y-93519480D01*
X180868714Y-93519479D01*
X180868712Y-93519478D01*
X180781904Y-93469360D01*
X180781904Y-93469359D01*
X180781900Y-93469358D01*
X180731785Y-93440423D01*
X180579057Y-93399499D01*
X180420943Y-93399499D01*
X180413347Y-93399499D01*
X180413331Y-93399500D01*
X176800097Y-93399500D01*
X176733058Y-93379815D01*
X176712416Y-93363181D01*
X174636819Y-91287584D01*
X174603334Y-91226261D01*
X174600500Y-91199903D01*
X174600500Y-89079998D01*
X179794532Y-89079998D01*
X179794532Y-89080001D01*
X179814364Y-89306686D01*
X179814366Y-89306697D01*
X179873258Y-89526488D01*
X179873261Y-89526497D01*
X179969431Y-89732732D01*
X179969432Y-89732734D01*
X180099954Y-89919141D01*
X180260858Y-90080045D01*
X180282308Y-90095064D01*
X180446624Y-90210118D01*
X180490248Y-90264693D01*
X180499500Y-90311692D01*
X180499500Y-92013330D01*
X180499499Y-92013348D01*
X180499499Y-92179054D01*
X180499498Y-92179054D01*
X180540423Y-92331785D01*
X180569358Y-92381900D01*
X180569359Y-92381904D01*
X180569360Y-92381904D01*
X180619479Y-92468715D01*
X180619481Y-92468717D01*
X180738349Y-92587585D01*
X180738355Y-92587590D01*
X181515139Y-93364374D01*
X181515149Y-93364385D01*
X181519479Y-93368715D01*
X181519480Y-93368716D01*
X181631284Y-93480520D01*
X181698767Y-93519481D01*
X181768215Y-93559577D01*
X181920942Y-93600500D01*
X181920943Y-93600500D01*
X182799903Y-93600500D01*
X182866942Y-93620185D01*
X182887584Y-93636819D01*
X184440638Y-95189873D01*
X184474123Y-95251196D01*
X184469139Y-95320888D01*
X184433490Y-95371843D01*
X184400242Y-95400240D01*
X184400241Y-95400241D01*
X184384155Y-95419075D01*
X184241738Y-95585823D01*
X184241737Y-95585826D01*
X184114222Y-95793910D01*
X184020830Y-96019380D01*
X183963853Y-96256702D01*
X183944706Y-96500000D01*
X183963853Y-96743297D01*
X183963853Y-96743300D01*
X183963854Y-96743302D01*
X183993963Y-96868714D01*
X184020830Y-96980619D01*
X184114222Y-97206089D01*
X184241737Y-97414173D01*
X184241738Y-97414176D01*
X184295449Y-97477063D01*
X184400241Y-97599759D01*
X184517495Y-97699903D01*
X184585823Y-97758261D01*
X184585826Y-97758262D01*
X184793910Y-97885777D01*
X185019381Y-97979169D01*
X185019378Y-97979169D01*
X185019384Y-97979170D01*
X185019388Y-97979172D01*
X185256698Y-98036146D01*
X185500000Y-98055294D01*
X185743302Y-98036146D01*
X185980612Y-97979172D01*
X186206089Y-97885777D01*
X186414179Y-97758259D01*
X186599759Y-97599759D01*
X186758259Y-97414179D01*
X186885777Y-97206089D01*
X186979172Y-96980612D01*
X187036146Y-96743302D01*
X187055294Y-96500000D01*
X187036146Y-96256698D01*
X186979172Y-96019388D01*
X186979169Y-96019380D01*
X186885777Y-95793910D01*
X186758262Y-95585826D01*
X186758261Y-95585823D01*
X186677045Y-95490732D01*
X186599759Y-95400241D01*
X186450087Y-95272409D01*
X186414176Y-95241738D01*
X186414173Y-95241737D01*
X186206088Y-95114222D01*
X186206085Y-95114220D01*
X185985391Y-95022807D01*
X185945162Y-94995927D01*
X183587590Y-92638355D01*
X183587588Y-92638352D01*
X183468717Y-92519481D01*
X183468709Y-92519475D01*
X183380789Y-92468715D01*
X183380788Y-92468715D01*
X183360077Y-92456757D01*
X183331785Y-92440423D01*
X183179057Y-92399499D01*
X183020943Y-92399499D01*
X183013347Y-92399499D01*
X183013331Y-92399500D01*
X182300097Y-92399500D01*
X182233058Y-92379815D01*
X182212416Y-92363181D01*
X181736819Y-91887584D01*
X181703334Y-91826261D01*
X181700500Y-91799903D01*
X181700500Y-90311692D01*
X181720185Y-90244653D01*
X181753374Y-90210119D01*
X181939139Y-90080047D01*
X182100047Y-89919139D01*
X182230568Y-89732734D01*
X182326739Y-89526496D01*
X182385635Y-89306692D01*
X182405468Y-89080000D01*
X182404055Y-89063854D01*
X182390545Y-88909432D01*
X182385635Y-88853308D01*
X182326739Y-88633504D01*
X182230568Y-88427266D01*
X182100047Y-88240861D01*
X182100045Y-88240858D01*
X181939141Y-88079954D01*
X181752734Y-87949432D01*
X181752732Y-87949431D01*
X181546497Y-87853261D01*
X181546488Y-87853258D01*
X181326697Y-87794366D01*
X181326693Y-87794365D01*
X181326692Y-87794365D01*
X181326691Y-87794364D01*
X181326686Y-87794364D01*
X181100002Y-87774532D01*
X181099998Y-87774532D01*
X180873313Y-87794364D01*
X180873302Y-87794366D01*
X180653511Y-87853258D01*
X180653502Y-87853261D01*
X180447267Y-87949431D01*
X180447265Y-87949432D01*
X180260858Y-88079954D01*
X180099954Y-88240858D01*
X179969432Y-88427265D01*
X179969431Y-88427267D01*
X179873261Y-88633502D01*
X179873258Y-88633511D01*
X179814366Y-88853302D01*
X179814364Y-88853313D01*
X179794532Y-89079998D01*
X174600500Y-89079998D01*
X174600500Y-78919998D01*
X179794532Y-78919998D01*
X179794532Y-78920001D01*
X179814364Y-79146686D01*
X179814366Y-79146697D01*
X179873258Y-79366488D01*
X179873261Y-79366497D01*
X179969431Y-79572732D01*
X179969432Y-79572734D01*
X180099954Y-79759141D01*
X180260858Y-79920045D01*
X180260861Y-79920047D01*
X180447266Y-80050568D01*
X180653504Y-80146739D01*
X180873308Y-80205635D01*
X181035230Y-80219801D01*
X181099998Y-80225468D01*
X181100000Y-80225468D01*
X181100002Y-80225468D01*
X181156673Y-80220509D01*
X181326692Y-80205635D01*
X181546496Y-80146739D01*
X181752734Y-80050568D01*
X181939139Y-79920047D01*
X182008983Y-79850203D01*
X182087819Y-79771368D01*
X182149142Y-79737883D01*
X182218834Y-79742867D01*
X182274767Y-79784739D01*
X182299184Y-79850203D01*
X182299500Y-79859049D01*
X182299500Y-87513330D01*
X182299499Y-87513348D01*
X182299499Y-87679054D01*
X182299498Y-87679054D01*
X182340423Y-87831785D01*
X182369358Y-87881900D01*
X182369359Y-87881904D01*
X182369360Y-87881904D01*
X182419479Y-87968714D01*
X182419481Y-87968717D01*
X182538349Y-88087585D01*
X182538355Y-88087590D01*
X183895139Y-89444374D01*
X183895149Y-89444385D01*
X183899479Y-89448715D01*
X183899480Y-89448716D01*
X184011284Y-89560520D01*
X184068412Y-89593502D01*
X184098095Y-89610639D01*
X184098097Y-89610641D01*
X184133848Y-89631282D01*
X184148215Y-89639577D01*
X184296679Y-89679357D01*
X184356338Y-89715721D01*
X184365794Y-89728671D01*
X184366327Y-89728299D01*
X184369431Y-89732732D01*
X184369432Y-89732734D01*
X184369437Y-89732741D01*
X184499954Y-89919141D01*
X184660858Y-90080045D01*
X184682308Y-90095064D01*
X184846624Y-90210118D01*
X184890248Y-90264693D01*
X184899500Y-90311692D01*
X184899500Y-90913330D01*
X184899499Y-90913348D01*
X184899499Y-91079054D01*
X184899498Y-91079054D01*
X184940423Y-91231785D01*
X184969358Y-91281900D01*
X184969359Y-91281904D01*
X184969360Y-91281904D01*
X185012260Y-91356211D01*
X185019479Y-91368714D01*
X185019481Y-91368717D01*
X185638349Y-91987585D01*
X185638355Y-91987590D01*
X187863181Y-94212416D01*
X187896666Y-94273739D01*
X187899500Y-94300097D01*
X187899500Y-96413330D01*
X187899499Y-96413348D01*
X187899499Y-96579054D01*
X187899498Y-96579054D01*
X187940423Y-96731785D01*
X187969358Y-96781900D01*
X187969359Y-96781904D01*
X187969360Y-96781904D01*
X188019479Y-96868714D01*
X188019481Y-96868717D01*
X188138349Y-96987585D01*
X188138355Y-96987590D01*
X190015139Y-98864374D01*
X190015149Y-98864385D01*
X190019479Y-98868715D01*
X190019480Y-98868716D01*
X190131284Y-98980520D01*
X190218095Y-99030639D01*
X190218097Y-99030641D01*
X190256151Y-99052611D01*
X190268215Y-99059577D01*
X190420943Y-99100500D01*
X190579057Y-99100500D01*
X213913331Y-99100500D01*
X213913347Y-99100501D01*
X213920943Y-99100501D01*
X214079054Y-99100501D01*
X214079057Y-99100501D01*
X214231785Y-99059577D01*
X214281904Y-99030639D01*
X214368716Y-98980520D01*
X214480520Y-98868716D01*
X214480520Y-98868714D01*
X214490728Y-98858507D01*
X214490730Y-98858504D01*
X217858506Y-95490728D01*
X217858511Y-95490724D01*
X217868714Y-95480520D01*
X217868716Y-95480520D01*
X217980520Y-95368716D01*
X218059577Y-95231784D01*
X218091077Y-95114223D01*
X218100500Y-95079058D01*
X218100500Y-94920943D01*
X218100500Y-87800097D01*
X218120185Y-87733058D01*
X218136819Y-87712416D01*
X219212416Y-86636819D01*
X219273739Y-86603334D01*
X219300097Y-86600500D01*
X219487632Y-86600500D01*
X219554671Y-86620185D01*
X219600426Y-86672989D01*
X219602193Y-86677047D01*
X219614222Y-86706089D01*
X219741737Y-86914173D01*
X219741738Y-86914176D01*
X219741741Y-86914179D01*
X219900241Y-87099759D01*
X220038794Y-87218094D01*
X220085823Y-87258261D01*
X220085826Y-87258262D01*
X220293910Y-87385777D01*
X220475347Y-87460930D01*
X220516213Y-87477857D01*
X220519381Y-87479169D01*
X220519378Y-87479169D01*
X220519384Y-87479170D01*
X220519388Y-87479172D01*
X220756698Y-87536146D01*
X221000000Y-87555294D01*
X221243302Y-87536146D01*
X221480612Y-87479172D01*
X221706089Y-87385777D01*
X221914179Y-87258259D01*
X222099759Y-87099759D01*
X222258259Y-86914179D01*
X222385777Y-86706089D01*
X222479172Y-86480612D01*
X222536146Y-86243302D01*
X222555294Y-86000000D01*
X222536146Y-85756698D01*
X222479172Y-85519388D01*
X222479169Y-85519380D01*
X222385777Y-85293910D01*
X222258262Y-85085826D01*
X222258261Y-85085823D01*
X222219123Y-85039998D01*
X222099759Y-84900241D01*
X221977063Y-84795449D01*
X221914176Y-84741738D01*
X221914173Y-84741737D01*
X221706089Y-84614222D01*
X221480618Y-84520830D01*
X221480621Y-84520830D01*
X221374992Y-84495470D01*
X221243302Y-84463854D01*
X221243300Y-84463853D01*
X221243297Y-84463853D01*
X221000000Y-84444706D01*
X220756702Y-84463853D01*
X220519380Y-84520830D01*
X220293910Y-84614222D01*
X220085826Y-84741737D01*
X220085823Y-84741738D01*
X219900241Y-84900241D01*
X219741738Y-85085823D01*
X219741737Y-85085826D01*
X219614222Y-85293910D01*
X219602193Y-85322953D01*
X219558352Y-85377356D01*
X219492058Y-85399421D01*
X219487632Y-85399500D01*
X218920940Y-85399500D01*
X218880019Y-85410464D01*
X218880019Y-85410465D01*
X218842751Y-85420451D01*
X218768214Y-85440423D01*
X218768209Y-85440426D01*
X218631290Y-85519475D01*
X218631282Y-85519481D01*
X217019481Y-87131282D01*
X217019479Y-87131285D01*
X216969361Y-87218094D01*
X216969359Y-87218096D01*
X216940425Y-87268209D01*
X216940424Y-87268210D01*
X216940423Y-87268215D01*
X216899499Y-87420943D01*
X216899499Y-87420945D01*
X216897396Y-87428794D01*
X216894224Y-87427944D01*
X216872089Y-87477857D01*
X216813729Y-87516274D01*
X216743863Y-87517041D01*
X216684674Y-87479915D01*
X216654953Y-87416681D01*
X216653964Y-87408514D01*
X216645635Y-87313308D01*
X216586739Y-87093504D01*
X216490568Y-86887266D01*
X216360047Y-86700861D01*
X216360045Y-86700858D01*
X216199141Y-86539954D01*
X216012734Y-86409432D01*
X215997614Y-86402381D01*
X215945176Y-86356211D01*
X215926023Y-86289018D01*
X215946238Y-86222136D01*
X215997614Y-86177618D01*
X216012734Y-86170568D01*
X216199139Y-86040047D01*
X216360047Y-85879139D01*
X216490568Y-85692734D01*
X216586739Y-85486496D01*
X216645635Y-85266692D01*
X216665468Y-85040000D01*
X216645635Y-84813308D01*
X216586739Y-84593504D01*
X216490568Y-84387266D01*
X216360047Y-84200861D01*
X216360045Y-84200858D01*
X216199141Y-84039954D01*
X216012734Y-83909432D01*
X215997614Y-83902381D01*
X215945176Y-83856211D01*
X215926023Y-83789018D01*
X215946238Y-83722136D01*
X215997614Y-83677618D01*
X216012734Y-83670568D01*
X216199139Y-83540047D01*
X216360047Y-83379139D01*
X216490568Y-83192734D01*
X216586739Y-82986496D01*
X216645635Y-82766692D01*
X216665468Y-82540000D01*
X216645635Y-82313308D01*
X216586739Y-82093504D01*
X216490568Y-81887266D01*
X216360047Y-81700861D01*
X216360045Y-81700858D01*
X216199141Y-81539954D01*
X216012734Y-81409432D01*
X215997614Y-81402381D01*
X215945176Y-81356211D01*
X215926023Y-81289018D01*
X215946238Y-81222136D01*
X215997614Y-81177618D01*
X216012734Y-81170568D01*
X216199139Y-81040047D01*
X216357295Y-80881890D01*
X216418617Y-80848407D01*
X216488308Y-80853391D01*
X216532656Y-80881892D01*
X216638349Y-80987585D01*
X216638355Y-80987590D01*
X217415139Y-81764374D01*
X217415149Y-81764385D01*
X217419479Y-81768715D01*
X217419480Y-81768716D01*
X217531284Y-81880520D01*
X217618095Y-81930639D01*
X217618097Y-81930641D01*
X217668213Y-81959576D01*
X217668215Y-81959577D01*
X217820942Y-82000500D01*
X217820943Y-82000500D01*
X219487632Y-82000500D01*
X219554671Y-82020185D01*
X219600426Y-82072989D01*
X219602193Y-82077047D01*
X219614222Y-82106089D01*
X219741737Y-82314173D01*
X219741738Y-82314176D01*
X219741741Y-82314179D01*
X219900241Y-82499759D01*
X220043897Y-82622453D01*
X220085823Y-82658261D01*
X220085826Y-82658262D01*
X220293910Y-82785777D01*
X220519381Y-82879169D01*
X220519378Y-82879169D01*
X220519384Y-82879170D01*
X220519388Y-82879172D01*
X220756698Y-82936146D01*
X221000000Y-82955294D01*
X221243302Y-82936146D01*
X221480612Y-82879172D01*
X221706089Y-82785777D01*
X221914179Y-82658259D01*
X222099759Y-82499759D01*
X222258259Y-82314179D01*
X222385777Y-82106089D01*
X222479172Y-81880612D01*
X222536146Y-81643302D01*
X222555294Y-81400000D01*
X222536146Y-81156698D01*
X222479172Y-80919388D01*
X222463641Y-80881892D01*
X222385777Y-80693910D01*
X222258262Y-80485826D01*
X222258261Y-80485823D01*
X222222453Y-80443897D01*
X222099759Y-80300241D01*
X221977063Y-80195449D01*
X221914176Y-80141738D01*
X221914173Y-80141737D01*
X221706089Y-80014222D01*
X221480618Y-79920830D01*
X221480621Y-79920830D01*
X221374992Y-79895470D01*
X221243302Y-79863854D01*
X221243300Y-79863853D01*
X221243297Y-79863853D01*
X221000000Y-79844706D01*
X220756702Y-79863853D01*
X220756698Y-79863854D01*
X220522650Y-79920045D01*
X220519380Y-79920830D01*
X220293910Y-80014222D01*
X220085826Y-80141737D01*
X220085823Y-80141738D01*
X219900241Y-80300241D01*
X219741738Y-80485823D01*
X219741737Y-80485826D01*
X219614222Y-80693910D01*
X219602193Y-80722953D01*
X219558352Y-80777356D01*
X219492058Y-80799421D01*
X219487632Y-80799500D01*
X218200097Y-80799500D01*
X218133058Y-80779815D01*
X218112416Y-80763181D01*
X217636819Y-80287584D01*
X217603334Y-80226261D01*
X217600500Y-80199903D01*
X217600500Y-75589060D01*
X217600501Y-75589047D01*
X217600501Y-75420944D01*
X217559576Y-75268214D01*
X217559573Y-75268209D01*
X217480524Y-75131290D01*
X217480521Y-75131286D01*
X217480520Y-75131284D01*
X216980521Y-74631285D01*
X216980520Y-74631284D01*
X216868716Y-74519480D01*
X216781904Y-74469360D01*
X216781904Y-74469359D01*
X216781900Y-74469358D01*
X216731785Y-74440423D01*
X216579057Y-74399499D01*
X216579050Y-74399497D01*
X216575954Y-74399090D01*
X216573537Y-74398020D01*
X216571206Y-74397396D01*
X216571303Y-74397032D01*
X216512059Y-74370818D01*
X216490574Y-74347275D01*
X216360045Y-74160858D01*
X216199141Y-73999954D01*
X216012734Y-73869432D01*
X216012732Y-73869431D01*
X215806497Y-73773261D01*
X215806488Y-73773258D01*
X215586697Y-73714366D01*
X215586693Y-73714365D01*
X215586692Y-73714365D01*
X215586691Y-73714364D01*
X215586686Y-73714364D01*
X215360002Y-73694532D01*
X215359998Y-73694532D01*
X215133313Y-73714364D01*
X215133302Y-73714366D01*
X214913511Y-73773258D01*
X214913502Y-73773261D01*
X214707267Y-73869431D01*
X214707265Y-73869432D01*
X214520858Y-73999954D01*
X214359954Y-74160858D01*
X214229432Y-74347265D01*
X214229431Y-74347267D01*
X214133261Y-74553502D01*
X214133258Y-74553511D01*
X214074366Y-74773302D01*
X214074364Y-74773313D01*
X214054532Y-74999998D01*
X214054532Y-75000001D01*
X214074364Y-75226686D01*
X214074366Y-75226697D01*
X214133258Y-75446488D01*
X214133261Y-75446497D01*
X214229431Y-75652732D01*
X214229432Y-75652734D01*
X214359954Y-75839141D01*
X214520858Y-76000045D01*
X214520861Y-76000047D01*
X214707266Y-76130568D01*
X214765275Y-76157618D01*
X214817714Y-76203791D01*
X214836866Y-76270984D01*
X214816650Y-76337865D01*
X214765275Y-76382382D01*
X214707267Y-76409431D01*
X214707265Y-76409432D01*
X214520858Y-76539954D01*
X214359954Y-76700858D01*
X214229432Y-76887265D01*
X214229431Y-76887267D01*
X214133261Y-77093502D01*
X214133258Y-77093511D01*
X214074366Y-77313302D01*
X214074364Y-77313313D01*
X214054532Y-77539998D01*
X214054532Y-77540001D01*
X214074364Y-77766686D01*
X214074366Y-77766697D01*
X214133258Y-77986488D01*
X214133261Y-77986497D01*
X214229431Y-78192732D01*
X214229432Y-78192734D01*
X214359954Y-78379141D01*
X214520858Y-78540045D01*
X214520861Y-78540047D01*
X214707266Y-78670568D01*
X214722387Y-78677619D01*
X214774825Y-78723791D01*
X214793976Y-78790985D01*
X214773760Y-78857866D01*
X214722387Y-78902380D01*
X214707266Y-78909432D01*
X214707264Y-78909433D01*
X214520858Y-79039954D01*
X214359954Y-79200858D01*
X214229432Y-79387265D01*
X214229431Y-79387267D01*
X214133261Y-79593502D01*
X214133258Y-79593511D01*
X214074366Y-79813302D01*
X214074364Y-79813313D01*
X214054532Y-80039998D01*
X214054532Y-80040001D01*
X214074364Y-80266686D01*
X214074366Y-80266697D01*
X214133258Y-80486488D01*
X214133261Y-80486497D01*
X214229431Y-80692732D01*
X214229432Y-80692734D01*
X214359954Y-80879141D01*
X214520858Y-81040045D01*
X214520861Y-81040047D01*
X214707266Y-81170568D01*
X214722387Y-81177619D01*
X214774825Y-81223791D01*
X214793976Y-81290985D01*
X214773760Y-81357866D01*
X214722387Y-81402380D01*
X214707266Y-81409432D01*
X214707264Y-81409433D01*
X214520858Y-81539954D01*
X214359954Y-81700858D01*
X214229432Y-81887265D01*
X214229431Y-81887267D01*
X214133261Y-82093502D01*
X214133258Y-82093511D01*
X214074366Y-82313302D01*
X214074364Y-82313313D01*
X214054532Y-82539998D01*
X214054532Y-82540001D01*
X214074364Y-82766686D01*
X214074366Y-82766697D01*
X214133258Y-82986488D01*
X214133261Y-82986497D01*
X214229431Y-83192732D01*
X214229432Y-83192734D01*
X214359954Y-83379141D01*
X214520858Y-83540045D01*
X214520861Y-83540047D01*
X214707266Y-83670568D01*
X214722387Y-83677619D01*
X214774825Y-83723791D01*
X214793976Y-83790985D01*
X214773760Y-83857866D01*
X214722387Y-83902380D01*
X214707266Y-83909432D01*
X214707264Y-83909433D01*
X214520858Y-84039954D01*
X214359954Y-84200858D01*
X214229432Y-84387265D01*
X214229431Y-84387267D01*
X214133261Y-84593502D01*
X214133258Y-84593511D01*
X214074366Y-84813302D01*
X214074364Y-84813313D01*
X214054532Y-85039998D01*
X214054532Y-85040001D01*
X214074364Y-85266686D01*
X214074366Y-85266697D01*
X214133258Y-85486488D01*
X214133261Y-85486497D01*
X214229431Y-85692732D01*
X214229432Y-85692734D01*
X214359954Y-85879141D01*
X214520858Y-86040045D01*
X214520861Y-86040047D01*
X214707266Y-86170568D01*
X214722387Y-86177619D01*
X214774825Y-86223791D01*
X214793976Y-86290985D01*
X214773760Y-86357866D01*
X214722387Y-86402380D01*
X214707266Y-86409432D01*
X214707264Y-86409433D01*
X214520858Y-86539954D01*
X214359954Y-86700858D01*
X214229432Y-86887265D01*
X214229431Y-86887267D01*
X214133261Y-87093502D01*
X214133258Y-87093511D01*
X214074366Y-87313302D01*
X214074364Y-87313313D01*
X214054532Y-87539998D01*
X214054532Y-87540001D01*
X214074364Y-87766686D01*
X214074366Y-87766697D01*
X214133258Y-87986488D01*
X214133261Y-87986497D01*
X214229431Y-88192732D01*
X214229432Y-88192734D01*
X214359954Y-88379141D01*
X214520858Y-88540045D01*
X214520861Y-88540047D01*
X214707266Y-88670568D01*
X214722387Y-88677619D01*
X214774825Y-88723791D01*
X214793976Y-88790985D01*
X214773760Y-88857866D01*
X214722387Y-88902380D01*
X214707266Y-88909432D01*
X214707264Y-88909433D01*
X214520858Y-89039954D01*
X214359954Y-89200858D01*
X214229432Y-89387265D01*
X214229431Y-89387267D01*
X214133261Y-89593502D01*
X214133258Y-89593511D01*
X214074366Y-89813302D01*
X214074364Y-89813313D01*
X214054532Y-90039998D01*
X214054532Y-90040001D01*
X214074364Y-90266686D01*
X214074366Y-90266697D01*
X214133258Y-90486488D01*
X214133261Y-90486497D01*
X214229431Y-90692732D01*
X214229432Y-90692734D01*
X214359954Y-90879141D01*
X214520858Y-91040045D01*
X214520861Y-91040047D01*
X214707266Y-91170568D01*
X214722387Y-91177619D01*
X214774825Y-91223791D01*
X214793976Y-91290985D01*
X214773760Y-91357866D01*
X214722387Y-91402380D01*
X214707266Y-91409432D01*
X214707264Y-91409433D01*
X214520858Y-91539954D01*
X214359954Y-91700858D01*
X214229432Y-91887265D01*
X214229431Y-91887267D01*
X214133261Y-92093502D01*
X214133258Y-92093511D01*
X214074366Y-92313302D01*
X214074364Y-92313313D01*
X214054532Y-92539998D01*
X214054532Y-92540001D01*
X214074364Y-92766686D01*
X214074366Y-92766697D01*
X214133258Y-92986488D01*
X214133261Y-92986497D01*
X214229431Y-93192732D01*
X214229432Y-93192734D01*
X214359954Y-93379141D01*
X214520858Y-93540045D01*
X214548753Y-93559577D01*
X214707266Y-93670568D01*
X214913504Y-93766739D01*
X214913509Y-93766740D01*
X214913511Y-93766741D01*
X214923666Y-93769462D01*
X215133308Y-93825635D01*
X215295230Y-93839801D01*
X215359998Y-93845468D01*
X215360000Y-93845468D01*
X215360002Y-93845468D01*
X215416673Y-93840509D01*
X215586692Y-93825635D01*
X215806496Y-93766739D01*
X216012734Y-93670568D01*
X216199139Y-93540047D01*
X216360047Y-93379139D01*
X216490568Y-93192734D01*
X216586739Y-92986496D01*
X216645635Y-92766692D01*
X216651972Y-92694258D01*
X216677424Y-92629190D01*
X216734015Y-92588211D01*
X216803777Y-92584333D01*
X216864561Y-92618787D01*
X216897069Y-92680634D01*
X216899500Y-92705066D01*
X216899500Y-94699903D01*
X216879815Y-94766942D01*
X216863181Y-94787584D01*
X213787584Y-97863181D01*
X213726261Y-97896666D01*
X213699903Y-97899500D01*
X190800097Y-97899500D01*
X190733058Y-97879815D01*
X190712416Y-97863181D01*
X189136819Y-96287584D01*
X189103334Y-96226261D01*
X189100500Y-96199903D01*
X189100500Y-94089059D01*
X189100501Y-94089046D01*
X189100501Y-93920945D01*
X189100501Y-93920943D01*
X189059577Y-93768215D01*
X189003200Y-93670568D01*
X188997384Y-93660494D01*
X188980522Y-93631287D01*
X188980521Y-93631286D01*
X188980520Y-93631284D01*
X188868716Y-93519480D01*
X188868715Y-93519479D01*
X188864385Y-93515149D01*
X188864374Y-93515139D01*
X186487590Y-91138355D01*
X186487588Y-91138352D01*
X186136819Y-90787583D01*
X186103334Y-90726260D01*
X186100500Y-90699902D01*
X186100500Y-90311692D01*
X186120185Y-90244653D01*
X186153374Y-90210119D01*
X186339139Y-90080047D01*
X186500047Y-89919139D01*
X186630568Y-89732734D01*
X186726739Y-89526496D01*
X186785635Y-89306692D01*
X186805468Y-89080000D01*
X186804055Y-89063854D01*
X186790545Y-88909432D01*
X186785635Y-88853308D01*
X186726739Y-88633504D01*
X186630568Y-88427266D01*
X186500047Y-88240861D01*
X186500045Y-88240858D01*
X186339141Y-88079954D01*
X186152734Y-87949432D01*
X186152732Y-87949431D01*
X185946497Y-87853261D01*
X185946488Y-87853258D01*
X185726697Y-87794366D01*
X185726693Y-87794365D01*
X185726692Y-87794365D01*
X185726691Y-87794364D01*
X185726686Y-87794364D01*
X185500002Y-87774532D01*
X185499998Y-87774532D01*
X185273313Y-87794364D01*
X185273302Y-87794366D01*
X185053511Y-87853258D01*
X185053502Y-87853261D01*
X184847267Y-87949431D01*
X184847265Y-87949432D01*
X184660858Y-88079954D01*
X184532705Y-88208108D01*
X184471382Y-88241593D01*
X184401690Y-88236609D01*
X184357343Y-88208108D01*
X183536819Y-87387584D01*
X183503334Y-87326261D01*
X183500500Y-87299903D01*
X183500500Y-79589059D01*
X183500501Y-79589046D01*
X183500501Y-79420945D01*
X183500501Y-79420943D01*
X183459577Y-79268215D01*
X183410185Y-79182666D01*
X183380520Y-79131284D01*
X183268716Y-79019480D01*
X183268715Y-79019479D01*
X183264385Y-79015149D01*
X183264374Y-79015139D01*
X183169232Y-78919997D01*
X184195034Y-78919997D01*
X184195034Y-78920002D01*
X184214858Y-79146599D01*
X184214860Y-79146610D01*
X184273730Y-79366317D01*
X184273735Y-79366331D01*
X184369863Y-79572478D01*
X184420974Y-79645472D01*
X185100000Y-78966446D01*
X185100000Y-78972661D01*
X185127259Y-79074394D01*
X185179920Y-79165606D01*
X185254394Y-79240080D01*
X185345606Y-79292741D01*
X185447339Y-79320000D01*
X185453553Y-79320000D01*
X184774526Y-79999025D01*
X184847513Y-80050132D01*
X184847521Y-80050136D01*
X185053668Y-80146264D01*
X185053682Y-80146269D01*
X185273389Y-80205139D01*
X185273400Y-80205141D01*
X185499998Y-80224966D01*
X185500002Y-80224966D01*
X185726599Y-80205141D01*
X185726610Y-80205139D01*
X185946317Y-80146269D01*
X185946331Y-80146264D01*
X186152478Y-80050136D01*
X186225471Y-79999024D01*
X185546447Y-79320000D01*
X185552661Y-79320000D01*
X185654394Y-79292741D01*
X185745606Y-79240080D01*
X185820080Y-79165606D01*
X185872741Y-79074394D01*
X185900000Y-78972661D01*
X185900000Y-78966447D01*
X186579024Y-79645471D01*
X186630136Y-79572478D01*
X186726264Y-79366331D01*
X186726269Y-79366317D01*
X186785139Y-79146610D01*
X186785141Y-79146599D01*
X186804966Y-78920002D01*
X186804966Y-78919997D01*
X186785141Y-78693400D01*
X186785139Y-78693389D01*
X186726269Y-78473682D01*
X186726264Y-78473668D01*
X186630136Y-78267521D01*
X186630132Y-78267513D01*
X186579025Y-78194526D01*
X185900000Y-78873551D01*
X185900000Y-78867339D01*
X185872741Y-78765606D01*
X185820080Y-78674394D01*
X185745606Y-78599920D01*
X185654394Y-78547259D01*
X185552661Y-78520000D01*
X185546445Y-78520000D01*
X186225472Y-77840974D01*
X186152478Y-77789863D01*
X185946331Y-77693735D01*
X185946317Y-77693730D01*
X185726610Y-77634860D01*
X185726599Y-77634858D01*
X185500002Y-77615034D01*
X185499998Y-77615034D01*
X185273400Y-77634858D01*
X185273389Y-77634860D01*
X185053682Y-77693730D01*
X185053673Y-77693734D01*
X184847516Y-77789866D01*
X184847512Y-77789868D01*
X184774526Y-77840973D01*
X184774526Y-77840974D01*
X185453553Y-78520000D01*
X185447339Y-78520000D01*
X185345606Y-78547259D01*
X185254394Y-78599920D01*
X185179920Y-78674394D01*
X185127259Y-78765606D01*
X185100000Y-78867339D01*
X185100000Y-78873552D01*
X184420974Y-78194526D01*
X184420973Y-78194526D01*
X184369868Y-78267512D01*
X184369866Y-78267516D01*
X184273734Y-78473673D01*
X184273730Y-78473682D01*
X184214860Y-78693389D01*
X184214858Y-78693400D01*
X184195034Y-78919997D01*
X183169232Y-78919997D01*
X182807590Y-78558355D01*
X182807588Y-78558352D01*
X182688717Y-78439481D01*
X182688716Y-78439480D01*
X182601904Y-78389360D01*
X182601904Y-78389359D01*
X182601900Y-78389358D01*
X182551785Y-78360423D01*
X182399057Y-78319499D01*
X182399054Y-78319499D01*
X182331692Y-78319499D01*
X182264653Y-78299814D01*
X182230117Y-78266622D01*
X182100045Y-78080858D01*
X181939141Y-77919954D01*
X181752734Y-77789432D01*
X181752732Y-77789431D01*
X181546497Y-77693261D01*
X181546488Y-77693258D01*
X181326697Y-77634366D01*
X181326693Y-77634365D01*
X181326692Y-77634365D01*
X181326691Y-77634364D01*
X181326686Y-77634364D01*
X181100002Y-77614532D01*
X181099998Y-77614532D01*
X180873313Y-77634364D01*
X180873302Y-77634366D01*
X180653511Y-77693258D01*
X180653502Y-77693261D01*
X180447267Y-77789431D01*
X180447265Y-77789432D01*
X180260858Y-77919954D01*
X180099954Y-78080858D01*
X179969432Y-78267265D01*
X179969431Y-78267267D01*
X179873261Y-78473502D01*
X179873258Y-78473511D01*
X179814366Y-78693302D01*
X179814364Y-78693313D01*
X179794532Y-78919998D01*
X174600500Y-78919998D01*
X174600500Y-75800096D01*
X174620185Y-75733057D01*
X174636814Y-75712420D01*
X177858506Y-72490727D01*
X177858511Y-72490724D01*
X177868714Y-72480520D01*
X177868716Y-72480520D01*
X177980520Y-72368716D01*
X178059577Y-72231784D01*
X178100500Y-72079057D01*
X178100500Y-71652155D01*
X179700000Y-71652155D01*
X179700000Y-72250000D01*
X180684314Y-72250000D01*
X180679920Y-72254394D01*
X180627259Y-72345606D01*
X180600000Y-72447339D01*
X180600000Y-72552661D01*
X180627259Y-72654394D01*
X180679920Y-72745606D01*
X180684314Y-72750000D01*
X179700000Y-72750000D01*
X179700000Y-73347844D01*
X179706401Y-73407372D01*
X179706403Y-73407379D01*
X179756645Y-73542086D01*
X179756649Y-73542093D01*
X179842809Y-73657187D01*
X179842812Y-73657190D01*
X179957906Y-73743350D01*
X179957913Y-73743354D01*
X180092620Y-73793596D01*
X180092627Y-73793598D01*
X180152155Y-73799999D01*
X180152172Y-73800000D01*
X180750000Y-73800000D01*
X180750000Y-72815686D01*
X180754394Y-72820080D01*
X180845606Y-72872741D01*
X180947339Y-72900000D01*
X181052661Y-72900000D01*
X181154394Y-72872741D01*
X181245606Y-72820080D01*
X181250000Y-72815686D01*
X181250000Y-73800000D01*
X181847828Y-73800000D01*
X181847844Y-73799999D01*
X181907372Y-73793598D01*
X181907379Y-73793596D01*
X182042086Y-73743354D01*
X182042093Y-73743350D01*
X182157187Y-73657190D01*
X182157190Y-73657187D01*
X182243350Y-73542093D01*
X182243354Y-73542086D01*
X182293596Y-73407379D01*
X182293598Y-73407372D01*
X182299999Y-73347844D01*
X182300000Y-73347827D01*
X182300000Y-72750000D01*
X181315686Y-72750000D01*
X181320080Y-72745606D01*
X181372741Y-72654394D01*
X181400000Y-72552661D01*
X181400000Y-72447339D01*
X181372741Y-72345606D01*
X181320080Y-72254394D01*
X181315686Y-72250000D01*
X182300000Y-72250000D01*
X182300000Y-71652172D01*
X182299999Y-71652155D01*
X182293598Y-71592627D01*
X182293596Y-71592620D01*
X182243354Y-71457913D01*
X182243350Y-71457906D01*
X182157190Y-71342812D01*
X182157187Y-71342809D01*
X182042093Y-71256649D01*
X182042086Y-71256645D01*
X181907379Y-71206403D01*
X181907372Y-71206401D01*
X181847844Y-71200000D01*
X181250000Y-71200000D01*
X181250000Y-72184314D01*
X181245606Y-72179920D01*
X181154394Y-72127259D01*
X181052661Y-72100000D01*
X180947339Y-72100000D01*
X180845606Y-72127259D01*
X180754394Y-72179920D01*
X180750000Y-72184314D01*
X180750000Y-71200000D01*
X180152155Y-71200000D01*
X180092627Y-71206401D01*
X180092620Y-71206403D01*
X179957913Y-71256645D01*
X179957906Y-71256649D01*
X179842812Y-71342809D01*
X179842809Y-71342812D01*
X179756649Y-71457906D01*
X179756645Y-71457913D01*
X179706403Y-71592620D01*
X179706401Y-71592627D01*
X179700000Y-71652155D01*
X178100500Y-71652155D01*
X178100500Y-64920943D01*
X178059577Y-64768216D01*
X178059577Y-64768215D01*
X178059577Y-64768214D01*
X178030639Y-64718095D01*
X178030637Y-64718092D01*
X177980520Y-64631284D01*
X177868716Y-64519480D01*
X177868715Y-64519479D01*
X177864385Y-64515149D01*
X177864374Y-64515139D01*
X177386819Y-64037584D01*
X177353334Y-63976261D01*
X177350500Y-63949903D01*
X177350500Y-60050098D01*
X177370185Y-59983059D01*
X177386819Y-59962417D01*
X177428297Y-59920939D01*
X177480520Y-59868716D01*
X177559577Y-59731784D01*
X177589534Y-59619981D01*
X177600500Y-59579058D01*
X177600500Y-59420943D01*
X177600500Y-58920943D01*
X177594755Y-58899500D01*
X177559577Y-58768215D01*
X177530639Y-58718095D01*
X177480520Y-58631284D01*
X177368716Y-58519480D01*
X177368715Y-58519479D01*
X177364385Y-58515149D01*
X177364374Y-58515139D01*
X173636819Y-54787584D01*
X173603334Y-54726261D01*
X173600500Y-54699903D01*
X173600500Y-52300097D01*
X173620185Y-52233058D01*
X173636819Y-52212416D01*
X173687819Y-52161416D01*
X173749142Y-52127931D01*
X173818834Y-52132915D01*
X173874767Y-52174787D01*
X173899184Y-52240251D01*
X173899500Y-52249097D01*
X173899500Y-53413330D01*
X173899499Y-53413348D01*
X173899499Y-53579054D01*
X173899498Y-53579054D01*
X173940423Y-53731785D01*
X173969358Y-53781900D01*
X173969359Y-53781904D01*
X173969360Y-53781904D01*
X174019479Y-53868714D01*
X174019481Y-53868717D01*
X174138349Y-53987585D01*
X174138355Y-53987590D01*
X181015139Y-60864374D01*
X181015149Y-60864385D01*
X181019479Y-60868715D01*
X181019480Y-60868716D01*
X181131284Y-60980520D01*
X181131286Y-60980521D01*
X181205741Y-61023507D01*
X181253957Y-61074074D01*
X181267181Y-61142681D01*
X181250000Y-61185597D01*
X181250000Y-62184314D01*
X181245606Y-62179920D01*
X181154394Y-62127259D01*
X181052661Y-62100000D01*
X180947339Y-62100000D01*
X180845606Y-62127259D01*
X180754394Y-62179920D01*
X180750000Y-62184314D01*
X180750000Y-61200000D01*
X180152155Y-61200000D01*
X180092627Y-61206401D01*
X180092620Y-61206403D01*
X179957913Y-61256645D01*
X179957906Y-61256649D01*
X179842812Y-61342809D01*
X179842809Y-61342812D01*
X179756649Y-61457906D01*
X179756645Y-61457913D01*
X179706403Y-61592620D01*
X179706401Y-61592627D01*
X179700000Y-61652155D01*
X179700000Y-62250000D01*
X180684314Y-62250000D01*
X180679920Y-62254394D01*
X180627259Y-62345606D01*
X180600000Y-62447339D01*
X180600000Y-62552661D01*
X180627259Y-62654394D01*
X180679920Y-62745606D01*
X180684314Y-62750000D01*
X179700000Y-62750000D01*
X179700000Y-63347844D01*
X179706401Y-63407372D01*
X179706403Y-63407379D01*
X179756645Y-63542086D01*
X179756649Y-63542093D01*
X179842809Y-63657187D01*
X179842812Y-63657190D01*
X179957906Y-63743350D01*
X179957913Y-63743354D01*
X180092620Y-63793596D01*
X180092627Y-63793598D01*
X180152155Y-63799999D01*
X180152172Y-63800000D01*
X180750000Y-63800000D01*
X180750000Y-62815686D01*
X180754394Y-62820080D01*
X180845606Y-62872741D01*
X180947339Y-62900000D01*
X181052661Y-62900000D01*
X181154394Y-62872741D01*
X181245606Y-62820080D01*
X181250000Y-62815686D01*
X181250000Y-63800000D01*
X181847828Y-63800000D01*
X181847844Y-63799999D01*
X181907372Y-63793598D01*
X181907379Y-63793596D01*
X182042086Y-63743354D01*
X182042093Y-63743350D01*
X182157187Y-63657190D01*
X182157190Y-63657187D01*
X182243350Y-63542093D01*
X182243354Y-63542086D01*
X182293596Y-63407379D01*
X182293598Y-63407372D01*
X182299999Y-63347844D01*
X182300000Y-63347827D01*
X182300000Y-62750000D01*
X181315686Y-62750000D01*
X181320080Y-62745606D01*
X181372741Y-62654394D01*
X181400000Y-62552661D01*
X181400000Y-62447339D01*
X181372741Y-62345606D01*
X181320080Y-62254394D01*
X181315686Y-62250000D01*
X182300000Y-62250000D01*
X182300000Y-61652172D01*
X182299999Y-61652155D01*
X182293598Y-61592627D01*
X182293596Y-61592620D01*
X182243354Y-61457913D01*
X182243350Y-61457906D01*
X182157190Y-61342812D01*
X182131748Y-61323766D01*
X182089878Y-61267832D01*
X182084894Y-61198140D01*
X182118380Y-61136818D01*
X182179703Y-61103333D01*
X182206060Y-61100500D01*
X185199903Y-61100500D01*
X185266942Y-61120185D01*
X185287584Y-61136819D01*
X185344483Y-61193718D01*
X185377968Y-61255041D01*
X185372984Y-61324733D01*
X185331112Y-61380666D01*
X185327925Y-61382974D01*
X185160858Y-61499954D01*
X184999954Y-61660858D01*
X184869432Y-61847265D01*
X184869431Y-61847267D01*
X184773261Y-62053502D01*
X184773258Y-62053511D01*
X184714366Y-62273302D01*
X184714364Y-62273313D01*
X184694532Y-62499998D01*
X184694532Y-62500001D01*
X184714364Y-62726686D01*
X184714366Y-62726697D01*
X184773258Y-62946488D01*
X184773261Y-62946497D01*
X184869431Y-63152732D01*
X184869432Y-63152734D01*
X184999954Y-63339141D01*
X185160858Y-63500045D01*
X185160861Y-63500047D01*
X185346624Y-63630118D01*
X185390248Y-63684693D01*
X185399500Y-63731692D01*
X185399500Y-64199901D01*
X185379815Y-64266940D01*
X185363182Y-64287582D01*
X185287584Y-64363181D01*
X185226261Y-64396666D01*
X185199902Y-64399500D01*
X182086670Y-64399500D01*
X182086654Y-64399499D01*
X182079058Y-64399499D01*
X181920943Y-64399499D01*
X181869263Y-64413347D01*
X181768214Y-64440423D01*
X181768209Y-64440426D01*
X181631290Y-64519475D01*
X181631282Y-64519481D01*
X180439481Y-65711282D01*
X180439480Y-65711284D01*
X180406612Y-65768214D01*
X180406611Y-65768216D01*
X180360423Y-65848214D01*
X180360423Y-65848215D01*
X180319499Y-66000943D01*
X180319499Y-66000945D01*
X180319499Y-66169046D01*
X180319500Y-66169059D01*
X180319500Y-66375500D01*
X180299815Y-66442539D01*
X180247011Y-66488294D01*
X180195500Y-66499500D01*
X179919630Y-66499500D01*
X179919623Y-66499501D01*
X179860016Y-66505908D01*
X179725171Y-66556202D01*
X179725164Y-66556206D01*
X179609955Y-66642452D01*
X179609952Y-66642455D01*
X179523706Y-66757664D01*
X179523702Y-66757671D01*
X179473408Y-66892517D01*
X179467001Y-66952116D01*
X179467000Y-66952135D01*
X179467000Y-69047870D01*
X179467001Y-69047876D01*
X179473408Y-69107483D01*
X179523702Y-69242328D01*
X179523706Y-69242335D01*
X179609952Y-69357544D01*
X179609955Y-69357547D01*
X179725164Y-69443793D01*
X179725171Y-69443797D01*
X179860017Y-69494091D01*
X179860016Y-69494091D01*
X179866944Y-69494835D01*
X179919627Y-69500500D01*
X181920372Y-69500499D01*
X181979983Y-69494091D01*
X182114831Y-69443796D01*
X182230046Y-69357546D01*
X182316296Y-69242331D01*
X182326872Y-69213974D01*
X182368740Y-69158041D01*
X182434204Y-69133622D01*
X182502477Y-69148472D01*
X182515940Y-69156988D01*
X182698723Y-69289788D01*
X182902429Y-69393582D01*
X183119871Y-69464234D01*
X183210000Y-69478509D01*
X183210000Y-68490747D01*
X183247708Y-68512518D01*
X183387591Y-68550000D01*
X183532409Y-68550000D01*
X183672292Y-68512518D01*
X183710000Y-68490747D01*
X183710000Y-69478508D01*
X183800128Y-69464234D01*
X184017570Y-69393582D01*
X184221276Y-69289788D01*
X184406242Y-69155402D01*
X184567905Y-68993739D01*
X184629371Y-68909137D01*
X184684701Y-68866470D01*
X184754314Y-68860491D01*
X184816109Y-68893096D01*
X184830007Y-68909134D01*
X184891714Y-68994066D01*
X185053434Y-69155786D01*
X185238462Y-69290217D01*
X185331795Y-69337772D01*
X185382590Y-69385745D01*
X185399500Y-69448256D01*
X185399500Y-71268306D01*
X185379815Y-71335345D01*
X185346623Y-71369881D01*
X185160859Y-71499953D01*
X184999954Y-71660858D01*
X184869432Y-71847265D01*
X184869431Y-71847267D01*
X184773261Y-72053502D01*
X184773258Y-72053511D01*
X184714366Y-72273302D01*
X184714364Y-72273313D01*
X184694532Y-72499998D01*
X184694532Y-72500001D01*
X184714364Y-72726686D01*
X184714366Y-72726697D01*
X184773258Y-72946488D01*
X184773261Y-72946497D01*
X184869431Y-73152732D01*
X184869432Y-73152734D01*
X184999954Y-73339141D01*
X185160858Y-73500045D01*
X185160861Y-73500047D01*
X185347266Y-73630568D01*
X185553504Y-73726739D01*
X185773308Y-73785635D01*
X185935230Y-73799801D01*
X185999998Y-73805468D01*
X186000000Y-73805468D01*
X186000002Y-73805468D01*
X186062511Y-73799999D01*
X186226692Y-73785635D01*
X186446496Y-73726739D01*
X186652734Y-73630568D01*
X186839139Y-73500047D01*
X187000047Y-73339139D01*
X187117027Y-73172072D01*
X187171601Y-73128449D01*
X187241099Y-73121255D01*
X187303454Y-73152777D01*
X187306281Y-73155516D01*
X188863181Y-74712416D01*
X188896666Y-74773739D01*
X188899500Y-74800097D01*
X188899500Y-89413330D01*
X188899499Y-89413348D01*
X188899499Y-89579056D01*
X188940422Y-89731783D01*
X188940972Y-89732736D01*
X188940971Y-89732736D01*
X188940975Y-89732741D01*
X189019477Y-89868712D01*
X189019481Y-89868717D01*
X189138349Y-89987585D01*
X189138355Y-89987590D01*
X189555139Y-90404374D01*
X189555149Y-90404385D01*
X189559479Y-90408715D01*
X189559480Y-90408716D01*
X189671284Y-90520520D01*
X189758095Y-90570639D01*
X189758097Y-90570641D01*
X189808213Y-90599576D01*
X189808215Y-90599577D01*
X189960942Y-90640500D01*
X189960943Y-90640500D01*
X191268308Y-90640500D01*
X191335347Y-90660185D01*
X191369880Y-90693374D01*
X191455480Y-90815624D01*
X191499954Y-90879141D01*
X191660858Y-91040045D01*
X191660861Y-91040047D01*
X191847266Y-91170568D01*
X191862975Y-91177893D01*
X191915414Y-91224064D01*
X191934567Y-91291257D01*
X191914352Y-91358138D01*
X191862979Y-91402656D01*
X191847514Y-91409867D01*
X191847512Y-91409868D01*
X191774526Y-91460973D01*
X191774526Y-91460974D01*
X192370590Y-92057037D01*
X192307007Y-92074075D01*
X192192993Y-92139901D01*
X192099901Y-92232993D01*
X192034075Y-92347007D01*
X192017037Y-92410590D01*
X191420974Y-91814526D01*
X191420973Y-91814526D01*
X191369868Y-91887512D01*
X191369866Y-91887516D01*
X191273734Y-92093673D01*
X191273730Y-92093682D01*
X191214860Y-92313389D01*
X191214858Y-92313400D01*
X191195034Y-92539997D01*
X191195034Y-92540002D01*
X191214858Y-92766599D01*
X191214860Y-92766610D01*
X191273730Y-92986317D01*
X191273735Y-92986331D01*
X191369863Y-93192478D01*
X191420974Y-93265472D01*
X192017037Y-92669409D01*
X192034075Y-92732993D01*
X192099901Y-92847007D01*
X192192993Y-92940099D01*
X192307007Y-93005925D01*
X192370590Y-93022962D01*
X191774526Y-93619025D01*
X191847513Y-93670132D01*
X191847521Y-93670136D01*
X192053668Y-93766264D01*
X192053682Y-93766269D01*
X192273389Y-93825139D01*
X192273400Y-93825141D01*
X192499998Y-93844966D01*
X192500002Y-93844966D01*
X192726599Y-93825141D01*
X192726610Y-93825139D01*
X192946317Y-93766269D01*
X192946331Y-93766264D01*
X193152478Y-93670136D01*
X193225471Y-93619024D01*
X192629409Y-93022962D01*
X192692993Y-93005925D01*
X192807007Y-92940099D01*
X192900099Y-92847007D01*
X192965925Y-92732993D01*
X192982962Y-92669409D01*
X193579024Y-93265471D01*
X193630136Y-93192478D01*
X193726264Y-92986331D01*
X193726269Y-92986317D01*
X193785139Y-92766610D01*
X193785141Y-92766599D01*
X193804966Y-92540002D01*
X193804966Y-92539997D01*
X193785141Y-92313400D01*
X193785139Y-92313389D01*
X193726269Y-92093682D01*
X193726264Y-92093668D01*
X193630136Y-91887521D01*
X193630132Y-91887513D01*
X193579025Y-91814526D01*
X192982962Y-92410589D01*
X192965925Y-92347007D01*
X192900099Y-92232993D01*
X192807007Y-92139901D01*
X192692993Y-92074075D01*
X192629408Y-92057037D01*
X193225472Y-91460974D01*
X193152480Y-91409864D01*
X193137024Y-91402657D01*
X193084585Y-91356484D01*
X193065433Y-91289290D01*
X193085649Y-91222409D01*
X193137023Y-91177893D01*
X193152734Y-91170568D01*
X193339139Y-91040047D01*
X193500047Y-90879139D01*
X193630568Y-90692734D01*
X193726739Y-90486496D01*
X193785635Y-90266692D01*
X193805468Y-90040000D01*
X193785635Y-89813308D01*
X193726739Y-89593504D01*
X193630568Y-89387266D01*
X193500047Y-89200861D01*
X193500045Y-89200858D01*
X193339141Y-89039954D01*
X193152734Y-88909432D01*
X193137614Y-88902381D01*
X193085176Y-88856211D01*
X193066023Y-88789018D01*
X193086238Y-88722136D01*
X193137614Y-88677618D01*
X193152734Y-88670568D01*
X193339139Y-88540047D01*
X193500047Y-88379139D01*
X193630568Y-88192734D01*
X193726739Y-87986496D01*
X193785635Y-87766692D01*
X193805468Y-87540000D01*
X193803800Y-87520939D01*
X193791975Y-87385777D01*
X193785635Y-87313308D01*
X193726739Y-87093504D01*
X193630568Y-86887266D01*
X193500047Y-86700861D01*
X193500045Y-86700858D01*
X193339141Y-86539954D01*
X193152734Y-86409432D01*
X193137614Y-86402381D01*
X193085176Y-86356211D01*
X193066023Y-86289018D01*
X193086238Y-86222136D01*
X193137614Y-86177618D01*
X193152734Y-86170568D01*
X193339139Y-86040047D01*
X193500047Y-85879139D01*
X193630568Y-85692734D01*
X193726739Y-85486496D01*
X193785635Y-85266692D01*
X193805468Y-85040000D01*
X193785635Y-84813308D01*
X193726739Y-84593504D01*
X193630568Y-84387266D01*
X193500047Y-84200861D01*
X193500045Y-84200858D01*
X193339141Y-84039954D01*
X193152734Y-83909432D01*
X193137614Y-83902381D01*
X193085176Y-83856211D01*
X193066023Y-83789018D01*
X193086238Y-83722136D01*
X193137614Y-83677618D01*
X193152734Y-83670568D01*
X193339139Y-83540047D01*
X193500047Y-83379139D01*
X193630568Y-83192734D01*
X193726739Y-82986496D01*
X193785635Y-82766692D01*
X193805468Y-82540000D01*
X193785635Y-82313308D01*
X193726739Y-82093504D01*
X193630568Y-81887266D01*
X193500047Y-81700861D01*
X193500045Y-81700858D01*
X193339141Y-81539954D01*
X193152734Y-81409432D01*
X193137614Y-81402381D01*
X193085176Y-81356211D01*
X193066023Y-81289018D01*
X193086238Y-81222136D01*
X193137614Y-81177618D01*
X193152734Y-81170568D01*
X193339139Y-81040047D01*
X193500047Y-80879139D01*
X193630568Y-80692734D01*
X193726739Y-80486496D01*
X193785635Y-80266692D01*
X193805468Y-80040000D01*
X193785635Y-79813308D01*
X193726739Y-79593504D01*
X193630568Y-79387266D01*
X193500047Y-79200861D01*
X193500045Y-79200858D01*
X193339141Y-79039954D01*
X193152734Y-78909432D01*
X193137614Y-78902381D01*
X193085176Y-78856211D01*
X193066023Y-78789018D01*
X193086238Y-78722136D01*
X193137614Y-78677618D01*
X193152734Y-78670568D01*
X193339139Y-78540047D01*
X193500047Y-78379139D01*
X193630568Y-78192734D01*
X193726739Y-77986496D01*
X193785635Y-77766692D01*
X193805468Y-77540000D01*
X193785635Y-77313308D01*
X193726739Y-77093504D01*
X193630568Y-76887266D01*
X193500047Y-76700861D01*
X193500045Y-76700858D01*
X193339143Y-76539956D01*
X193314536Y-76522726D01*
X193270912Y-76468149D01*
X193263719Y-76398650D01*
X193295241Y-76336296D01*
X193355471Y-76300882D01*
X193372404Y-76297861D01*
X193407483Y-76294091D01*
X193542331Y-76243796D01*
X193657546Y-76157546D01*
X193743796Y-76042331D01*
X193794091Y-75907483D01*
X193800500Y-75847873D01*
X193800499Y-74152128D01*
X193794091Y-74092517D01*
X193766849Y-74019478D01*
X193743797Y-73957671D01*
X193743793Y-73957664D01*
X193657547Y-73842455D01*
X193657544Y-73842452D01*
X193542335Y-73756206D01*
X193542328Y-73756202D01*
X193407482Y-73705908D01*
X193407483Y-73705908D01*
X193347883Y-73699501D01*
X193347881Y-73699500D01*
X193347873Y-73699500D01*
X193347864Y-73699500D01*
X191652129Y-73699500D01*
X191652123Y-73699501D01*
X191592516Y-73705908D01*
X191457671Y-73756202D01*
X191457664Y-73756206D01*
X191342455Y-73842452D01*
X191342452Y-73842455D01*
X191256206Y-73957664D01*
X191256202Y-73957671D01*
X191205908Y-74092517D01*
X191199501Y-74152116D01*
X191199501Y-74152123D01*
X191199500Y-74152135D01*
X191199500Y-75847870D01*
X191199501Y-75847876D01*
X191205908Y-75907483D01*
X191256202Y-76042328D01*
X191256206Y-76042335D01*
X191342452Y-76157544D01*
X191342455Y-76157547D01*
X191457664Y-76243793D01*
X191457671Y-76243797D01*
X191470911Y-76248735D01*
X191592517Y-76294091D01*
X191627596Y-76297862D01*
X191692144Y-76324599D01*
X191731993Y-76381991D01*
X191734488Y-76451816D01*
X191698836Y-76511905D01*
X191685464Y-76522725D01*
X191660858Y-76539954D01*
X191499954Y-76700858D01*
X191369432Y-76887265D01*
X191369431Y-76887267D01*
X191273261Y-77093502D01*
X191273258Y-77093511D01*
X191214366Y-77313302D01*
X191214364Y-77313313D01*
X191194532Y-77539998D01*
X191194532Y-77540001D01*
X191214364Y-77766686D01*
X191214366Y-77766697D01*
X191273258Y-77986488D01*
X191273261Y-77986497D01*
X191369431Y-78192732D01*
X191369432Y-78192734D01*
X191499954Y-78379141D01*
X191660858Y-78540045D01*
X191660861Y-78540047D01*
X191847266Y-78670568D01*
X191862387Y-78677619D01*
X191914825Y-78723791D01*
X191933976Y-78790985D01*
X191913760Y-78857866D01*
X191862387Y-78902380D01*
X191847266Y-78909432D01*
X191847264Y-78909433D01*
X191660858Y-79039954D01*
X191499954Y-79200858D01*
X191369432Y-79387265D01*
X191369431Y-79387267D01*
X191273261Y-79593502D01*
X191273258Y-79593511D01*
X191214366Y-79813302D01*
X191214364Y-79813313D01*
X191194532Y-80039998D01*
X191194532Y-80040001D01*
X191214364Y-80266686D01*
X191214366Y-80266697D01*
X191273258Y-80486488D01*
X191273261Y-80486497D01*
X191369431Y-80692732D01*
X191369432Y-80692734D01*
X191499954Y-80879141D01*
X191660858Y-81040045D01*
X191660861Y-81040047D01*
X191847266Y-81170568D01*
X191862387Y-81177619D01*
X191914825Y-81223791D01*
X191933976Y-81290985D01*
X191913760Y-81357866D01*
X191862387Y-81402380D01*
X191847266Y-81409432D01*
X191847264Y-81409433D01*
X191660858Y-81539954D01*
X191499954Y-81700858D01*
X191369432Y-81887265D01*
X191369431Y-81887267D01*
X191273261Y-82093502D01*
X191273258Y-82093511D01*
X191214366Y-82313302D01*
X191214364Y-82313313D01*
X191194532Y-82539998D01*
X191194532Y-82540001D01*
X191214364Y-82766686D01*
X191214366Y-82766697D01*
X191273258Y-82986488D01*
X191273261Y-82986497D01*
X191369431Y-83192732D01*
X191369432Y-83192734D01*
X191499954Y-83379141D01*
X191660858Y-83540045D01*
X191660861Y-83540047D01*
X191847266Y-83670568D01*
X191862387Y-83677619D01*
X191914825Y-83723791D01*
X191933976Y-83790985D01*
X191913760Y-83857866D01*
X191862387Y-83902380D01*
X191847266Y-83909432D01*
X191847264Y-83909433D01*
X191660858Y-84039954D01*
X191499954Y-84200858D01*
X191369432Y-84387265D01*
X191369431Y-84387267D01*
X191273261Y-84593502D01*
X191273258Y-84593511D01*
X191214366Y-84813302D01*
X191214364Y-84813313D01*
X191194532Y-85039998D01*
X191194532Y-85040001D01*
X191214364Y-85266686D01*
X191214366Y-85266697D01*
X191273258Y-85486488D01*
X191273261Y-85486497D01*
X191369431Y-85692732D01*
X191369432Y-85692734D01*
X191499954Y-85879141D01*
X191660858Y-86040045D01*
X191660861Y-86040047D01*
X191847266Y-86170568D01*
X191862387Y-86177619D01*
X191914825Y-86223791D01*
X191933976Y-86290985D01*
X191913760Y-86357866D01*
X191862387Y-86402380D01*
X191847266Y-86409432D01*
X191847264Y-86409433D01*
X191660858Y-86539954D01*
X191499954Y-86700858D01*
X191369432Y-86887265D01*
X191369431Y-86887267D01*
X191273261Y-87093502D01*
X191273258Y-87093511D01*
X191214366Y-87313302D01*
X191214364Y-87313313D01*
X191194532Y-87539998D01*
X191194532Y-87540001D01*
X191214364Y-87766686D01*
X191214366Y-87766697D01*
X191273258Y-87986488D01*
X191273261Y-87986497D01*
X191369431Y-88192732D01*
X191369432Y-88192734D01*
X191499954Y-88379141D01*
X191660858Y-88540045D01*
X191660861Y-88540047D01*
X191847266Y-88670568D01*
X191862387Y-88677619D01*
X191914825Y-88723791D01*
X191933976Y-88790985D01*
X191913760Y-88857866D01*
X191862387Y-88902380D01*
X191847266Y-88909432D01*
X191847264Y-88909433D01*
X191660858Y-89039954D01*
X191499954Y-89200858D01*
X191423450Y-89310118D01*
X191369881Y-89386624D01*
X191315307Y-89430248D01*
X191268308Y-89439500D01*
X190340097Y-89439500D01*
X190273058Y-89419815D01*
X190252416Y-89403181D01*
X190136819Y-89287584D01*
X190103334Y-89226261D01*
X190100500Y-89199903D01*
X190100500Y-74420945D01*
X190100500Y-74420943D01*
X190059577Y-74268216D01*
X190059577Y-74268215D01*
X190059577Y-74268214D01*
X190030639Y-74218095D01*
X190030637Y-74218092D01*
X189980520Y-74131284D01*
X189868716Y-74019480D01*
X189868715Y-74019479D01*
X189864385Y-74015149D01*
X189864374Y-74015139D01*
X187987590Y-72138355D01*
X187987588Y-72138352D01*
X187868717Y-72019481D01*
X187868716Y-72019480D01*
X187781904Y-71969360D01*
X187781904Y-71969359D01*
X187781900Y-71969358D01*
X187731785Y-71940423D01*
X187579057Y-71899499D01*
X187420943Y-71899499D01*
X187413347Y-71899499D01*
X187413331Y-71899500D01*
X187231692Y-71899500D01*
X187164653Y-71879815D01*
X187130119Y-71846625D01*
X187000047Y-71660861D01*
X187000045Y-71660858D01*
X186839140Y-71499953D01*
X186653377Y-71369881D01*
X186609752Y-71315304D01*
X186600500Y-71268306D01*
X186600500Y-69448256D01*
X186620185Y-69381217D01*
X186668204Y-69337772D01*
X186761538Y-69290217D01*
X186946566Y-69155786D01*
X187108286Y-68994066D01*
X187242717Y-68809038D01*
X187346548Y-68605258D01*
X187417222Y-68387745D01*
X187453000Y-68161854D01*
X187453000Y-67838146D01*
X187417222Y-67612255D01*
X187417221Y-67612251D01*
X187417221Y-67612250D01*
X187346549Y-67394744D01*
X187242716Y-67190961D01*
X187205333Y-67139508D01*
X187108286Y-67005934D01*
X186946566Y-66844214D01*
X186761538Y-66709783D01*
X186557755Y-66605950D01*
X186340248Y-66535278D01*
X186154812Y-66505908D01*
X186114354Y-66499500D01*
X185885646Y-66499500D01*
X185845188Y-66505908D01*
X185659753Y-66535278D01*
X185659750Y-66535278D01*
X185442244Y-66605950D01*
X185238461Y-66709783D01*
X185172550Y-66757671D01*
X185053434Y-66844214D01*
X185053432Y-66844216D01*
X185053431Y-66844216D01*
X184891716Y-67005931D01*
X184891709Y-67005940D01*
X184830007Y-67090864D01*
X184774677Y-67133530D01*
X184705063Y-67139508D01*
X184643269Y-67106901D01*
X184629372Y-67090863D01*
X184567907Y-67006263D01*
X184567902Y-67006257D01*
X184406242Y-66844597D01*
X184221276Y-66710211D01*
X184017568Y-66606417D01*
X183800124Y-66535765D01*
X183710000Y-66521490D01*
X183710000Y-67509252D01*
X183672292Y-67487482D01*
X183532409Y-67450000D01*
X183387591Y-67450000D01*
X183247708Y-67487482D01*
X183210000Y-67509252D01*
X183210000Y-66521490D01*
X183209999Y-66521490D01*
X183119875Y-66535765D01*
X182902431Y-66606417D01*
X182698719Y-66710213D01*
X182515939Y-66843010D01*
X182450132Y-66866490D01*
X182382079Y-66850664D01*
X182333384Y-66800558D01*
X182326875Y-66786033D01*
X182316296Y-66757669D01*
X182316295Y-66757667D01*
X182316293Y-66757664D01*
X182230047Y-66642455D01*
X182230044Y-66642452D01*
X182114835Y-66556206D01*
X182114828Y-66556202D01*
X181979982Y-66505908D01*
X181979983Y-66505908D01*
X181920383Y-66499501D01*
X181920381Y-66499500D01*
X181920373Y-66499500D01*
X181920365Y-66499500D01*
X181649097Y-66499500D01*
X181582058Y-66479815D01*
X181536303Y-66427011D01*
X181526359Y-66357853D01*
X181555384Y-66294297D01*
X181561416Y-66287819D01*
X182212417Y-65636819D01*
X182273740Y-65603334D01*
X182300098Y-65600500D01*
X185413331Y-65600500D01*
X185413347Y-65600501D01*
X185420943Y-65600501D01*
X185579054Y-65600501D01*
X185579057Y-65600501D01*
X185731785Y-65559577D01*
X185799601Y-65520423D01*
X185801235Y-65519480D01*
X185868709Y-65480524D01*
X185868708Y-65480524D01*
X185868716Y-65480520D01*
X185980520Y-65368716D01*
X185980521Y-65368714D01*
X186480520Y-64868716D01*
X186559577Y-64731784D01*
X186600501Y-64579057D01*
X186600501Y-64420942D01*
X186600501Y-64413347D01*
X186600500Y-64413329D01*
X186600500Y-63731692D01*
X186620185Y-63664653D01*
X186653374Y-63630119D01*
X186839139Y-63500047D01*
X187000047Y-63339139D01*
X187130568Y-63152734D01*
X187226739Y-62946496D01*
X187285635Y-62726692D01*
X187305468Y-62500000D01*
X187285635Y-62273308D01*
X187226739Y-62053504D01*
X187130568Y-61847266D01*
X187000047Y-61660861D01*
X187000045Y-61660858D01*
X186839140Y-61499953D01*
X186653377Y-61369881D01*
X186609752Y-61315304D01*
X186600500Y-61268306D01*
X186600500Y-61089060D01*
X186600501Y-61089047D01*
X186600501Y-60920944D01*
X186600501Y-60920943D01*
X186559577Y-60768216D01*
X186559573Y-60768209D01*
X186480524Y-60631290D01*
X186480518Y-60631282D01*
X185868717Y-60019481D01*
X185868716Y-60019480D01*
X185781904Y-59969360D01*
X185781904Y-59969359D01*
X185781900Y-59969358D01*
X185731785Y-59940423D01*
X185579057Y-59899499D01*
X185420943Y-59899499D01*
X185413347Y-59899499D01*
X185413331Y-59899500D01*
X181800097Y-59899500D01*
X181733058Y-59879815D01*
X181712416Y-59863181D01*
X175136819Y-53287584D01*
X175103334Y-53226261D01*
X175100500Y-53199903D01*
X175100500Y-51749097D01*
X175120185Y-51682058D01*
X175172989Y-51636303D01*
X175242147Y-51626359D01*
X175305703Y-51655384D01*
X175312181Y-51661416D01*
X176015139Y-52364374D01*
X176015149Y-52364385D01*
X176019479Y-52368715D01*
X176019480Y-52368716D01*
X176131284Y-52480520D01*
X176218095Y-52530639D01*
X176218097Y-52530641D01*
X176256151Y-52552611D01*
X176268215Y-52559577D01*
X176420943Y-52600501D01*
X176420946Y-52600501D01*
X176586653Y-52600501D01*
X176586669Y-52600500D01*
X206079055Y-52600500D01*
X206079057Y-52600500D01*
X206231784Y-52559577D01*
X206368716Y-52480520D01*
X206480520Y-52368716D01*
X206559577Y-52231784D01*
X206600500Y-52079057D01*
X206600500Y-51012367D01*
X206620185Y-50945328D01*
X206672989Y-50899573D01*
X206677038Y-50897809D01*
X206706089Y-50885777D01*
X206914179Y-50758259D01*
X207099759Y-50599759D01*
X207258259Y-50414179D01*
X207385777Y-50206089D01*
X207479172Y-49980612D01*
X207536146Y-49743302D01*
X207555294Y-49500000D01*
X207536146Y-49256698D01*
X207479172Y-49019388D01*
X207479169Y-49019380D01*
X207385777Y-48793910D01*
X207258262Y-48585826D01*
X207258261Y-48585823D01*
X207222453Y-48543897D01*
X207099759Y-48400241D01*
X206977063Y-48295449D01*
X206914176Y-48241738D01*
X206914173Y-48241737D01*
X206706089Y-48114222D01*
X206480618Y-48020830D01*
X206480621Y-48020830D01*
X206374992Y-47995470D01*
X206243302Y-47963854D01*
X206243300Y-47963853D01*
X206243297Y-47963853D01*
X206000000Y-47944706D01*
X205756702Y-47963853D01*
X205756698Y-47963854D01*
X205542889Y-48015186D01*
X205519380Y-48020830D01*
X205293910Y-48114222D01*
X205085826Y-48241737D01*
X205085823Y-48241738D01*
X204900241Y-48400241D01*
X204741738Y-48585823D01*
X204741737Y-48585826D01*
X204614222Y-48793910D01*
X204520830Y-49019380D01*
X204463853Y-49256702D01*
X204444706Y-49500000D01*
X204463853Y-49743297D01*
X204520830Y-49980619D01*
X204614222Y-50206089D01*
X204741737Y-50414173D01*
X204741738Y-50414176D01*
X204774722Y-50452795D01*
X204900241Y-50599759D01*
X205043897Y-50722453D01*
X205085823Y-50758261D01*
X205085825Y-50758261D01*
X205293911Y-50885777D01*
X205322950Y-50897805D01*
X205377354Y-50941644D01*
X205399421Y-51007938D01*
X205399500Y-51012367D01*
X205399500Y-51275500D01*
X205379815Y-51342539D01*
X205327011Y-51388294D01*
X205275500Y-51399500D01*
X176800097Y-51399500D01*
X176733058Y-51379815D01*
X176712416Y-51363181D01*
X175494022Y-50144787D01*
X175460537Y-50083464D01*
X175465521Y-50013772D01*
X175467123Y-50009698D01*
X175479172Y-49980612D01*
X175536146Y-49743302D01*
X175555294Y-49500000D01*
X175536146Y-49256698D01*
X175479172Y-49019388D01*
X175479169Y-49019380D01*
X175385777Y-48793910D01*
X175297597Y-48650014D01*
X187350000Y-48650014D01*
X187350000Y-49250000D01*
X188409252Y-49250000D01*
X188387482Y-49287708D01*
X188350000Y-49427591D01*
X188350000Y-49572409D01*
X188387482Y-49712292D01*
X188409252Y-49750000D01*
X187350000Y-49750000D01*
X187350000Y-50349985D01*
X187360493Y-50452689D01*
X187360494Y-50452696D01*
X187415641Y-50619118D01*
X187415643Y-50619123D01*
X187507684Y-50768344D01*
X187631655Y-50892315D01*
X187780876Y-50984356D01*
X187780881Y-50984358D01*
X187947303Y-51039505D01*
X187947310Y-51039506D01*
X188050014Y-51049999D01*
X188050027Y-51050000D01*
X188650000Y-51050000D01*
X188650000Y-49990747D01*
X188687708Y-50012518D01*
X188827591Y-50050000D01*
X188972409Y-50050000D01*
X189112292Y-50012518D01*
X189150000Y-49990747D01*
X189150000Y-51050000D01*
X189749973Y-51050000D01*
X189749985Y-51049999D01*
X189852689Y-51039506D01*
X189852696Y-51039505D01*
X190019118Y-50984358D01*
X190019123Y-50984356D01*
X190168344Y-50892315D01*
X190292315Y-50768344D01*
X190384356Y-50619123D01*
X190384358Y-50619118D01*
X190439505Y-50452696D01*
X190439506Y-50452689D01*
X190449999Y-50349985D01*
X190450000Y-50349972D01*
X190450000Y-49750000D01*
X189390748Y-49750000D01*
X189412518Y-49712292D01*
X189450000Y-49572409D01*
X189450000Y-49500000D01*
X191944706Y-49500000D01*
X191963853Y-49743297D01*
X192020830Y-49980619D01*
X192114222Y-50206089D01*
X192241737Y-50414173D01*
X192241738Y-50414176D01*
X192274722Y-50452795D01*
X192400241Y-50599759D01*
X192543897Y-50722453D01*
X192585823Y-50758261D01*
X192585826Y-50758262D01*
X192793910Y-50885777D01*
X193019381Y-50979169D01*
X193019378Y-50979169D01*
X193019384Y-50979170D01*
X193019388Y-50979172D01*
X193256698Y-51036146D01*
X193500000Y-51055294D01*
X193743302Y-51036146D01*
X193980612Y-50979172D01*
X194206089Y-50885777D01*
X194414179Y-50758259D01*
X194599759Y-50599759D01*
X194758259Y-50414179D01*
X194885777Y-50206089D01*
X194897807Y-50177047D01*
X194941648Y-50122644D01*
X195007942Y-50100579D01*
X195012368Y-50100500D01*
X199725500Y-50100500D01*
X199792539Y-50120185D01*
X199838294Y-50172989D01*
X199849500Y-50224500D01*
X199849500Y-50350015D01*
X199860000Y-50452795D01*
X199860001Y-50452796D01*
X199915186Y-50619335D01*
X199915187Y-50619337D01*
X200007286Y-50768651D01*
X200007289Y-50768655D01*
X200131344Y-50892710D01*
X200131348Y-50892713D01*
X200280662Y-50984812D01*
X200280664Y-50984813D01*
X200280666Y-50984814D01*
X200447203Y-51039999D01*
X200549992Y-51050500D01*
X200549997Y-51050500D01*
X202250003Y-51050500D01*
X202250008Y-51050500D01*
X202352797Y-51039999D01*
X202519334Y-50984814D01*
X202668655Y-50892711D01*
X202792711Y-50768655D01*
X202884814Y-50619334D01*
X202939999Y-50452797D01*
X202950500Y-50350008D01*
X202950500Y-48649992D01*
X202939999Y-48547203D01*
X202884814Y-48380666D01*
X202799123Y-48241741D01*
X202792713Y-48231348D01*
X202792710Y-48231344D01*
X202668655Y-48107289D01*
X202668651Y-48107286D01*
X202519337Y-48015187D01*
X202519335Y-48015186D01*
X202436065Y-47987593D01*
X202352797Y-47960001D01*
X202352795Y-47960000D01*
X202250015Y-47949500D01*
X202250008Y-47949500D01*
X200549992Y-47949500D01*
X200549984Y-47949500D01*
X200447204Y-47960000D01*
X200447203Y-47960001D01*
X200280664Y-48015186D01*
X200280662Y-48015187D01*
X200131348Y-48107286D01*
X200131344Y-48107289D01*
X200007289Y-48231344D01*
X200007286Y-48231348D01*
X199915187Y-48380662D01*
X199915186Y-48380664D01*
X199860001Y-48547203D01*
X199860000Y-48547204D01*
X199849500Y-48649984D01*
X199849500Y-48775500D01*
X199829815Y-48842539D01*
X199777011Y-48888294D01*
X199725500Y-48899500D01*
X195012368Y-48899500D01*
X194945329Y-48879815D01*
X194899574Y-48827011D01*
X194897807Y-48822953D01*
X194885777Y-48793910D01*
X194758262Y-48585826D01*
X194758261Y-48585823D01*
X194722453Y-48543897D01*
X194599759Y-48400241D01*
X194477063Y-48295449D01*
X194414176Y-48241738D01*
X194414173Y-48241737D01*
X194206089Y-48114222D01*
X193980618Y-48020830D01*
X193980621Y-48020830D01*
X193874992Y-47995470D01*
X193743302Y-47963854D01*
X193743300Y-47963853D01*
X193743297Y-47963853D01*
X193500000Y-47944706D01*
X193256702Y-47963853D01*
X193256698Y-47963854D01*
X193042889Y-48015186D01*
X193019380Y-48020830D01*
X192793910Y-48114222D01*
X192585826Y-48241737D01*
X192585823Y-48241738D01*
X192400241Y-48400241D01*
X192241738Y-48585823D01*
X192241737Y-48585826D01*
X192114222Y-48793910D01*
X192020830Y-49019380D01*
X191963853Y-49256702D01*
X191944706Y-49500000D01*
X189450000Y-49500000D01*
X189450000Y-49427591D01*
X189412518Y-49287708D01*
X189390748Y-49250000D01*
X190450000Y-49250000D01*
X190450000Y-48650027D01*
X190449999Y-48650014D01*
X190439506Y-48547310D01*
X190439505Y-48547303D01*
X190384358Y-48380881D01*
X190384356Y-48380876D01*
X190292315Y-48231655D01*
X190168344Y-48107684D01*
X190019123Y-48015643D01*
X190019118Y-48015641D01*
X189852696Y-47960494D01*
X189852689Y-47960493D01*
X189749985Y-47950000D01*
X189150000Y-47950000D01*
X189150000Y-49009252D01*
X189112292Y-48987482D01*
X188972409Y-48950000D01*
X188827591Y-48950000D01*
X188687708Y-48987482D01*
X188650000Y-49009252D01*
X188650000Y-47950000D01*
X188050014Y-47950000D01*
X187947310Y-47960493D01*
X187947303Y-47960494D01*
X187780881Y-48015641D01*
X187780876Y-48015643D01*
X187631655Y-48107684D01*
X187507684Y-48231655D01*
X187415643Y-48380876D01*
X187415641Y-48380881D01*
X187360494Y-48547303D01*
X187360493Y-48547310D01*
X187350000Y-48650014D01*
X175297597Y-48650014D01*
X175258262Y-48585826D01*
X175258261Y-48585823D01*
X175222453Y-48543897D01*
X175099759Y-48400241D01*
X174977063Y-48295449D01*
X174914176Y-48241738D01*
X174914173Y-48241737D01*
X174706089Y-48114222D01*
X174480618Y-48020830D01*
X174480621Y-48020830D01*
X174374992Y-47995470D01*
X174243302Y-47963854D01*
X174243300Y-47963853D01*
X174243297Y-47963853D01*
X174000000Y-47944706D01*
X173756702Y-47963853D01*
X173756698Y-47963854D01*
X173542889Y-48015186D01*
X173519380Y-48020830D01*
X173293910Y-48114222D01*
X173085826Y-48241737D01*
X173085823Y-48241738D01*
X172900241Y-48400241D01*
X172741738Y-48585823D01*
X172741737Y-48585826D01*
X172614222Y-48793910D01*
X172520830Y-49019380D01*
X172463853Y-49256702D01*
X172444706Y-49500000D01*
X172463853Y-49743297D01*
X172520829Y-49980616D01*
X172532857Y-50009653D01*
X172540326Y-50079122D01*
X172509051Y-50141601D01*
X172505977Y-50144786D01*
X171131286Y-51519478D01*
X171019481Y-51631282D01*
X171019479Y-51631285D01*
X170969361Y-51718094D01*
X170969359Y-51718096D01*
X170940425Y-51768209D01*
X170940424Y-51768210D01*
X170940423Y-51768215D01*
X170899499Y-51920943D01*
X170899499Y-51920945D01*
X170899499Y-52089046D01*
X170899500Y-52089059D01*
X170899500Y-59913330D01*
X170899499Y-59913348D01*
X170899499Y-60079054D01*
X170899498Y-60079054D01*
X170940424Y-60231789D01*
X170940425Y-60231790D01*
X170961455Y-60268214D01*
X170961456Y-60268216D01*
X171019475Y-60368709D01*
X171019479Y-60368714D01*
X171019480Y-60368716D01*
X171131284Y-60480520D01*
X171131285Y-60480521D01*
X171631284Y-60980520D01*
X171631286Y-60980521D01*
X171631290Y-60980524D01*
X171705740Y-61023507D01*
X171768216Y-61059577D01*
X171920943Y-61100501D01*
X171920945Y-61100501D01*
X172086654Y-61100501D01*
X172086670Y-61100500D01*
X173199903Y-61100500D01*
X173266942Y-61120185D01*
X173287584Y-61136819D01*
X173344483Y-61193718D01*
X173377968Y-61255041D01*
X173372984Y-61324733D01*
X173331112Y-61380666D01*
X173327925Y-61382974D01*
X173160858Y-61499954D01*
X172999954Y-61660858D01*
X172869432Y-61847265D01*
X172869431Y-61847267D01*
X172773261Y-62053502D01*
X172773258Y-62053511D01*
X172714366Y-62273302D01*
X172714364Y-62273313D01*
X172694532Y-62499998D01*
X172694532Y-62500001D01*
X172714364Y-62726686D01*
X172714366Y-62726697D01*
X172773258Y-62946488D01*
X172773261Y-62946497D01*
X172869431Y-63152732D01*
X172869432Y-63152734D01*
X172999954Y-63339141D01*
X173160858Y-63500045D01*
X173160861Y-63500047D01*
X173346624Y-63630118D01*
X173390248Y-63684693D01*
X173399500Y-63731692D01*
X173399500Y-64199902D01*
X173379815Y-64266941D01*
X173363181Y-64287583D01*
X172787584Y-64863181D01*
X172726261Y-64896666D01*
X172699903Y-64899500D01*
X169586670Y-64899500D01*
X169586654Y-64899499D01*
X169579058Y-64899499D01*
X169420943Y-64899499D01*
X169344579Y-64919961D01*
X169268214Y-64940423D01*
X169268209Y-64940426D01*
X169131290Y-65019475D01*
X169131282Y-65019481D01*
X168624217Y-65526546D01*
X168624214Y-65526548D01*
X168624215Y-65526549D01*
X168519479Y-65631285D01*
X168519478Y-65631287D01*
X168473292Y-65711284D01*
X168440424Y-65768212D01*
X168440423Y-65768213D01*
X168419961Y-65844579D01*
X168399499Y-65920943D01*
X168399499Y-65920945D01*
X168399499Y-66089046D01*
X168399500Y-66089059D01*
X168399500Y-66375500D01*
X168379815Y-66442539D01*
X168327011Y-66488294D01*
X168275500Y-66499500D01*
X167999630Y-66499500D01*
X167999623Y-66499501D01*
X167940016Y-66505908D01*
X167805171Y-66556202D01*
X167805164Y-66556206D01*
X167689955Y-66642452D01*
X167689952Y-66642455D01*
X167603706Y-66757664D01*
X167603702Y-66757671D01*
X167553408Y-66892517D01*
X167547001Y-66952116D01*
X167547000Y-66952135D01*
X164278500Y-66952135D01*
X164278500Y-61652155D01*
X167700000Y-61652155D01*
X167700000Y-62250000D01*
X168684314Y-62250000D01*
X168679920Y-62254394D01*
X168627259Y-62345606D01*
X168600000Y-62447339D01*
X168600000Y-62552661D01*
X168627259Y-62654394D01*
X168679920Y-62745606D01*
X168684314Y-62750000D01*
X167700000Y-62750000D01*
X167700000Y-63347844D01*
X167706401Y-63407372D01*
X167706403Y-63407379D01*
X167756645Y-63542086D01*
X167756649Y-63542093D01*
X167842809Y-63657187D01*
X167842812Y-63657190D01*
X167957906Y-63743350D01*
X167957913Y-63743354D01*
X168092620Y-63793596D01*
X168092627Y-63793598D01*
X168152155Y-63799999D01*
X168152172Y-63800000D01*
X168750000Y-63800000D01*
X168750000Y-62815686D01*
X168754394Y-62820080D01*
X168845606Y-62872741D01*
X168947339Y-62900000D01*
X169052661Y-62900000D01*
X169154394Y-62872741D01*
X169245606Y-62820080D01*
X169250000Y-62815686D01*
X169250000Y-63800000D01*
X169847828Y-63800000D01*
X169847844Y-63799999D01*
X169907372Y-63793598D01*
X169907379Y-63793596D01*
X170042086Y-63743354D01*
X170042093Y-63743350D01*
X170157187Y-63657190D01*
X170157190Y-63657187D01*
X170243350Y-63542093D01*
X170243354Y-63542086D01*
X170293596Y-63407379D01*
X170293598Y-63407372D01*
X170299999Y-63347844D01*
X170300000Y-63347827D01*
X170300000Y-62750000D01*
X169315686Y-62750000D01*
X169320080Y-62745606D01*
X169372741Y-62654394D01*
X169400000Y-62552661D01*
X169400000Y-62447339D01*
X169372741Y-62345606D01*
X169320080Y-62254394D01*
X169315686Y-62250000D01*
X170300000Y-62250000D01*
X170300000Y-61652172D01*
X170299999Y-61652155D01*
X170293598Y-61592627D01*
X170293596Y-61592620D01*
X170243354Y-61457913D01*
X170243350Y-61457906D01*
X170157190Y-61342812D01*
X170157187Y-61342809D01*
X170042093Y-61256649D01*
X170042086Y-61256645D01*
X169907379Y-61206403D01*
X169907372Y-61206401D01*
X169847844Y-61200000D01*
X169250000Y-61200000D01*
X169250000Y-62184314D01*
X169245606Y-62179920D01*
X169154394Y-62127259D01*
X169052661Y-62100000D01*
X168947339Y-62100000D01*
X168845606Y-62127259D01*
X168754394Y-62179920D01*
X168750000Y-62184314D01*
X168750000Y-61200000D01*
X168152155Y-61200000D01*
X168092627Y-61206401D01*
X168092620Y-61206403D01*
X167957913Y-61256645D01*
X167957906Y-61256649D01*
X167842812Y-61342809D01*
X167842809Y-61342812D01*
X167756649Y-61457906D01*
X167756645Y-61457913D01*
X167706403Y-61592620D01*
X167706401Y-61592627D01*
X167700000Y-61652155D01*
X164278500Y-61652155D01*
X164278500Y-48650014D01*
X167850000Y-48650014D01*
X167850000Y-49250000D01*
X168909252Y-49250000D01*
X168887482Y-49287708D01*
X168850000Y-49427591D01*
X168850000Y-49572409D01*
X168887482Y-49712292D01*
X168909252Y-49750000D01*
X167850000Y-49750000D01*
X167850000Y-50349985D01*
X167860493Y-50452689D01*
X167860494Y-50452696D01*
X167915641Y-50619118D01*
X167915643Y-50619123D01*
X168007684Y-50768344D01*
X168131655Y-50892315D01*
X168280876Y-50984356D01*
X168280881Y-50984358D01*
X168447303Y-51039505D01*
X168447310Y-51039506D01*
X168550014Y-51049999D01*
X168550027Y-51050000D01*
X169150000Y-51050000D01*
X169150000Y-49990747D01*
X169187708Y-50012518D01*
X169327591Y-50050000D01*
X169472409Y-50050000D01*
X169612292Y-50012518D01*
X169650000Y-49990747D01*
X169650000Y-51050000D01*
X170249973Y-51050000D01*
X170249985Y-51049999D01*
X170352689Y-51039506D01*
X170352696Y-51039505D01*
X170519118Y-50984358D01*
X170519123Y-50984356D01*
X170668344Y-50892315D01*
X170792315Y-50768344D01*
X170884356Y-50619123D01*
X170884358Y-50619118D01*
X170939505Y-50452696D01*
X170939506Y-50452689D01*
X170949999Y-50349985D01*
X170950000Y-50349972D01*
X170950000Y-49750000D01*
X169890748Y-49750000D01*
X169912518Y-49712292D01*
X169950000Y-49572409D01*
X169950000Y-49427591D01*
X169912518Y-49287708D01*
X169890748Y-49250000D01*
X170950000Y-49250000D01*
X170950000Y-48650027D01*
X170949999Y-48650014D01*
X170939506Y-48547310D01*
X170939505Y-48547303D01*
X170884358Y-48380881D01*
X170884356Y-48380876D01*
X170792315Y-48231655D01*
X170668344Y-48107684D01*
X170519123Y-48015643D01*
X170519118Y-48015641D01*
X170352696Y-47960494D01*
X170352689Y-47960493D01*
X170249985Y-47950000D01*
X169650000Y-47950000D01*
X169650000Y-49009252D01*
X169612292Y-48987482D01*
X169472409Y-48950000D01*
X169327591Y-48950000D01*
X169187708Y-48987482D01*
X169150000Y-49009252D01*
X169150000Y-47950000D01*
X168550014Y-47950000D01*
X168447310Y-47960493D01*
X168447303Y-47960494D01*
X168280881Y-48015641D01*
X168280876Y-48015643D01*
X168131655Y-48107684D01*
X168007684Y-48231655D01*
X167915643Y-48380876D01*
X167915641Y-48380881D01*
X167860494Y-48547303D01*
X167860493Y-48547310D01*
X167850000Y-48650014D01*
X164278500Y-48650014D01*
X164278500Y-45803500D01*
X164298185Y-45736461D01*
X164350989Y-45690706D01*
X164402500Y-45679500D01*
X224875500Y-45679500D01*
X224942539Y-45699185D01*
G37*
%TD.AperFunction*%
%TD*%
M02*
