%TF.GenerationSoftware,KiCad,Pcbnew,8.0.7*%
%TF.CreationDate,2025-03-07T08:53:41+01:00*%
%TF.ProjectId,Relay2ClickProj,52656c61-7932-4436-9c69-636b50726f6a,rev?*%
%TF.SameCoordinates,Original*%
%TF.FileFunction,Drillmap*%
%TF.FilePolarity,Positive*%
%FSLAX45Y45*%
G04 Gerber Fmt 4.5, Leading zero omitted, Abs format (unit mm)*
G04 Created by KiCad (PCBNEW 8.0.7) date 2025-03-07 08:53:41*
%MOMM*%
%LPD*%
G01*
G04 APERTURE LIST*
%ADD10C,0.200000*%
G04 APERTURE END LIST*
D10*
X16377800Y-4517900D02*
X22550000Y-4517900D01*
X22550000Y-10182100D01*
X16377800Y-10182100D01*
X16377800Y-4517900D01*
X16628577Y-10503584D02*
X16628577Y-10303584D01*
X16628577Y-10303584D02*
X16676196Y-10303584D01*
X16676196Y-10303584D02*
X16704767Y-10313108D01*
X16704767Y-10313108D02*
X16723815Y-10332155D01*
X16723815Y-10332155D02*
X16733339Y-10351203D01*
X16733339Y-10351203D02*
X16742862Y-10389298D01*
X16742862Y-10389298D02*
X16742862Y-10417870D01*
X16742862Y-10417870D02*
X16733339Y-10455965D01*
X16733339Y-10455965D02*
X16723815Y-10475012D01*
X16723815Y-10475012D02*
X16704767Y-10494060D01*
X16704767Y-10494060D02*
X16676196Y-10503584D01*
X16676196Y-10503584D02*
X16628577Y-10503584D01*
X16828577Y-10503584D02*
X16828577Y-10370250D01*
X16828577Y-10408346D02*
X16838101Y-10389298D01*
X16838101Y-10389298D02*
X16847624Y-10379774D01*
X16847624Y-10379774D02*
X16866672Y-10370250D01*
X16866672Y-10370250D02*
X16885720Y-10370250D01*
X16952386Y-10503584D02*
X16952386Y-10370250D01*
X16952386Y-10303584D02*
X16942863Y-10313108D01*
X16942863Y-10313108D02*
X16952386Y-10322631D01*
X16952386Y-10322631D02*
X16961910Y-10313108D01*
X16961910Y-10313108D02*
X16952386Y-10303584D01*
X16952386Y-10303584D02*
X16952386Y-10322631D01*
X17076196Y-10503584D02*
X17057148Y-10494060D01*
X17057148Y-10494060D02*
X17047624Y-10475012D01*
X17047624Y-10475012D02*
X17047624Y-10303584D01*
X17180958Y-10503584D02*
X17161910Y-10494060D01*
X17161910Y-10494060D02*
X17152386Y-10475012D01*
X17152386Y-10475012D02*
X17152386Y-10303584D01*
X17409529Y-10503584D02*
X17409529Y-10303584D01*
X17409529Y-10303584D02*
X17476196Y-10446441D01*
X17476196Y-10446441D02*
X17542863Y-10303584D01*
X17542863Y-10303584D02*
X17542863Y-10503584D01*
X17723815Y-10503584D02*
X17723815Y-10398822D01*
X17723815Y-10398822D02*
X17714291Y-10379774D01*
X17714291Y-10379774D02*
X17695244Y-10370250D01*
X17695244Y-10370250D02*
X17657148Y-10370250D01*
X17657148Y-10370250D02*
X17638101Y-10379774D01*
X17723815Y-10494060D02*
X17704767Y-10503584D01*
X17704767Y-10503584D02*
X17657148Y-10503584D01*
X17657148Y-10503584D02*
X17638101Y-10494060D01*
X17638101Y-10494060D02*
X17628577Y-10475012D01*
X17628577Y-10475012D02*
X17628577Y-10455965D01*
X17628577Y-10455965D02*
X17638101Y-10436917D01*
X17638101Y-10436917D02*
X17657148Y-10427393D01*
X17657148Y-10427393D02*
X17704767Y-10427393D01*
X17704767Y-10427393D02*
X17723815Y-10417870D01*
X17819053Y-10370250D02*
X17819053Y-10570250D01*
X17819053Y-10379774D02*
X17838101Y-10370250D01*
X17838101Y-10370250D02*
X17876196Y-10370250D01*
X17876196Y-10370250D02*
X17895244Y-10379774D01*
X17895244Y-10379774D02*
X17904767Y-10389298D01*
X17904767Y-10389298D02*
X17914291Y-10408346D01*
X17914291Y-10408346D02*
X17914291Y-10465489D01*
X17914291Y-10465489D02*
X17904767Y-10484536D01*
X17904767Y-10484536D02*
X17895244Y-10494060D01*
X17895244Y-10494060D02*
X17876196Y-10503584D01*
X17876196Y-10503584D02*
X17838101Y-10503584D01*
X17838101Y-10503584D02*
X17819053Y-10494060D01*
X18000005Y-10484536D02*
X18009529Y-10494060D01*
X18009529Y-10494060D02*
X18000005Y-10503584D01*
X18000005Y-10503584D02*
X17990482Y-10494060D01*
X17990482Y-10494060D02*
X18000005Y-10484536D01*
X18000005Y-10484536D02*
X18000005Y-10503584D01*
X18000005Y-10379774D02*
X18009529Y-10389298D01*
X18009529Y-10389298D02*
X18000005Y-10398822D01*
X18000005Y-10398822D02*
X17990482Y-10389298D01*
X17990482Y-10389298D02*
X18000005Y-10379774D01*
X18000005Y-10379774D02*
X18000005Y-10398822D01*
M02*
