M48
; DRILL file {KiCad 8.0.7} date 2025-03-07T08:53:26+0100
; FORMAT={-:-/ absolute / metric / decimal}
; #@! TF.CreationDate,2025-03-07T08:53:26+01:00
; #@! TF.GenerationSoftware,Kicad,Pcbnew,8.0.7
; #@! TF.FileFunction,Plated,1,2,PTH
FMAT,2
METRIC
; #@! TA.AperFunction,Plated,PTH,ComponentDrill
T1C0.800
; #@! TA.AperFunction,Plated,PTH,ComponentDrill
T2C1.000
; #@! TA.AperFunction,Plated,PTH,ComponentDrill
T3C1.100
%
G90
G05
T1
X168.5Y-72.5
X169.0Y-62.5
X173.5Y-72.5
X174.0Y-62.5
X181.0Y-62.5
X181.0Y-72.5
X181.1Y-78.92
X181.1Y-89.08
X185.5Y-78.92
X185.5Y-89.08
X186.0Y-62.5
X186.0Y-72.5
T2
X192.5Y-75.0
X192.5Y-77.54
X192.5Y-80.04
X192.5Y-82.54
X192.5Y-85.04
X192.5Y-87.54
X192.5Y-90.04
X192.5Y-92.54
X215.36Y-75.0
X215.36Y-77.54
X215.36Y-80.04
X215.36Y-82.54
X215.36Y-85.04
X215.36Y-87.54
X215.36Y-90.04
X215.36Y-92.54
T3
X169.0Y-68.0
X169.4Y-49.5
X171.54Y-68.0
X171.7Y-96.5
X174.0Y-49.5
X174.08Y-68.0
X176.3Y-96.5
X180.9Y-96.5
X180.92Y-68.0
X183.46Y-68.0
X185.5Y-96.5
X186.0Y-68.0
X188.9Y-49.5
X193.5Y-49.5
X201.4Y-49.5
X206.0Y-49.5
X221.0Y-81.4
X221.0Y-86.0
X221.0Y-90.6
X221.0Y-95.2
M30
