%TF.GenerationSoftware,KiCad,Pcbnew,8.0.7*%
%TF.CreationDate,2025-03-07T08:53:41+01:00*%
%TF.ProjectId,Relay2ClickProj,52656c61-7932-4436-9c69-636b50726f6a,rev?*%
%TF.SameCoordinates,Original*%
%TF.FileFunction,Drillmap*%
%TF.FilePolarity,Positive*%
%FSLAX45Y45*%
G04 Gerber Fmt 4.5, Leading zero omitted, Abs format (unit mm)*
G04 Created by KiCad (PCBNEW 8.0.7) date 2025-03-07 08:53:41*
%MOMM*%
%LPD*%
G01*
G04 APERTURE LIST*
%ADD10C,0.200000*%
%ADD11C,0.100000*%
%ADD12C,0.110000*%
G04 APERTURE END LIST*
D10*
X16377800Y-4517900D02*
X22550000Y-4517900D01*
X22550000Y-10182100D01*
X16377800Y-10182100D01*
X16377800Y-4517900D01*
D11*
X16810000Y-7210000D02*
X16890000Y-7290000D01*
X16890000Y-7210000D02*
X16810000Y-7290000D01*
X16860000Y-6210000D02*
X16940000Y-6290000D01*
X16940000Y-6210000D02*
X16860000Y-6290000D01*
X17310000Y-7210000D02*
X17390000Y-7290000D01*
X17390000Y-7210000D02*
X17310000Y-7290000D01*
X17360000Y-6210000D02*
X17440000Y-6290000D01*
X17440000Y-6210000D02*
X17360000Y-6290000D01*
X18060000Y-6210000D02*
X18140000Y-6290000D01*
X18140000Y-6210000D02*
X18060000Y-6290000D01*
X18060000Y-7210000D02*
X18140000Y-7290000D01*
X18140000Y-7210000D02*
X18060000Y-7290000D01*
X18070000Y-7852000D02*
X18150000Y-7932000D01*
X18150000Y-7852000D02*
X18070000Y-7932000D01*
X18070000Y-8868000D02*
X18150000Y-8948000D01*
X18150000Y-8868000D02*
X18070000Y-8948000D01*
X18510000Y-7852000D02*
X18590000Y-7932000D01*
X18590000Y-7852000D02*
X18510000Y-7932000D01*
X18510000Y-8868000D02*
X18590000Y-8948000D01*
X18590000Y-8868000D02*
X18510000Y-8948000D01*
X18560000Y-6210000D02*
X18640000Y-6290000D01*
X18640000Y-6210000D02*
X18560000Y-6290000D01*
X18560000Y-7210000D02*
X18640000Y-7290000D01*
X18640000Y-7210000D02*
X18560000Y-7290000D01*
X19300000Y-7500000D02*
G75*
G02*
X19200000Y-7500000I-50000J0D01*
G01*
X19200000Y-7500000D02*
G75*
G02*
X19300000Y-7500000I50000J0D01*
G01*
X19300000Y-7754000D02*
G75*
G02*
X19200000Y-7754000I-50000J0D01*
G01*
X19200000Y-7754000D02*
G75*
G02*
X19300000Y-7754000I50000J0D01*
G01*
X19300000Y-8004000D02*
G75*
G02*
X19200000Y-8004000I-50000J0D01*
G01*
X19200000Y-8004000D02*
G75*
G02*
X19300000Y-8004000I50000J0D01*
G01*
X19300000Y-8254000D02*
G75*
G02*
X19200000Y-8254000I-50000J0D01*
G01*
X19200000Y-8254000D02*
G75*
G02*
X19300000Y-8254000I50000J0D01*
G01*
X19300000Y-8504000D02*
G75*
G02*
X19200000Y-8504000I-50000J0D01*
G01*
X19200000Y-8504000D02*
G75*
G02*
X19300000Y-8504000I50000J0D01*
G01*
X19300000Y-8754000D02*
G75*
G02*
X19200000Y-8754000I-50000J0D01*
G01*
X19200000Y-8754000D02*
G75*
G02*
X19300000Y-8754000I50000J0D01*
G01*
X19300000Y-9004000D02*
G75*
G02*
X19200000Y-9004000I-50000J0D01*
G01*
X19200000Y-9004000D02*
G75*
G02*
X19300000Y-9004000I50000J0D01*
G01*
X19300000Y-9254000D02*
G75*
G02*
X19200000Y-9254000I-50000J0D01*
G01*
X19200000Y-9254000D02*
G75*
G02*
X19300000Y-9254000I50000J0D01*
G01*
X21586000Y-7500000D02*
G75*
G02*
X21486000Y-7500000I-50000J0D01*
G01*
X21486000Y-7500000D02*
G75*
G02*
X21586000Y-7500000I50000J0D01*
G01*
X21586000Y-7754000D02*
G75*
G02*
X21486000Y-7754000I-50000J0D01*
G01*
X21486000Y-7754000D02*
G75*
G02*
X21586000Y-7754000I50000J0D01*
G01*
X21586000Y-8004000D02*
G75*
G02*
X21486000Y-8004000I-50000J0D01*
G01*
X21486000Y-8004000D02*
G75*
G02*
X21586000Y-8004000I50000J0D01*
G01*
X21586000Y-8254000D02*
G75*
G02*
X21486000Y-8254000I-50000J0D01*
G01*
X21486000Y-8254000D02*
G75*
G02*
X21586000Y-8254000I50000J0D01*
G01*
X21586000Y-8504000D02*
G75*
G02*
X21486000Y-8504000I-50000J0D01*
G01*
X21486000Y-8504000D02*
G75*
G02*
X21586000Y-8504000I50000J0D01*
G01*
X21586000Y-8754000D02*
G75*
G02*
X21486000Y-8754000I-50000J0D01*
G01*
X21486000Y-8754000D02*
G75*
G02*
X21586000Y-8754000I50000J0D01*
G01*
X21586000Y-9004000D02*
G75*
G02*
X21486000Y-9004000I-50000J0D01*
G01*
X21486000Y-9004000D02*
G75*
G02*
X21586000Y-9004000I50000J0D01*
G01*
X21586000Y-9254000D02*
G75*
G02*
X21486000Y-9254000I-50000J0D01*
G01*
X21486000Y-9254000D02*
G75*
G02*
X21586000Y-9254000I50000J0D01*
G01*
D12*
X16900000Y-6745000D02*
X16900000Y-6855000D01*
X16845000Y-6800000D02*
X16955000Y-6800000D01*
X16940000Y-4895000D02*
X16940000Y-5005000D01*
X16885000Y-4950000D02*
X16995000Y-4950000D01*
X17154000Y-6745000D02*
X17154000Y-6855000D01*
X17099000Y-6800000D02*
X17209000Y-6800000D01*
X17170000Y-9595000D02*
X17170000Y-9705000D01*
X17115000Y-9650000D02*
X17225000Y-9650000D01*
X17400000Y-4895000D02*
X17400000Y-5005000D01*
X17345000Y-4950000D02*
X17455000Y-4950000D01*
X17408000Y-6745000D02*
X17408000Y-6855000D01*
X17353000Y-6800000D02*
X17463000Y-6800000D01*
X17630000Y-9595000D02*
X17630000Y-9705000D01*
X17575000Y-9650000D02*
X17685000Y-9650000D01*
X18090000Y-9595000D02*
X18090000Y-9705000D01*
X18035000Y-9650000D02*
X18145000Y-9650000D01*
X18092000Y-6745000D02*
X18092000Y-6855000D01*
X18037000Y-6800000D02*
X18147000Y-6800000D01*
X18346000Y-6745000D02*
X18346000Y-6855000D01*
X18291000Y-6800000D02*
X18401000Y-6800000D01*
X18550000Y-9595000D02*
X18550000Y-9705000D01*
X18495000Y-9650000D02*
X18605000Y-9650000D01*
X18600000Y-6745000D02*
X18600000Y-6855000D01*
X18545000Y-6800000D02*
X18655000Y-6800000D01*
X18890000Y-4895000D02*
X18890000Y-5005000D01*
X18835000Y-4950000D02*
X18945000Y-4950000D01*
X19350000Y-4895000D02*
X19350000Y-5005000D01*
X19295000Y-4950000D02*
X19405000Y-4950000D01*
X20140000Y-4895000D02*
X20140000Y-5005000D01*
X20085000Y-4950000D02*
X20195000Y-4950000D01*
X20600000Y-4895000D02*
X20600000Y-5005000D01*
X20545000Y-4950000D02*
X20655000Y-4950000D01*
X22100000Y-8085000D02*
X22100000Y-8195000D01*
X22045000Y-8140000D02*
X22155000Y-8140000D01*
X22100000Y-8545000D02*
X22100000Y-8655000D01*
X22045000Y-8600000D02*
X22155000Y-8600000D01*
X22100000Y-9005000D02*
X22100000Y-9115000D01*
X22045000Y-9060000D02*
X22155000Y-9060000D01*
X22100000Y-9465000D02*
X22100000Y-9575000D01*
X22045000Y-9520000D02*
X22155000Y-9520000D01*
D10*
X16628577Y-10503584D02*
X16628577Y-10303584D01*
X16628577Y-10303584D02*
X16676196Y-10303584D01*
X16676196Y-10303584D02*
X16704767Y-10313108D01*
X16704767Y-10313108D02*
X16723815Y-10332155D01*
X16723815Y-10332155D02*
X16733339Y-10351203D01*
X16733339Y-10351203D02*
X16742862Y-10389298D01*
X16742862Y-10389298D02*
X16742862Y-10417870D01*
X16742862Y-10417870D02*
X16733339Y-10455965D01*
X16733339Y-10455965D02*
X16723815Y-10475012D01*
X16723815Y-10475012D02*
X16704767Y-10494060D01*
X16704767Y-10494060D02*
X16676196Y-10503584D01*
X16676196Y-10503584D02*
X16628577Y-10503584D01*
X16828577Y-10503584D02*
X16828577Y-10370250D01*
X16828577Y-10408346D02*
X16838101Y-10389298D01*
X16838101Y-10389298D02*
X16847624Y-10379774D01*
X16847624Y-10379774D02*
X16866672Y-10370250D01*
X16866672Y-10370250D02*
X16885720Y-10370250D01*
X16952386Y-10503584D02*
X16952386Y-10370250D01*
X16952386Y-10303584D02*
X16942863Y-10313108D01*
X16942863Y-10313108D02*
X16952386Y-10322631D01*
X16952386Y-10322631D02*
X16961910Y-10313108D01*
X16961910Y-10313108D02*
X16952386Y-10303584D01*
X16952386Y-10303584D02*
X16952386Y-10322631D01*
X17076196Y-10503584D02*
X17057148Y-10494060D01*
X17057148Y-10494060D02*
X17047624Y-10475012D01*
X17047624Y-10475012D02*
X17047624Y-10303584D01*
X17180958Y-10503584D02*
X17161910Y-10494060D01*
X17161910Y-10494060D02*
X17152386Y-10475012D01*
X17152386Y-10475012D02*
X17152386Y-10303584D01*
X17409529Y-10503584D02*
X17409529Y-10303584D01*
X17409529Y-10303584D02*
X17476196Y-10446441D01*
X17476196Y-10446441D02*
X17542863Y-10303584D01*
X17542863Y-10303584D02*
X17542863Y-10503584D01*
X17723815Y-10503584D02*
X17723815Y-10398822D01*
X17723815Y-10398822D02*
X17714291Y-10379774D01*
X17714291Y-10379774D02*
X17695244Y-10370250D01*
X17695244Y-10370250D02*
X17657148Y-10370250D01*
X17657148Y-10370250D02*
X17638101Y-10379774D01*
X17723815Y-10494060D02*
X17704767Y-10503584D01*
X17704767Y-10503584D02*
X17657148Y-10503584D01*
X17657148Y-10503584D02*
X17638101Y-10494060D01*
X17638101Y-10494060D02*
X17628577Y-10475012D01*
X17628577Y-10475012D02*
X17628577Y-10455965D01*
X17628577Y-10455965D02*
X17638101Y-10436917D01*
X17638101Y-10436917D02*
X17657148Y-10427393D01*
X17657148Y-10427393D02*
X17704767Y-10427393D01*
X17704767Y-10427393D02*
X17723815Y-10417870D01*
X17819053Y-10370250D02*
X17819053Y-10570250D01*
X17819053Y-10379774D02*
X17838101Y-10370250D01*
X17838101Y-10370250D02*
X17876196Y-10370250D01*
X17876196Y-10370250D02*
X17895244Y-10379774D01*
X17895244Y-10379774D02*
X17904767Y-10389298D01*
X17904767Y-10389298D02*
X17914291Y-10408346D01*
X17914291Y-10408346D02*
X17914291Y-10465489D01*
X17914291Y-10465489D02*
X17904767Y-10484536D01*
X17904767Y-10484536D02*
X17895244Y-10494060D01*
X17895244Y-10494060D02*
X17876196Y-10503584D01*
X17876196Y-10503584D02*
X17838101Y-10503584D01*
X17838101Y-10503584D02*
X17819053Y-10494060D01*
X18000005Y-10484536D02*
X18009529Y-10494060D01*
X18009529Y-10494060D02*
X18000005Y-10503584D01*
X18000005Y-10503584D02*
X17990482Y-10494060D01*
X17990482Y-10494060D02*
X18000005Y-10484536D01*
X18000005Y-10484536D02*
X18000005Y-10503584D01*
X18000005Y-10379774D02*
X18009529Y-10389298D01*
X18009529Y-10389298D02*
X18000005Y-10398822D01*
X18000005Y-10398822D02*
X17990482Y-10389298D01*
X17990482Y-10389298D02*
X18000005Y-10379774D01*
X18000005Y-10379774D02*
X18000005Y-10398822D01*
D11*
X16287800Y-10792100D02*
X16367800Y-10872100D01*
X16367800Y-10792100D02*
X16287800Y-10872100D01*
D10*
X16666672Y-10723584D02*
X16685720Y-10723584D01*
X16685720Y-10723584D02*
X16704767Y-10733108D01*
X16704767Y-10733108D02*
X16714291Y-10742631D01*
X16714291Y-10742631D02*
X16723815Y-10761679D01*
X16723815Y-10761679D02*
X16733339Y-10799774D01*
X16733339Y-10799774D02*
X16733339Y-10847393D01*
X16733339Y-10847393D02*
X16723815Y-10885489D01*
X16723815Y-10885489D02*
X16714291Y-10904536D01*
X16714291Y-10904536D02*
X16704767Y-10914060D01*
X16704767Y-10914060D02*
X16685720Y-10923584D01*
X16685720Y-10923584D02*
X16666672Y-10923584D01*
X16666672Y-10923584D02*
X16647624Y-10914060D01*
X16647624Y-10914060D02*
X16638101Y-10904536D01*
X16638101Y-10904536D02*
X16628577Y-10885489D01*
X16628577Y-10885489D02*
X16619053Y-10847393D01*
X16619053Y-10847393D02*
X16619053Y-10799774D01*
X16619053Y-10799774D02*
X16628577Y-10761679D01*
X16628577Y-10761679D02*
X16638101Y-10742631D01*
X16638101Y-10742631D02*
X16647624Y-10733108D01*
X16647624Y-10733108D02*
X16666672Y-10723584D01*
X16819053Y-10904536D02*
X16828577Y-10914060D01*
X16828577Y-10914060D02*
X16819053Y-10923584D01*
X16819053Y-10923584D02*
X16809529Y-10914060D01*
X16809529Y-10914060D02*
X16819053Y-10904536D01*
X16819053Y-10904536D02*
X16819053Y-10923584D01*
X16942863Y-10809298D02*
X16923815Y-10799774D01*
X16923815Y-10799774D02*
X16914291Y-10790250D01*
X16914291Y-10790250D02*
X16904767Y-10771203D01*
X16904767Y-10771203D02*
X16904767Y-10761679D01*
X16904767Y-10761679D02*
X16914291Y-10742631D01*
X16914291Y-10742631D02*
X16923815Y-10733108D01*
X16923815Y-10733108D02*
X16942863Y-10723584D01*
X16942863Y-10723584D02*
X16980958Y-10723584D01*
X16980958Y-10723584D02*
X17000005Y-10733108D01*
X17000005Y-10733108D02*
X17009529Y-10742631D01*
X17009529Y-10742631D02*
X17019053Y-10761679D01*
X17019053Y-10761679D02*
X17019053Y-10771203D01*
X17019053Y-10771203D02*
X17009529Y-10790250D01*
X17009529Y-10790250D02*
X17000005Y-10799774D01*
X17000005Y-10799774D02*
X16980958Y-10809298D01*
X16980958Y-10809298D02*
X16942863Y-10809298D01*
X16942863Y-10809298D02*
X16923815Y-10818822D01*
X16923815Y-10818822D02*
X16914291Y-10828346D01*
X16914291Y-10828346D02*
X16904767Y-10847393D01*
X16904767Y-10847393D02*
X16904767Y-10885489D01*
X16904767Y-10885489D02*
X16914291Y-10904536D01*
X16914291Y-10904536D02*
X16923815Y-10914060D01*
X16923815Y-10914060D02*
X16942863Y-10923584D01*
X16942863Y-10923584D02*
X16980958Y-10923584D01*
X16980958Y-10923584D02*
X17000005Y-10914060D01*
X17000005Y-10914060D02*
X17009529Y-10904536D01*
X17009529Y-10904536D02*
X17019053Y-10885489D01*
X17019053Y-10885489D02*
X17019053Y-10847393D01*
X17019053Y-10847393D02*
X17009529Y-10828346D01*
X17009529Y-10828346D02*
X17000005Y-10818822D01*
X17000005Y-10818822D02*
X16980958Y-10809298D01*
X17142863Y-10723584D02*
X17161910Y-10723584D01*
X17161910Y-10723584D02*
X17180958Y-10733108D01*
X17180958Y-10733108D02*
X17190482Y-10742631D01*
X17190482Y-10742631D02*
X17200005Y-10761679D01*
X17200005Y-10761679D02*
X17209529Y-10799774D01*
X17209529Y-10799774D02*
X17209529Y-10847393D01*
X17209529Y-10847393D02*
X17200005Y-10885489D01*
X17200005Y-10885489D02*
X17190482Y-10904536D01*
X17190482Y-10904536D02*
X17180958Y-10914060D01*
X17180958Y-10914060D02*
X17161910Y-10923584D01*
X17161910Y-10923584D02*
X17142863Y-10923584D01*
X17142863Y-10923584D02*
X17123815Y-10914060D01*
X17123815Y-10914060D02*
X17114291Y-10904536D01*
X17114291Y-10904536D02*
X17104767Y-10885489D01*
X17104767Y-10885489D02*
X17095244Y-10847393D01*
X17095244Y-10847393D02*
X17095244Y-10799774D01*
X17095244Y-10799774D02*
X17104767Y-10761679D01*
X17104767Y-10761679D02*
X17114291Y-10742631D01*
X17114291Y-10742631D02*
X17123815Y-10733108D01*
X17123815Y-10733108D02*
X17142863Y-10723584D01*
X17333339Y-10723584D02*
X17352386Y-10723584D01*
X17352386Y-10723584D02*
X17371434Y-10733108D01*
X17371434Y-10733108D02*
X17380958Y-10742631D01*
X17380958Y-10742631D02*
X17390482Y-10761679D01*
X17390482Y-10761679D02*
X17400005Y-10799774D01*
X17400005Y-10799774D02*
X17400005Y-10847393D01*
X17400005Y-10847393D02*
X17390482Y-10885489D01*
X17390482Y-10885489D02*
X17380958Y-10904536D01*
X17380958Y-10904536D02*
X17371434Y-10914060D01*
X17371434Y-10914060D02*
X17352386Y-10923584D01*
X17352386Y-10923584D02*
X17333339Y-10923584D01*
X17333339Y-10923584D02*
X17314291Y-10914060D01*
X17314291Y-10914060D02*
X17304767Y-10904536D01*
X17304767Y-10904536D02*
X17295244Y-10885489D01*
X17295244Y-10885489D02*
X17285720Y-10847393D01*
X17285720Y-10847393D02*
X17285720Y-10799774D01*
X17285720Y-10799774D02*
X17295244Y-10761679D01*
X17295244Y-10761679D02*
X17304767Y-10742631D01*
X17304767Y-10742631D02*
X17314291Y-10733108D01*
X17314291Y-10733108D02*
X17333339Y-10723584D01*
X17485720Y-10923584D02*
X17485720Y-10790250D01*
X17485720Y-10809298D02*
X17495244Y-10799774D01*
X17495244Y-10799774D02*
X17514291Y-10790250D01*
X17514291Y-10790250D02*
X17542863Y-10790250D01*
X17542863Y-10790250D02*
X17561910Y-10799774D01*
X17561910Y-10799774D02*
X17571434Y-10818822D01*
X17571434Y-10818822D02*
X17571434Y-10923584D01*
X17571434Y-10818822D02*
X17580958Y-10799774D01*
X17580958Y-10799774D02*
X17600005Y-10790250D01*
X17600005Y-10790250D02*
X17628577Y-10790250D01*
X17628577Y-10790250D02*
X17647625Y-10799774D01*
X17647625Y-10799774D02*
X17657148Y-10818822D01*
X17657148Y-10818822D02*
X17657148Y-10923584D01*
X17752386Y-10923584D02*
X17752386Y-10790250D01*
X17752386Y-10809298D02*
X17761910Y-10799774D01*
X17761910Y-10799774D02*
X17780958Y-10790250D01*
X17780958Y-10790250D02*
X17809529Y-10790250D01*
X17809529Y-10790250D02*
X17828577Y-10799774D01*
X17828577Y-10799774D02*
X17838101Y-10818822D01*
X17838101Y-10818822D02*
X17838101Y-10923584D01*
X17838101Y-10818822D02*
X17847625Y-10799774D01*
X17847625Y-10799774D02*
X17866672Y-10790250D01*
X17866672Y-10790250D02*
X17895244Y-10790250D01*
X17895244Y-10790250D02*
X17914291Y-10799774D01*
X17914291Y-10799774D02*
X17923815Y-10818822D01*
X17923815Y-10818822D02*
X17923815Y-10923584D01*
X18314291Y-10714060D02*
X18142863Y-10971203D01*
X18571434Y-10723584D02*
X18590482Y-10723584D01*
X18590482Y-10723584D02*
X18609529Y-10733108D01*
X18609529Y-10733108D02*
X18619053Y-10742631D01*
X18619053Y-10742631D02*
X18628577Y-10761679D01*
X18628577Y-10761679D02*
X18638101Y-10799774D01*
X18638101Y-10799774D02*
X18638101Y-10847393D01*
X18638101Y-10847393D02*
X18628577Y-10885489D01*
X18628577Y-10885489D02*
X18619053Y-10904536D01*
X18619053Y-10904536D02*
X18609529Y-10914060D01*
X18609529Y-10914060D02*
X18590482Y-10923584D01*
X18590482Y-10923584D02*
X18571434Y-10923584D01*
X18571434Y-10923584D02*
X18552387Y-10914060D01*
X18552387Y-10914060D02*
X18542863Y-10904536D01*
X18542863Y-10904536D02*
X18533339Y-10885489D01*
X18533339Y-10885489D02*
X18523815Y-10847393D01*
X18523815Y-10847393D02*
X18523815Y-10799774D01*
X18523815Y-10799774D02*
X18533339Y-10761679D01*
X18533339Y-10761679D02*
X18542863Y-10742631D01*
X18542863Y-10742631D02*
X18552387Y-10733108D01*
X18552387Y-10733108D02*
X18571434Y-10723584D01*
X18723815Y-10904536D02*
X18733339Y-10914060D01*
X18733339Y-10914060D02*
X18723815Y-10923584D01*
X18723815Y-10923584D02*
X18714291Y-10914060D01*
X18714291Y-10914060D02*
X18723815Y-10904536D01*
X18723815Y-10904536D02*
X18723815Y-10923584D01*
X18857148Y-10723584D02*
X18876196Y-10723584D01*
X18876196Y-10723584D02*
X18895244Y-10733108D01*
X18895244Y-10733108D02*
X18904768Y-10742631D01*
X18904768Y-10742631D02*
X18914291Y-10761679D01*
X18914291Y-10761679D02*
X18923815Y-10799774D01*
X18923815Y-10799774D02*
X18923815Y-10847393D01*
X18923815Y-10847393D02*
X18914291Y-10885489D01*
X18914291Y-10885489D02*
X18904768Y-10904536D01*
X18904768Y-10904536D02*
X18895244Y-10914060D01*
X18895244Y-10914060D02*
X18876196Y-10923584D01*
X18876196Y-10923584D02*
X18857148Y-10923584D01*
X18857148Y-10923584D02*
X18838101Y-10914060D01*
X18838101Y-10914060D02*
X18828577Y-10904536D01*
X18828577Y-10904536D02*
X18819053Y-10885489D01*
X18819053Y-10885489D02*
X18809529Y-10847393D01*
X18809529Y-10847393D02*
X18809529Y-10799774D01*
X18809529Y-10799774D02*
X18819053Y-10761679D01*
X18819053Y-10761679D02*
X18828577Y-10742631D01*
X18828577Y-10742631D02*
X18838101Y-10733108D01*
X18838101Y-10733108D02*
X18857148Y-10723584D01*
X18990482Y-10723584D02*
X19114291Y-10723584D01*
X19114291Y-10723584D02*
X19047625Y-10799774D01*
X19047625Y-10799774D02*
X19076196Y-10799774D01*
X19076196Y-10799774D02*
X19095244Y-10809298D01*
X19095244Y-10809298D02*
X19104768Y-10818822D01*
X19104768Y-10818822D02*
X19114291Y-10837870D01*
X19114291Y-10837870D02*
X19114291Y-10885489D01*
X19114291Y-10885489D02*
X19104768Y-10904536D01*
X19104768Y-10904536D02*
X19095244Y-10914060D01*
X19095244Y-10914060D02*
X19076196Y-10923584D01*
X19076196Y-10923584D02*
X19019053Y-10923584D01*
X19019053Y-10923584D02*
X19000006Y-10914060D01*
X19000006Y-10914060D02*
X18990482Y-10904536D01*
X19304768Y-10923584D02*
X19190482Y-10923584D01*
X19247625Y-10923584D02*
X19247625Y-10723584D01*
X19247625Y-10723584D02*
X19228577Y-10752155D01*
X19228577Y-10752155D02*
X19209529Y-10771203D01*
X19209529Y-10771203D02*
X19190482Y-10780727D01*
X19485720Y-10723584D02*
X19390482Y-10723584D01*
X19390482Y-10723584D02*
X19380958Y-10818822D01*
X19380958Y-10818822D02*
X19390482Y-10809298D01*
X19390482Y-10809298D02*
X19409529Y-10799774D01*
X19409529Y-10799774D02*
X19457149Y-10799774D01*
X19457149Y-10799774D02*
X19476196Y-10809298D01*
X19476196Y-10809298D02*
X19485720Y-10818822D01*
X19485720Y-10818822D02*
X19495244Y-10837870D01*
X19495244Y-10837870D02*
X19495244Y-10885489D01*
X19495244Y-10885489D02*
X19485720Y-10904536D01*
X19485720Y-10904536D02*
X19476196Y-10914060D01*
X19476196Y-10914060D02*
X19457149Y-10923584D01*
X19457149Y-10923584D02*
X19409529Y-10923584D01*
X19409529Y-10923584D02*
X19390482Y-10914060D01*
X19390482Y-10914060D02*
X19380958Y-10904536D01*
X19571434Y-10723584D02*
X19571434Y-10761679D01*
X19647625Y-10723584D02*
X19647625Y-10761679D01*
X19942863Y-10999774D02*
X19933339Y-10990250D01*
X19933339Y-10990250D02*
X19914291Y-10961679D01*
X19914291Y-10961679D02*
X19904768Y-10942631D01*
X19904768Y-10942631D02*
X19895244Y-10914060D01*
X19895244Y-10914060D02*
X19885720Y-10866441D01*
X19885720Y-10866441D02*
X19885720Y-10828346D01*
X19885720Y-10828346D02*
X19895244Y-10780727D01*
X19895244Y-10780727D02*
X19904768Y-10752155D01*
X19904768Y-10752155D02*
X19914291Y-10733108D01*
X19914291Y-10733108D02*
X19933339Y-10704536D01*
X19933339Y-10704536D02*
X19942863Y-10695012D01*
X20123815Y-10923584D02*
X20009530Y-10923584D01*
X20066672Y-10923584D02*
X20066672Y-10723584D01*
X20066672Y-10723584D02*
X20047625Y-10752155D01*
X20047625Y-10752155D02*
X20028577Y-10771203D01*
X20028577Y-10771203D02*
X20009530Y-10780727D01*
X20200006Y-10742631D02*
X20209530Y-10733108D01*
X20209530Y-10733108D02*
X20228577Y-10723584D01*
X20228577Y-10723584D02*
X20276196Y-10723584D01*
X20276196Y-10723584D02*
X20295244Y-10733108D01*
X20295244Y-10733108D02*
X20304768Y-10742631D01*
X20304768Y-10742631D02*
X20314291Y-10761679D01*
X20314291Y-10761679D02*
X20314291Y-10780727D01*
X20314291Y-10780727D02*
X20304768Y-10809298D01*
X20304768Y-10809298D02*
X20190482Y-10923584D01*
X20190482Y-10923584D02*
X20314291Y-10923584D01*
X20552387Y-10923584D02*
X20552387Y-10723584D01*
X20638101Y-10923584D02*
X20638101Y-10818822D01*
X20638101Y-10818822D02*
X20628577Y-10799774D01*
X20628577Y-10799774D02*
X20609530Y-10790250D01*
X20609530Y-10790250D02*
X20580958Y-10790250D01*
X20580958Y-10790250D02*
X20561911Y-10799774D01*
X20561911Y-10799774D02*
X20552387Y-10809298D01*
X20761911Y-10923584D02*
X20742863Y-10914060D01*
X20742863Y-10914060D02*
X20733339Y-10904536D01*
X20733339Y-10904536D02*
X20723815Y-10885489D01*
X20723815Y-10885489D02*
X20723815Y-10828346D01*
X20723815Y-10828346D02*
X20733339Y-10809298D01*
X20733339Y-10809298D02*
X20742863Y-10799774D01*
X20742863Y-10799774D02*
X20761911Y-10790250D01*
X20761911Y-10790250D02*
X20790482Y-10790250D01*
X20790482Y-10790250D02*
X20809530Y-10799774D01*
X20809530Y-10799774D02*
X20819053Y-10809298D01*
X20819053Y-10809298D02*
X20828577Y-10828346D01*
X20828577Y-10828346D02*
X20828577Y-10885489D01*
X20828577Y-10885489D02*
X20819053Y-10904536D01*
X20819053Y-10904536D02*
X20809530Y-10914060D01*
X20809530Y-10914060D02*
X20790482Y-10923584D01*
X20790482Y-10923584D02*
X20761911Y-10923584D01*
X20942863Y-10923584D02*
X20923815Y-10914060D01*
X20923815Y-10914060D02*
X20914292Y-10895012D01*
X20914292Y-10895012D02*
X20914292Y-10723584D01*
X21095244Y-10914060D02*
X21076196Y-10923584D01*
X21076196Y-10923584D02*
X21038101Y-10923584D01*
X21038101Y-10923584D02*
X21019053Y-10914060D01*
X21019053Y-10914060D02*
X21009530Y-10895012D01*
X21009530Y-10895012D02*
X21009530Y-10818822D01*
X21009530Y-10818822D02*
X21019053Y-10799774D01*
X21019053Y-10799774D02*
X21038101Y-10790250D01*
X21038101Y-10790250D02*
X21076196Y-10790250D01*
X21076196Y-10790250D02*
X21095244Y-10799774D01*
X21095244Y-10799774D02*
X21104768Y-10818822D01*
X21104768Y-10818822D02*
X21104768Y-10837870D01*
X21104768Y-10837870D02*
X21009530Y-10856917D01*
X21180958Y-10914060D02*
X21200006Y-10923584D01*
X21200006Y-10923584D02*
X21238101Y-10923584D01*
X21238101Y-10923584D02*
X21257149Y-10914060D01*
X21257149Y-10914060D02*
X21266673Y-10895012D01*
X21266673Y-10895012D02*
X21266673Y-10885489D01*
X21266673Y-10885489D02*
X21257149Y-10866441D01*
X21257149Y-10866441D02*
X21238101Y-10856917D01*
X21238101Y-10856917D02*
X21209530Y-10856917D01*
X21209530Y-10856917D02*
X21190482Y-10847393D01*
X21190482Y-10847393D02*
X21180958Y-10828346D01*
X21180958Y-10828346D02*
X21180958Y-10818822D01*
X21180958Y-10818822D02*
X21190482Y-10799774D01*
X21190482Y-10799774D02*
X21209530Y-10790250D01*
X21209530Y-10790250D02*
X21238101Y-10790250D01*
X21238101Y-10790250D02*
X21257149Y-10799774D01*
X21333339Y-10999774D02*
X21342863Y-10990250D01*
X21342863Y-10990250D02*
X21361911Y-10961679D01*
X21361911Y-10961679D02*
X21371434Y-10942631D01*
X21371434Y-10942631D02*
X21380958Y-10914060D01*
X21380958Y-10914060D02*
X21390482Y-10866441D01*
X21390482Y-10866441D02*
X21390482Y-10828346D01*
X21390482Y-10828346D02*
X21380958Y-10780727D01*
X21380958Y-10780727D02*
X21371434Y-10752155D01*
X21371434Y-10752155D02*
X21361911Y-10733108D01*
X21361911Y-10733108D02*
X21342863Y-10704536D01*
X21342863Y-10704536D02*
X21333339Y-10695012D01*
D11*
X16367800Y-11096100D02*
G75*
G02*
X16267800Y-11096100I-50000J0D01*
G01*
X16267800Y-11096100D02*
G75*
G02*
X16367800Y-11096100I50000J0D01*
G01*
D10*
X16733339Y-11187584D02*
X16619053Y-11187584D01*
X16676196Y-11187584D02*
X16676196Y-10987584D01*
X16676196Y-10987584D02*
X16657148Y-11016155D01*
X16657148Y-11016155D02*
X16638101Y-11035203D01*
X16638101Y-11035203D02*
X16619053Y-11044727D01*
X16819053Y-11168536D02*
X16828577Y-11178060D01*
X16828577Y-11178060D02*
X16819053Y-11187584D01*
X16819053Y-11187584D02*
X16809529Y-11178060D01*
X16809529Y-11178060D02*
X16819053Y-11168536D01*
X16819053Y-11168536D02*
X16819053Y-11187584D01*
X16952386Y-10987584D02*
X16971434Y-10987584D01*
X16971434Y-10987584D02*
X16990482Y-10997108D01*
X16990482Y-10997108D02*
X17000005Y-11006631D01*
X17000005Y-11006631D02*
X17009529Y-11025679D01*
X17009529Y-11025679D02*
X17019053Y-11063774D01*
X17019053Y-11063774D02*
X17019053Y-11111393D01*
X17019053Y-11111393D02*
X17009529Y-11149489D01*
X17009529Y-11149489D02*
X17000005Y-11168536D01*
X17000005Y-11168536D02*
X16990482Y-11178060D01*
X16990482Y-11178060D02*
X16971434Y-11187584D01*
X16971434Y-11187584D02*
X16952386Y-11187584D01*
X16952386Y-11187584D02*
X16933339Y-11178060D01*
X16933339Y-11178060D02*
X16923815Y-11168536D01*
X16923815Y-11168536D02*
X16914291Y-11149489D01*
X16914291Y-11149489D02*
X16904767Y-11111393D01*
X16904767Y-11111393D02*
X16904767Y-11063774D01*
X16904767Y-11063774D02*
X16914291Y-11025679D01*
X16914291Y-11025679D02*
X16923815Y-11006631D01*
X16923815Y-11006631D02*
X16933339Y-10997108D01*
X16933339Y-10997108D02*
X16952386Y-10987584D01*
X17142863Y-10987584D02*
X17161910Y-10987584D01*
X17161910Y-10987584D02*
X17180958Y-10997108D01*
X17180958Y-10997108D02*
X17190482Y-11006631D01*
X17190482Y-11006631D02*
X17200005Y-11025679D01*
X17200005Y-11025679D02*
X17209529Y-11063774D01*
X17209529Y-11063774D02*
X17209529Y-11111393D01*
X17209529Y-11111393D02*
X17200005Y-11149489D01*
X17200005Y-11149489D02*
X17190482Y-11168536D01*
X17190482Y-11168536D02*
X17180958Y-11178060D01*
X17180958Y-11178060D02*
X17161910Y-11187584D01*
X17161910Y-11187584D02*
X17142863Y-11187584D01*
X17142863Y-11187584D02*
X17123815Y-11178060D01*
X17123815Y-11178060D02*
X17114291Y-11168536D01*
X17114291Y-11168536D02*
X17104767Y-11149489D01*
X17104767Y-11149489D02*
X17095244Y-11111393D01*
X17095244Y-11111393D02*
X17095244Y-11063774D01*
X17095244Y-11063774D02*
X17104767Y-11025679D01*
X17104767Y-11025679D02*
X17114291Y-11006631D01*
X17114291Y-11006631D02*
X17123815Y-10997108D01*
X17123815Y-10997108D02*
X17142863Y-10987584D01*
X17333339Y-10987584D02*
X17352386Y-10987584D01*
X17352386Y-10987584D02*
X17371434Y-10997108D01*
X17371434Y-10997108D02*
X17380958Y-11006631D01*
X17380958Y-11006631D02*
X17390482Y-11025679D01*
X17390482Y-11025679D02*
X17400005Y-11063774D01*
X17400005Y-11063774D02*
X17400005Y-11111393D01*
X17400005Y-11111393D02*
X17390482Y-11149489D01*
X17390482Y-11149489D02*
X17380958Y-11168536D01*
X17380958Y-11168536D02*
X17371434Y-11178060D01*
X17371434Y-11178060D02*
X17352386Y-11187584D01*
X17352386Y-11187584D02*
X17333339Y-11187584D01*
X17333339Y-11187584D02*
X17314291Y-11178060D01*
X17314291Y-11178060D02*
X17304767Y-11168536D01*
X17304767Y-11168536D02*
X17295244Y-11149489D01*
X17295244Y-11149489D02*
X17285720Y-11111393D01*
X17285720Y-11111393D02*
X17285720Y-11063774D01*
X17285720Y-11063774D02*
X17295244Y-11025679D01*
X17295244Y-11025679D02*
X17304767Y-11006631D01*
X17304767Y-11006631D02*
X17314291Y-10997108D01*
X17314291Y-10997108D02*
X17333339Y-10987584D01*
X17485720Y-11187584D02*
X17485720Y-11054250D01*
X17485720Y-11073298D02*
X17495244Y-11063774D01*
X17495244Y-11063774D02*
X17514291Y-11054250D01*
X17514291Y-11054250D02*
X17542863Y-11054250D01*
X17542863Y-11054250D02*
X17561910Y-11063774D01*
X17561910Y-11063774D02*
X17571434Y-11082822D01*
X17571434Y-11082822D02*
X17571434Y-11187584D01*
X17571434Y-11082822D02*
X17580958Y-11063774D01*
X17580958Y-11063774D02*
X17600005Y-11054250D01*
X17600005Y-11054250D02*
X17628577Y-11054250D01*
X17628577Y-11054250D02*
X17647625Y-11063774D01*
X17647625Y-11063774D02*
X17657148Y-11082822D01*
X17657148Y-11082822D02*
X17657148Y-11187584D01*
X17752386Y-11187584D02*
X17752386Y-11054250D01*
X17752386Y-11073298D02*
X17761910Y-11063774D01*
X17761910Y-11063774D02*
X17780958Y-11054250D01*
X17780958Y-11054250D02*
X17809529Y-11054250D01*
X17809529Y-11054250D02*
X17828577Y-11063774D01*
X17828577Y-11063774D02*
X17838101Y-11082822D01*
X17838101Y-11082822D02*
X17838101Y-11187584D01*
X17838101Y-11082822D02*
X17847625Y-11063774D01*
X17847625Y-11063774D02*
X17866672Y-11054250D01*
X17866672Y-11054250D02*
X17895244Y-11054250D01*
X17895244Y-11054250D02*
X17914291Y-11063774D01*
X17914291Y-11063774D02*
X17923815Y-11082822D01*
X17923815Y-11082822D02*
X17923815Y-11187584D01*
X18314291Y-10978060D02*
X18142863Y-11235203D01*
X18571434Y-10987584D02*
X18590482Y-10987584D01*
X18590482Y-10987584D02*
X18609529Y-10997108D01*
X18609529Y-10997108D02*
X18619053Y-11006631D01*
X18619053Y-11006631D02*
X18628577Y-11025679D01*
X18628577Y-11025679D02*
X18638101Y-11063774D01*
X18638101Y-11063774D02*
X18638101Y-11111393D01*
X18638101Y-11111393D02*
X18628577Y-11149489D01*
X18628577Y-11149489D02*
X18619053Y-11168536D01*
X18619053Y-11168536D02*
X18609529Y-11178060D01*
X18609529Y-11178060D02*
X18590482Y-11187584D01*
X18590482Y-11187584D02*
X18571434Y-11187584D01*
X18571434Y-11187584D02*
X18552387Y-11178060D01*
X18552387Y-11178060D02*
X18542863Y-11168536D01*
X18542863Y-11168536D02*
X18533339Y-11149489D01*
X18533339Y-11149489D02*
X18523815Y-11111393D01*
X18523815Y-11111393D02*
X18523815Y-11063774D01*
X18523815Y-11063774D02*
X18533339Y-11025679D01*
X18533339Y-11025679D02*
X18542863Y-11006631D01*
X18542863Y-11006631D02*
X18552387Y-10997108D01*
X18552387Y-10997108D02*
X18571434Y-10987584D01*
X18723815Y-11168536D02*
X18733339Y-11178060D01*
X18733339Y-11178060D02*
X18723815Y-11187584D01*
X18723815Y-11187584D02*
X18714291Y-11178060D01*
X18714291Y-11178060D02*
X18723815Y-11168536D01*
X18723815Y-11168536D02*
X18723815Y-11187584D01*
X18857148Y-10987584D02*
X18876196Y-10987584D01*
X18876196Y-10987584D02*
X18895244Y-10997108D01*
X18895244Y-10997108D02*
X18904768Y-11006631D01*
X18904768Y-11006631D02*
X18914291Y-11025679D01*
X18914291Y-11025679D02*
X18923815Y-11063774D01*
X18923815Y-11063774D02*
X18923815Y-11111393D01*
X18923815Y-11111393D02*
X18914291Y-11149489D01*
X18914291Y-11149489D02*
X18904768Y-11168536D01*
X18904768Y-11168536D02*
X18895244Y-11178060D01*
X18895244Y-11178060D02*
X18876196Y-11187584D01*
X18876196Y-11187584D02*
X18857148Y-11187584D01*
X18857148Y-11187584D02*
X18838101Y-11178060D01*
X18838101Y-11178060D02*
X18828577Y-11168536D01*
X18828577Y-11168536D02*
X18819053Y-11149489D01*
X18819053Y-11149489D02*
X18809529Y-11111393D01*
X18809529Y-11111393D02*
X18809529Y-11063774D01*
X18809529Y-11063774D02*
X18819053Y-11025679D01*
X18819053Y-11025679D02*
X18828577Y-11006631D01*
X18828577Y-11006631D02*
X18838101Y-10997108D01*
X18838101Y-10997108D02*
X18857148Y-10987584D01*
X18990482Y-10987584D02*
X19114291Y-10987584D01*
X19114291Y-10987584D02*
X19047625Y-11063774D01*
X19047625Y-11063774D02*
X19076196Y-11063774D01*
X19076196Y-11063774D02*
X19095244Y-11073298D01*
X19095244Y-11073298D02*
X19104768Y-11082822D01*
X19104768Y-11082822D02*
X19114291Y-11101870D01*
X19114291Y-11101870D02*
X19114291Y-11149489D01*
X19114291Y-11149489D02*
X19104768Y-11168536D01*
X19104768Y-11168536D02*
X19095244Y-11178060D01*
X19095244Y-11178060D02*
X19076196Y-11187584D01*
X19076196Y-11187584D02*
X19019053Y-11187584D01*
X19019053Y-11187584D02*
X19000006Y-11178060D01*
X19000006Y-11178060D02*
X18990482Y-11168536D01*
X19209529Y-11187584D02*
X19247625Y-11187584D01*
X19247625Y-11187584D02*
X19266672Y-11178060D01*
X19266672Y-11178060D02*
X19276196Y-11168536D01*
X19276196Y-11168536D02*
X19295244Y-11139965D01*
X19295244Y-11139965D02*
X19304768Y-11101870D01*
X19304768Y-11101870D02*
X19304768Y-11025679D01*
X19304768Y-11025679D02*
X19295244Y-11006631D01*
X19295244Y-11006631D02*
X19285720Y-10997108D01*
X19285720Y-10997108D02*
X19266672Y-10987584D01*
X19266672Y-10987584D02*
X19228577Y-10987584D01*
X19228577Y-10987584D02*
X19209529Y-10997108D01*
X19209529Y-10997108D02*
X19200006Y-11006631D01*
X19200006Y-11006631D02*
X19190482Y-11025679D01*
X19190482Y-11025679D02*
X19190482Y-11073298D01*
X19190482Y-11073298D02*
X19200006Y-11092346D01*
X19200006Y-11092346D02*
X19209529Y-11101870D01*
X19209529Y-11101870D02*
X19228577Y-11111393D01*
X19228577Y-11111393D02*
X19266672Y-11111393D01*
X19266672Y-11111393D02*
X19285720Y-11101870D01*
X19285720Y-11101870D02*
X19295244Y-11092346D01*
X19295244Y-11092346D02*
X19304768Y-11073298D01*
X19476196Y-11054250D02*
X19476196Y-11187584D01*
X19428577Y-10978060D02*
X19380958Y-11120917D01*
X19380958Y-11120917D02*
X19504768Y-11120917D01*
X19571434Y-10987584D02*
X19571434Y-11025679D01*
X19647625Y-10987584D02*
X19647625Y-11025679D01*
X19942863Y-11263774D02*
X19933339Y-11254250D01*
X19933339Y-11254250D02*
X19914291Y-11225679D01*
X19914291Y-11225679D02*
X19904768Y-11206631D01*
X19904768Y-11206631D02*
X19895244Y-11178060D01*
X19895244Y-11178060D02*
X19885720Y-11130441D01*
X19885720Y-11130441D02*
X19885720Y-11092346D01*
X19885720Y-11092346D02*
X19895244Y-11044727D01*
X19895244Y-11044727D02*
X19904768Y-11016155D01*
X19904768Y-11016155D02*
X19914291Y-10997108D01*
X19914291Y-10997108D02*
X19933339Y-10968536D01*
X19933339Y-10968536D02*
X19942863Y-10959012D01*
X20123815Y-11187584D02*
X20009530Y-11187584D01*
X20066672Y-11187584D02*
X20066672Y-10987584D01*
X20066672Y-10987584D02*
X20047625Y-11016155D01*
X20047625Y-11016155D02*
X20028577Y-11035203D01*
X20028577Y-11035203D02*
X20009530Y-11044727D01*
X20295244Y-10987584D02*
X20257149Y-10987584D01*
X20257149Y-10987584D02*
X20238101Y-10997108D01*
X20238101Y-10997108D02*
X20228577Y-11006631D01*
X20228577Y-11006631D02*
X20209530Y-11035203D01*
X20209530Y-11035203D02*
X20200006Y-11073298D01*
X20200006Y-11073298D02*
X20200006Y-11149489D01*
X20200006Y-11149489D02*
X20209530Y-11168536D01*
X20209530Y-11168536D02*
X20219053Y-11178060D01*
X20219053Y-11178060D02*
X20238101Y-11187584D01*
X20238101Y-11187584D02*
X20276196Y-11187584D01*
X20276196Y-11187584D02*
X20295244Y-11178060D01*
X20295244Y-11178060D02*
X20304768Y-11168536D01*
X20304768Y-11168536D02*
X20314291Y-11149489D01*
X20314291Y-11149489D02*
X20314291Y-11101870D01*
X20314291Y-11101870D02*
X20304768Y-11082822D01*
X20304768Y-11082822D02*
X20295244Y-11073298D01*
X20295244Y-11073298D02*
X20276196Y-11063774D01*
X20276196Y-11063774D02*
X20238101Y-11063774D01*
X20238101Y-11063774D02*
X20219053Y-11073298D01*
X20219053Y-11073298D02*
X20209530Y-11082822D01*
X20209530Y-11082822D02*
X20200006Y-11101870D01*
X20552387Y-11187584D02*
X20552387Y-10987584D01*
X20638101Y-11187584D02*
X20638101Y-11082822D01*
X20638101Y-11082822D02*
X20628577Y-11063774D01*
X20628577Y-11063774D02*
X20609530Y-11054250D01*
X20609530Y-11054250D02*
X20580958Y-11054250D01*
X20580958Y-11054250D02*
X20561911Y-11063774D01*
X20561911Y-11063774D02*
X20552387Y-11073298D01*
X20761911Y-11187584D02*
X20742863Y-11178060D01*
X20742863Y-11178060D02*
X20733339Y-11168536D01*
X20733339Y-11168536D02*
X20723815Y-11149489D01*
X20723815Y-11149489D02*
X20723815Y-11092346D01*
X20723815Y-11092346D02*
X20733339Y-11073298D01*
X20733339Y-11073298D02*
X20742863Y-11063774D01*
X20742863Y-11063774D02*
X20761911Y-11054250D01*
X20761911Y-11054250D02*
X20790482Y-11054250D01*
X20790482Y-11054250D02*
X20809530Y-11063774D01*
X20809530Y-11063774D02*
X20819053Y-11073298D01*
X20819053Y-11073298D02*
X20828577Y-11092346D01*
X20828577Y-11092346D02*
X20828577Y-11149489D01*
X20828577Y-11149489D02*
X20819053Y-11168536D01*
X20819053Y-11168536D02*
X20809530Y-11178060D01*
X20809530Y-11178060D02*
X20790482Y-11187584D01*
X20790482Y-11187584D02*
X20761911Y-11187584D01*
X20942863Y-11187584D02*
X20923815Y-11178060D01*
X20923815Y-11178060D02*
X20914292Y-11159012D01*
X20914292Y-11159012D02*
X20914292Y-10987584D01*
X21095244Y-11178060D02*
X21076196Y-11187584D01*
X21076196Y-11187584D02*
X21038101Y-11187584D01*
X21038101Y-11187584D02*
X21019053Y-11178060D01*
X21019053Y-11178060D02*
X21009530Y-11159012D01*
X21009530Y-11159012D02*
X21009530Y-11082822D01*
X21009530Y-11082822D02*
X21019053Y-11063774D01*
X21019053Y-11063774D02*
X21038101Y-11054250D01*
X21038101Y-11054250D02*
X21076196Y-11054250D01*
X21076196Y-11054250D02*
X21095244Y-11063774D01*
X21095244Y-11063774D02*
X21104768Y-11082822D01*
X21104768Y-11082822D02*
X21104768Y-11101870D01*
X21104768Y-11101870D02*
X21009530Y-11120917D01*
X21180958Y-11178060D02*
X21200006Y-11187584D01*
X21200006Y-11187584D02*
X21238101Y-11187584D01*
X21238101Y-11187584D02*
X21257149Y-11178060D01*
X21257149Y-11178060D02*
X21266673Y-11159012D01*
X21266673Y-11159012D02*
X21266673Y-11149489D01*
X21266673Y-11149489D02*
X21257149Y-11130441D01*
X21257149Y-11130441D02*
X21238101Y-11120917D01*
X21238101Y-11120917D02*
X21209530Y-11120917D01*
X21209530Y-11120917D02*
X21190482Y-11111393D01*
X21190482Y-11111393D02*
X21180958Y-11092346D01*
X21180958Y-11092346D02*
X21180958Y-11082822D01*
X21180958Y-11082822D02*
X21190482Y-11063774D01*
X21190482Y-11063774D02*
X21209530Y-11054250D01*
X21209530Y-11054250D02*
X21238101Y-11054250D01*
X21238101Y-11054250D02*
X21257149Y-11063774D01*
X21333339Y-11263774D02*
X21342863Y-11254250D01*
X21342863Y-11254250D02*
X21361911Y-11225679D01*
X21361911Y-11225679D02*
X21371434Y-11206631D01*
X21371434Y-11206631D02*
X21380958Y-11178060D01*
X21380958Y-11178060D02*
X21390482Y-11130441D01*
X21390482Y-11130441D02*
X21390482Y-11092346D01*
X21390482Y-11092346D02*
X21380958Y-11044727D01*
X21380958Y-11044727D02*
X21371434Y-11016155D01*
X21371434Y-11016155D02*
X21361911Y-10997108D01*
X21361911Y-10997108D02*
X21342863Y-10968536D01*
X21342863Y-10968536D02*
X21333339Y-10959012D01*
D12*
X16312800Y-11305100D02*
X16312800Y-11415100D01*
X16257800Y-11360100D02*
X16367800Y-11360100D01*
D10*
X16733339Y-11451584D02*
X16619053Y-11451584D01*
X16676196Y-11451584D02*
X16676196Y-11251584D01*
X16676196Y-11251584D02*
X16657148Y-11280155D01*
X16657148Y-11280155D02*
X16638101Y-11299203D01*
X16638101Y-11299203D02*
X16619053Y-11308727D01*
X16819053Y-11432536D02*
X16828577Y-11442060D01*
X16828577Y-11442060D02*
X16819053Y-11451584D01*
X16819053Y-11451584D02*
X16809529Y-11442060D01*
X16809529Y-11442060D02*
X16819053Y-11432536D01*
X16819053Y-11432536D02*
X16819053Y-11451584D01*
X17019053Y-11451584D02*
X16904767Y-11451584D01*
X16961910Y-11451584D02*
X16961910Y-11251584D01*
X16961910Y-11251584D02*
X16942863Y-11280155D01*
X16942863Y-11280155D02*
X16923815Y-11299203D01*
X16923815Y-11299203D02*
X16904767Y-11308727D01*
X17142863Y-11251584D02*
X17161910Y-11251584D01*
X17161910Y-11251584D02*
X17180958Y-11261108D01*
X17180958Y-11261108D02*
X17190482Y-11270631D01*
X17190482Y-11270631D02*
X17200005Y-11289679D01*
X17200005Y-11289679D02*
X17209529Y-11327774D01*
X17209529Y-11327774D02*
X17209529Y-11375393D01*
X17209529Y-11375393D02*
X17200005Y-11413488D01*
X17200005Y-11413488D02*
X17190482Y-11432536D01*
X17190482Y-11432536D02*
X17180958Y-11442060D01*
X17180958Y-11442060D02*
X17161910Y-11451584D01*
X17161910Y-11451584D02*
X17142863Y-11451584D01*
X17142863Y-11451584D02*
X17123815Y-11442060D01*
X17123815Y-11442060D02*
X17114291Y-11432536D01*
X17114291Y-11432536D02*
X17104767Y-11413488D01*
X17104767Y-11413488D02*
X17095244Y-11375393D01*
X17095244Y-11375393D02*
X17095244Y-11327774D01*
X17095244Y-11327774D02*
X17104767Y-11289679D01*
X17104767Y-11289679D02*
X17114291Y-11270631D01*
X17114291Y-11270631D02*
X17123815Y-11261108D01*
X17123815Y-11261108D02*
X17142863Y-11251584D01*
X17333339Y-11251584D02*
X17352386Y-11251584D01*
X17352386Y-11251584D02*
X17371434Y-11261108D01*
X17371434Y-11261108D02*
X17380958Y-11270631D01*
X17380958Y-11270631D02*
X17390482Y-11289679D01*
X17390482Y-11289679D02*
X17400005Y-11327774D01*
X17400005Y-11327774D02*
X17400005Y-11375393D01*
X17400005Y-11375393D02*
X17390482Y-11413488D01*
X17390482Y-11413488D02*
X17380958Y-11432536D01*
X17380958Y-11432536D02*
X17371434Y-11442060D01*
X17371434Y-11442060D02*
X17352386Y-11451584D01*
X17352386Y-11451584D02*
X17333339Y-11451584D01*
X17333339Y-11451584D02*
X17314291Y-11442060D01*
X17314291Y-11442060D02*
X17304767Y-11432536D01*
X17304767Y-11432536D02*
X17295244Y-11413488D01*
X17295244Y-11413488D02*
X17285720Y-11375393D01*
X17285720Y-11375393D02*
X17285720Y-11327774D01*
X17285720Y-11327774D02*
X17295244Y-11289679D01*
X17295244Y-11289679D02*
X17304767Y-11270631D01*
X17304767Y-11270631D02*
X17314291Y-11261108D01*
X17314291Y-11261108D02*
X17333339Y-11251584D01*
X17485720Y-11451584D02*
X17485720Y-11318250D01*
X17485720Y-11337298D02*
X17495244Y-11327774D01*
X17495244Y-11327774D02*
X17514291Y-11318250D01*
X17514291Y-11318250D02*
X17542863Y-11318250D01*
X17542863Y-11318250D02*
X17561910Y-11327774D01*
X17561910Y-11327774D02*
X17571434Y-11346822D01*
X17571434Y-11346822D02*
X17571434Y-11451584D01*
X17571434Y-11346822D02*
X17580958Y-11327774D01*
X17580958Y-11327774D02*
X17600005Y-11318250D01*
X17600005Y-11318250D02*
X17628577Y-11318250D01*
X17628577Y-11318250D02*
X17647625Y-11327774D01*
X17647625Y-11327774D02*
X17657148Y-11346822D01*
X17657148Y-11346822D02*
X17657148Y-11451584D01*
X17752386Y-11451584D02*
X17752386Y-11318250D01*
X17752386Y-11337298D02*
X17761910Y-11327774D01*
X17761910Y-11327774D02*
X17780958Y-11318250D01*
X17780958Y-11318250D02*
X17809529Y-11318250D01*
X17809529Y-11318250D02*
X17828577Y-11327774D01*
X17828577Y-11327774D02*
X17838101Y-11346822D01*
X17838101Y-11346822D02*
X17838101Y-11451584D01*
X17838101Y-11346822D02*
X17847625Y-11327774D01*
X17847625Y-11327774D02*
X17866672Y-11318250D01*
X17866672Y-11318250D02*
X17895244Y-11318250D01*
X17895244Y-11318250D02*
X17914291Y-11327774D01*
X17914291Y-11327774D02*
X17923815Y-11346822D01*
X17923815Y-11346822D02*
X17923815Y-11451584D01*
X18314291Y-11242060D02*
X18142863Y-11499203D01*
X18571434Y-11251584D02*
X18590482Y-11251584D01*
X18590482Y-11251584D02*
X18609529Y-11261108D01*
X18609529Y-11261108D02*
X18619053Y-11270631D01*
X18619053Y-11270631D02*
X18628577Y-11289679D01*
X18628577Y-11289679D02*
X18638101Y-11327774D01*
X18638101Y-11327774D02*
X18638101Y-11375393D01*
X18638101Y-11375393D02*
X18628577Y-11413488D01*
X18628577Y-11413488D02*
X18619053Y-11432536D01*
X18619053Y-11432536D02*
X18609529Y-11442060D01*
X18609529Y-11442060D02*
X18590482Y-11451584D01*
X18590482Y-11451584D02*
X18571434Y-11451584D01*
X18571434Y-11451584D02*
X18552387Y-11442060D01*
X18552387Y-11442060D02*
X18542863Y-11432536D01*
X18542863Y-11432536D02*
X18533339Y-11413488D01*
X18533339Y-11413488D02*
X18523815Y-11375393D01*
X18523815Y-11375393D02*
X18523815Y-11327774D01*
X18523815Y-11327774D02*
X18533339Y-11289679D01*
X18533339Y-11289679D02*
X18542863Y-11270631D01*
X18542863Y-11270631D02*
X18552387Y-11261108D01*
X18552387Y-11261108D02*
X18571434Y-11251584D01*
X18723815Y-11432536D02*
X18733339Y-11442060D01*
X18733339Y-11442060D02*
X18723815Y-11451584D01*
X18723815Y-11451584D02*
X18714291Y-11442060D01*
X18714291Y-11442060D02*
X18723815Y-11432536D01*
X18723815Y-11432536D02*
X18723815Y-11451584D01*
X18857148Y-11251584D02*
X18876196Y-11251584D01*
X18876196Y-11251584D02*
X18895244Y-11261108D01*
X18895244Y-11261108D02*
X18904768Y-11270631D01*
X18904768Y-11270631D02*
X18914291Y-11289679D01*
X18914291Y-11289679D02*
X18923815Y-11327774D01*
X18923815Y-11327774D02*
X18923815Y-11375393D01*
X18923815Y-11375393D02*
X18914291Y-11413488D01*
X18914291Y-11413488D02*
X18904768Y-11432536D01*
X18904768Y-11432536D02*
X18895244Y-11442060D01*
X18895244Y-11442060D02*
X18876196Y-11451584D01*
X18876196Y-11451584D02*
X18857148Y-11451584D01*
X18857148Y-11451584D02*
X18838101Y-11442060D01*
X18838101Y-11442060D02*
X18828577Y-11432536D01*
X18828577Y-11432536D02*
X18819053Y-11413488D01*
X18819053Y-11413488D02*
X18809529Y-11375393D01*
X18809529Y-11375393D02*
X18809529Y-11327774D01*
X18809529Y-11327774D02*
X18819053Y-11289679D01*
X18819053Y-11289679D02*
X18828577Y-11270631D01*
X18828577Y-11270631D02*
X18838101Y-11261108D01*
X18838101Y-11261108D02*
X18857148Y-11251584D01*
X19095244Y-11318250D02*
X19095244Y-11451584D01*
X19047625Y-11242060D02*
X19000006Y-11384917D01*
X19000006Y-11384917D02*
X19123815Y-11384917D01*
X19180958Y-11251584D02*
X19304768Y-11251584D01*
X19304768Y-11251584D02*
X19238101Y-11327774D01*
X19238101Y-11327774D02*
X19266672Y-11327774D01*
X19266672Y-11327774D02*
X19285720Y-11337298D01*
X19285720Y-11337298D02*
X19295244Y-11346822D01*
X19295244Y-11346822D02*
X19304768Y-11365869D01*
X19304768Y-11365869D02*
X19304768Y-11413488D01*
X19304768Y-11413488D02*
X19295244Y-11432536D01*
X19295244Y-11432536D02*
X19285720Y-11442060D01*
X19285720Y-11442060D02*
X19266672Y-11451584D01*
X19266672Y-11451584D02*
X19209529Y-11451584D01*
X19209529Y-11451584D02*
X19190482Y-11442060D01*
X19190482Y-11442060D02*
X19180958Y-11432536D01*
X19371434Y-11251584D02*
X19495244Y-11251584D01*
X19495244Y-11251584D02*
X19428577Y-11327774D01*
X19428577Y-11327774D02*
X19457149Y-11327774D01*
X19457149Y-11327774D02*
X19476196Y-11337298D01*
X19476196Y-11337298D02*
X19485720Y-11346822D01*
X19485720Y-11346822D02*
X19495244Y-11365869D01*
X19495244Y-11365869D02*
X19495244Y-11413488D01*
X19495244Y-11413488D02*
X19485720Y-11432536D01*
X19485720Y-11432536D02*
X19476196Y-11442060D01*
X19476196Y-11442060D02*
X19457149Y-11451584D01*
X19457149Y-11451584D02*
X19400006Y-11451584D01*
X19400006Y-11451584D02*
X19380958Y-11442060D01*
X19380958Y-11442060D02*
X19371434Y-11432536D01*
X19571434Y-11251584D02*
X19571434Y-11289679D01*
X19647625Y-11251584D02*
X19647625Y-11289679D01*
X19942863Y-11527774D02*
X19933339Y-11518250D01*
X19933339Y-11518250D02*
X19914291Y-11489679D01*
X19914291Y-11489679D02*
X19904768Y-11470631D01*
X19904768Y-11470631D02*
X19895244Y-11442060D01*
X19895244Y-11442060D02*
X19885720Y-11394441D01*
X19885720Y-11394441D02*
X19885720Y-11356346D01*
X19885720Y-11356346D02*
X19895244Y-11308727D01*
X19895244Y-11308727D02*
X19904768Y-11280155D01*
X19904768Y-11280155D02*
X19914291Y-11261108D01*
X19914291Y-11261108D02*
X19933339Y-11232536D01*
X19933339Y-11232536D02*
X19942863Y-11223012D01*
X20009530Y-11270631D02*
X20019053Y-11261108D01*
X20019053Y-11261108D02*
X20038101Y-11251584D01*
X20038101Y-11251584D02*
X20085720Y-11251584D01*
X20085720Y-11251584D02*
X20104768Y-11261108D01*
X20104768Y-11261108D02*
X20114291Y-11270631D01*
X20114291Y-11270631D02*
X20123815Y-11289679D01*
X20123815Y-11289679D02*
X20123815Y-11308727D01*
X20123815Y-11308727D02*
X20114291Y-11337298D01*
X20114291Y-11337298D02*
X20000006Y-11451584D01*
X20000006Y-11451584D02*
X20123815Y-11451584D01*
X20247625Y-11251584D02*
X20266672Y-11251584D01*
X20266672Y-11251584D02*
X20285720Y-11261108D01*
X20285720Y-11261108D02*
X20295244Y-11270631D01*
X20295244Y-11270631D02*
X20304768Y-11289679D01*
X20304768Y-11289679D02*
X20314291Y-11327774D01*
X20314291Y-11327774D02*
X20314291Y-11375393D01*
X20314291Y-11375393D02*
X20304768Y-11413488D01*
X20304768Y-11413488D02*
X20295244Y-11432536D01*
X20295244Y-11432536D02*
X20285720Y-11442060D01*
X20285720Y-11442060D02*
X20266672Y-11451584D01*
X20266672Y-11451584D02*
X20247625Y-11451584D01*
X20247625Y-11451584D02*
X20228577Y-11442060D01*
X20228577Y-11442060D02*
X20219053Y-11432536D01*
X20219053Y-11432536D02*
X20209530Y-11413488D01*
X20209530Y-11413488D02*
X20200006Y-11375393D01*
X20200006Y-11375393D02*
X20200006Y-11327774D01*
X20200006Y-11327774D02*
X20209530Y-11289679D01*
X20209530Y-11289679D02*
X20219053Y-11270631D01*
X20219053Y-11270631D02*
X20228577Y-11261108D01*
X20228577Y-11261108D02*
X20247625Y-11251584D01*
X20552387Y-11451584D02*
X20552387Y-11251584D01*
X20638101Y-11451584D02*
X20638101Y-11346822D01*
X20638101Y-11346822D02*
X20628577Y-11327774D01*
X20628577Y-11327774D02*
X20609530Y-11318250D01*
X20609530Y-11318250D02*
X20580958Y-11318250D01*
X20580958Y-11318250D02*
X20561911Y-11327774D01*
X20561911Y-11327774D02*
X20552387Y-11337298D01*
X20761911Y-11451584D02*
X20742863Y-11442060D01*
X20742863Y-11442060D02*
X20733339Y-11432536D01*
X20733339Y-11432536D02*
X20723815Y-11413488D01*
X20723815Y-11413488D02*
X20723815Y-11356346D01*
X20723815Y-11356346D02*
X20733339Y-11337298D01*
X20733339Y-11337298D02*
X20742863Y-11327774D01*
X20742863Y-11327774D02*
X20761911Y-11318250D01*
X20761911Y-11318250D02*
X20790482Y-11318250D01*
X20790482Y-11318250D02*
X20809530Y-11327774D01*
X20809530Y-11327774D02*
X20819053Y-11337298D01*
X20819053Y-11337298D02*
X20828577Y-11356346D01*
X20828577Y-11356346D02*
X20828577Y-11413488D01*
X20828577Y-11413488D02*
X20819053Y-11432536D01*
X20819053Y-11432536D02*
X20809530Y-11442060D01*
X20809530Y-11442060D02*
X20790482Y-11451584D01*
X20790482Y-11451584D02*
X20761911Y-11451584D01*
X20942863Y-11451584D02*
X20923815Y-11442060D01*
X20923815Y-11442060D02*
X20914292Y-11423012D01*
X20914292Y-11423012D02*
X20914292Y-11251584D01*
X21095244Y-11442060D02*
X21076196Y-11451584D01*
X21076196Y-11451584D02*
X21038101Y-11451584D01*
X21038101Y-11451584D02*
X21019053Y-11442060D01*
X21019053Y-11442060D02*
X21009530Y-11423012D01*
X21009530Y-11423012D02*
X21009530Y-11346822D01*
X21009530Y-11346822D02*
X21019053Y-11327774D01*
X21019053Y-11327774D02*
X21038101Y-11318250D01*
X21038101Y-11318250D02*
X21076196Y-11318250D01*
X21076196Y-11318250D02*
X21095244Y-11327774D01*
X21095244Y-11327774D02*
X21104768Y-11346822D01*
X21104768Y-11346822D02*
X21104768Y-11365869D01*
X21104768Y-11365869D02*
X21009530Y-11384917D01*
X21180958Y-11442060D02*
X21200006Y-11451584D01*
X21200006Y-11451584D02*
X21238101Y-11451584D01*
X21238101Y-11451584D02*
X21257149Y-11442060D01*
X21257149Y-11442060D02*
X21266673Y-11423012D01*
X21266673Y-11423012D02*
X21266673Y-11413488D01*
X21266673Y-11413488D02*
X21257149Y-11394441D01*
X21257149Y-11394441D02*
X21238101Y-11384917D01*
X21238101Y-11384917D02*
X21209530Y-11384917D01*
X21209530Y-11384917D02*
X21190482Y-11375393D01*
X21190482Y-11375393D02*
X21180958Y-11356346D01*
X21180958Y-11356346D02*
X21180958Y-11346822D01*
X21180958Y-11346822D02*
X21190482Y-11327774D01*
X21190482Y-11327774D02*
X21209530Y-11318250D01*
X21209530Y-11318250D02*
X21238101Y-11318250D01*
X21238101Y-11318250D02*
X21257149Y-11327774D01*
X21333339Y-11527774D02*
X21342863Y-11518250D01*
X21342863Y-11518250D02*
X21361911Y-11489679D01*
X21361911Y-11489679D02*
X21371434Y-11470631D01*
X21371434Y-11470631D02*
X21380958Y-11442060D01*
X21380958Y-11442060D02*
X21390482Y-11394441D01*
X21390482Y-11394441D02*
X21390482Y-11356346D01*
X21390482Y-11356346D02*
X21380958Y-11308727D01*
X21380958Y-11308727D02*
X21371434Y-11280155D01*
X21371434Y-11280155D02*
X21361911Y-11261108D01*
X21361911Y-11261108D02*
X21342863Y-11232536D01*
X21342863Y-11232536D02*
X21333339Y-11223012D01*
M02*
